{"glyphs":{"0":{"ha":1282,"x_min":111,"x_max":1171,"o":"m 263 178 q 187 281 263 178 q 111 694 111 383 q 263 1211 111 1006 q 642 1417 414 1417 q 1019 1211 868 1417 q 1171 694 1171 1006 q 1019 178 1171 383 q 642 -28 868 -28 q 263 178 414 -28 m 474 1217 q 512 1039 474 1135 q 604 853 550 943 q 712 674 658 764 q 803 485 765 583 q 842 301 842 388 q 760 15 842 94 q 972 260 890 78 q 1053 694 1053 442 q 934 1203 1053 1006 q 642 1400 815 1400 q 509 1359 544 1400 q 474 1217 474 1318 m 489 1357 q 302 1101 375 1279 q 229 694 229 924 q 348 186 229 383 q 642 -11 467 -11 q 765 40 731 -11 q 799 183 799 92 q 760 349 799 257 q 668 530 722 440 q 560 712 614 619 q 467 908 506 804 q 429 1104 429 1013 q 489 1357 429 1257 z "},"1":{"ha":458,"x_min":42,"x_max":417,"o":"m 417 0 l 42 0 l 42 14 q 148 89 126 14 q 169 386 169 164 l 169 1042 q 148 1197 169 1160 q 42 1235 126 1235 l 42 1249 q 184 1317 107 1257 q 275 1417 261 1376 l 289 1417 l 289 386 q 310 89 289 164 q 417 14 332 14 l 417 0 z "},"2":{"ha":1142,"x_min":111,"x_max":1031,"o":"m 111 165 q 156 297 111 233 q 270 415 200 361 q 426 521 340 468 q 597 628 511 574 q 752 742 682 683 q 867 874 822 800 q 911 1029 911 949 q 824 1290 911 1181 q 578 1400 738 1400 q 335 1306 424 1400 q 246 1100 246 1211 q 290 973 246 1026 q 393 919 333 919 q 451 933 425 919 q 476 975 476 947 q 500 931 500 964 q 459 844 500 875 q 358 813 418 813 q 209 879 271 813 q 147 1068 147 946 q 211 1263 147 1182 q 370 1381 275 1344 q 578 1417 465 1417 q 764 1390 682 1417 q 894 1322 846 1363 q 975 1229 943 1282 q 1019 1131 1007 1176 q 1031 1042 1031 1085 q 981 844 1031 933 q 851 695 931 756 q 675 583 771 635 q 483 488 579 532 q 306 401 386 444 q 176 299 226 357 q 126 175 126 242 q 247 61 126 61 q 410 94 315 61 q 611 162 504 128 q 817 196 718 196 q 952 158 894 196 q 1010 61 1010 119 q 986 0 1010 19 q 922 58 965 36 q 828 78 878 79 q 559 23 726 74 q 310 -28 392 -28 q 167 27 222 -28 q 111 165 111 82 z "},"3":{"ha":1175,"x_min":111,"x_max":1064,"o":"m 539 -28 q 340 4 435 -28 q 178 107 246 36 q 111 274 111 178 q 152 413 111 360 q 276 465 193 465 q 373 412 342 465 q 371 324 404 358 q 331 332 350 332 q 262 301 289 332 q 235 229 235 271 q 326 53 235 117 q 539 -11 417 -11 q 825 110 715 -11 q 935 457 935 232 q 857 667 935 583 q 669 750 779 750 q 528 728 593 750 q 430 682 464 707 q 360 635 396 657 q 299 614 325 614 q 255 635 274 614 q 236 681 236 656 q 268 754 236 724 q 351 802 300 785 q 465 835 403 819 q 589 872 526 851 q 703 923 651 893 q 786 1006 754 953 q 818 1131 818 1058 q 804 1222 818 1178 q 760 1307 790 1265 q 674 1374 731 1349 q 540 1400 617 1400 q 314 1330 386 1400 q 242 1168 242 1260 q 265 1076 242 1119 q 333 1032 288 1032 q 403 1071 381 1032 q 421 1036 421 1061 q 386 968 421 993 q 306 943 351 943 q 183 995 233 943 q 132 1143 132 1047 q 200 1295 132 1231 q 358 1388 268 1360 q 540 1417 449 1417 q 821 1340 703 1417 q 939 1126 939 1263 q 903 994 939 1049 q 810 910 867 939 q 683 863 753 882 q 544 833 614 844 q 418 808 475 821 q 325 768 361 794 q 289 701 289 742 q 301 671 289 681 q 328 661 313 661 q 388 681 346 661 q 478 724 431 700 q 597 768 525 749 q 738 788 669 788 q 972 697 879 788 q 1064 456 1064 607 q 989 210 1064 322 q 794 35 914 97 q 539 -28 674 -28 z "},"4":{"ha":1022,"x_min":42,"x_max":981,"o":"m 54 344 l 42 344 q 391 913 260 668 q 596 1389 522 1157 l 754 1389 q 432 899 631 1197 q 110 408 233 600 q 227 462 158 442 q 357 482 296 482 q 579 419 444 482 q 779 356 714 356 q 897 380 849 356 q 944 450 944 404 q 912 508 944 489 q 840 533 879 528 q 767 562 800 538 q 735 632 735 586 l 735 1156 l 853 1156 l 853 581 q 869 545 853 558 q 906 526 886 532 q 943 499 926 519 q 960 443 960 478 q 853 294 960 346 q 881 74 856 135 q 981 14 906 14 l 981 0 l 606 0 l 606 14 q 703 69 678 14 q 732 268 729 124 q 501 334 640 268 q 249 400 361 400 q 54 344 150 400 z "},"5":{"ha":1194,"x_min":111,"x_max":1083,"o":"m 563 -28 q 248 87 385 -28 q 111 364 111 201 q 176 569 111 485 q 367 653 242 653 q 483 613 435 653 q 525 514 531 574 q 422 551 479 551 q 319 513 361 551 q 261 428 276 474 q 246 340 246 383 q 336 92 246 194 q 563 -11 426 -11 q 785 71 692 -11 q 922 274 879 153 q 964 535 964 394 q 851 875 964 735 q 544 1015 739 1015 q 413 993 471 1015 q 324 938 356 971 q 269 874 292 906 q 232 819 247 842 q 204 797 217 797 q 183 863 183 797 q 184 987 183 883 q 185 1121 185 1090 l 185 1314 q 225 1388 185 1358 q 319 1417 265 1417 q 578 1363 421 1417 q 829 1306 735 1310 q 1001 1389 975 1300 q 997 1254 1043 1322 q 857 1186 951 1186 q 669 1214 757 1186 q 499 1269 581 1242 q 333 1297 418 1297 q 242 1270 285 1297 q 200 1197 200 1243 q 198 1038 200 1118 q 196 917 196 957 q 222 858 196 858 q 249 878 231 858 q 294 926 267 897 q 357 983 321 954 q 449 1031 393 1011 q 569 1050 506 1050 q 946 904 808 1050 q 1083 535 1083 758 q 1019 257 1083 385 q 833 51 954 129 q 563 -28 713 -28 z "},"6":{"ha":1194,"x_min":111,"x_max":1083,"o":"m 624 -28 q 433 16 522 -28 q 269 147 343 60 q 153 378 196 233 q 111 708 111 522 q 147 979 111 857 q 241 1181 183 1101 q 375 1315 299 1260 q 528 1393 451 1369 q 683 1417 606 1417 q 792 1402 743 1417 q 861 1372 842 1388 l 879 1358 l 871 1347 q 856 1362 867 1353 q 799 1385 844 1371 q 693 1400 754 1400 q 448 1307 553 1400 q 291 1058 343 1214 q 239 708 239 903 q 284 348 239 510 q 418 88 329 186 q 624 -11 507 -11 q 875 145 786 -11 q 964 549 964 301 q 956 694 964 626 q 926 828 947 763 q 871 942 904 894 q 782 1017 838 989 q 654 1046 726 1046 q 506 996 578 1046 q 433 865 433 946 q 465 747 433 800 q 543 658 497 694 q 635 586 589 622 q 713 499 681 550 q 744 385 744 449 q 721 297 744 333 q 651 261 697 261 q 601 285 615 261 q 631 306 621 285 q 640 351 640 326 q 613 447 640 401 q 544 529 585 493 q 464 603 504 565 q 396 694 424 642 q 368 810 368 747 q 387 891 368 849 q 442 972 406 933 q 541 1037 478 1011 q 682 1063 604 1063 q 898 988 804 1063 q 1038 799 992 914 q 1083 549 1083 683 q 1057 352 1083 450 q 978 167 1031 254 q 833 26 925 81 q 624 -28 742 -28 z "},"7":{"ha":1069,"x_min":111,"x_max":958,"o":"m 111 1335 q 120 1373 111 1357 q 143 1389 129 1389 q 187 1326 143 1351 q 281 1301 231 1301 q 531 1359 356 1301 q 822 1417 707 1417 q 923 1386 888 1417 q 958 1304 958 1356 q 908 1144 958 1233 q 788 962 858 1056 q 645 765 717 868 q 524 527 574 661 q 474 256 474 393 q 512 103 474 178 q 606 4 550 29 q 549 -28 592 -28 q 410 63 467 -28 q 354 278 354 153 q 410 515 354 397 q 546 724 467 632 q 705 899 625 815 q 841 1067 785 983 q 897 1221 897 1150 q 869 1279 897 1257 q 790 1301 842 1301 q 538 1240 703 1301 q 296 1181 374 1178 q 169 1228 226 1183 q 111 1335 111 1274 z "},"8":{"ha":1182,"x_min":83,"x_max":1099,"o":"m 608 -28 q 238 83 392 -28 q 83 374 83 193 q 110 510 83 450 q 177 607 138 571 q 281 674 217 643 q 398 722 344 706 q 527 760 451 738 q 647 801 603 783 q 890 1110 890 897 q 798 1323 890 1244 q 578 1401 706 1401 q 370 1320 461 1401 q 279 1129 279 1239 q 359 930 279 1013 q 550 847 439 847 l 556 839 q 485 817 536 817 q 259 899 358 817 q 160 1117 160 982 q 285 1337 160 1257 q 578 1417 410 1417 q 783 1385 688 1417 q 944 1281 878 1353 q 1010 1111 1010 1210 q 989 1013 1010 1057 q 939 938 968 968 q 858 877 910 907 q 764 830 807 847 q 656 789 721 813 q 583 763 601 769 q 513 736 564 756 q 442 706 463 717 q 380 672 421 694 q 320 631 339 649 q 274 586 301 614 q 234 531 246 558 q 213 469 222 504 q 203 396 203 435 q 324 102 203 218 q 608 -14 444 -14 q 802 46 715 -14 q 934 198 889 106 q 979 393 979 290 q 910 630 979 524 q 728 743 840 736 l 728 754 q 988 649 876 754 q 1099 394 1099 544 q 956 93 1099 214 q 608 -28 813 -28 z "},"9":{"ha":1194,"x_min":111,"x_max":1083,"o":"m 513 326 q 297 401 390 326 q 157 590 203 475 q 111 840 111 706 q 138 1038 111 940 q 217 1222 164 1135 q 361 1363 269 1308 q 571 1417 453 1417 q 762 1373 672 1417 q 925 1242 851 1329 q 1041 1011 999 1156 q 1083 681 1083 867 q 1047 410 1083 532 q 953 208 1011 288 q 819 74 896 129 q 666 -4 743 19 q 511 -28 589 -28 q 402 -13 451 -28 q 333 17 353 1 l 315 31 l 324 42 q 339 27 328 36 q 395 3 350 18 q 501 -11 440 -11 q 833 185 711 -11 q 956 681 956 382 q 910 1041 956 879 q 776 1301 865 1203 q 571 1400 688 1400 q 319 1244 408 1400 q 231 840 231 1088 q 239 694 231 763 q 269 560 247 626 q 324 447 290 494 q 413 372 357 400 q 540 343 468 343 q 689 393 617 343 q 761 524 761 443 q 729 642 761 589 q 651 731 697 694 q 560 803 606 767 q 482 890 514 839 q 450 1004 450 940 q 474 1092 450 1056 q 543 1128 497 1128 q 593 1104 579 1128 q 564 1083 574 1104 q 554 1038 554 1063 q 582 942 554 988 q 650 860 610 897 q 731 786 690 824 q 799 695 771 749 q 826 579 826 642 q 808 498 826 540 q 753 417 789 456 q 653 352 717 378 q 513 326 590 326 z "},"\u0000":{"ha":0,"x_min":0,"x_max":0,"o":""},"\r":{"ha":347,"x_min":0,"x_max":0,"o":""}," ":{"ha":486,"x_min":0,"x_max":0,"o":""},"!":{"ha":353,"x_min":83,"x_max":269,"o":"m 133 878 q 107 1285 103 1194 q 176 1417 115 1417 q 215 1399 200 1417 q 236 1349 229 1382 q 245 1274 243 1315 q 244 1174 247 1232 q 237 1061 242 1117 q 225 935 232 1006 q 219 878 221 897 q 185 286 185 511 l 168 286 q 133 878 168 511 m 242 -1 q 229 -14 242 -1 q 176 -28 215 -28 q 110 -1 138 -28 q 83 65 83 26 q 110 131 83 104 q 176 158 138 158 q 242 131 215 158 q 269 65 269 104 q 242 -1 269 26 z "},"\"":{"ha":611,"x_min":83,"x_max":528,"o":"m 110 1258 q 97 1271 110 1258 q 83 1324 83 1285 q 110 1390 83 1363 q 176 1417 138 1417 q 247 1384 218 1417 q 276 1292 276 1351 q 263 1197 276 1239 q 228 1132 249 1154 q 188 1094 208 1110 q 154 1075 168 1079 l 140 1069 l 139 1083 q 209 1148 183 1093 q 219 1249 235 1203 q 176 1231 207 1231 q 110 1258 138 1231 m 362 1258 q 348 1271 362 1258 q 335 1324 335 1285 q 362 1390 335 1363 q 428 1417 389 1417 q 499 1384 469 1417 q 528 1292 528 1351 q 514 1197 528 1239 q 480 1132 500 1154 q 440 1094 460 1110 q 406 1075 419 1079 l 392 1069 l 390 1083 q 460 1148 435 1093 q 471 1249 486 1203 q 428 1231 458 1231 q 362 1258 389 1231 z "},"#":{"ha":893,"x_min":83,"x_max":810,"o":"m 553 376 l 725 376 l 725 363 l 549 363 l 436 0 l 421 0 l 533 363 l 275 363 l 163 0 l 147 0 l 260 363 l 83 363 l 83 376 l 264 376 l 354 663 l 167 663 l 167 676 l 358 676 l 463 1011 l 478 1011 l 374 676 l 631 676 l 736 1011 l 751 1011 l 646 676 l 810 676 l 810 663 l 642 663 l 553 376 m 281 376 l 538 376 l 626 663 l 369 663 l 281 376 z "},"$":{"ha":1142,"x_min":83,"x_max":1058,"o":"m 83 1056 q 208 1305 83 1201 q 550 1417 332 1408 q 525 1567 525 1551 q 536 1615 525 1596 q 567 1633 547 1633 q 610 1567 610 1633 q 606 1528 610 1551 q 595 1472 601 1506 q 585 1417 589 1439 q 976 1353 790 1417 l 976 1167 l 963 1167 q 952 1192 960 1176 q 914 1247 944 1207 q 844 1319 883 1288 q 734 1375 804 1350 q 581 1400 664 1400 q 574 1317 574 1354 l 574 764 q 875 636 793 685 q 1058 357 1058 526 q 928 99 1058 213 q 586 -26 797 -14 q 610 -162 610 -142 q 567 -229 610 -229 q 536 -210 547 -229 q 525 -162 525 -192 q 547 -28 525 -151 q 89 142 317 -28 l 89 328 l 103 328 q 122 297 110 317 q 177 225 135 276 q 268 132 219 174 q 393 51 317 90 q 551 1 469 13 q 560 88 560 46 l 560 669 q 264 797 340 753 q 83 1056 83 901 m 978 300 q 954 406 978 357 q 897 489 931 454 q 804 558 863 524 q 697 613 746 592 q 574 664 649 635 l 574 88 q 582 -1 574 57 q 615 -3 593 -3 q 871 90 764 -3 q 978 300 978 182 m 181 1089 q 203 996 181 1039 q 256 922 225 953 q 343 862 288 892 q 443 813 399 832 q 560 768 488 794 l 560 1317 q 553 1400 560 1354 q 281 1300 382 1392 q 181 1089 181 1208 z "},"%":{"ha":1286,"x_min":83,"x_max":1203,"o":"m 547 774 q 508 721 547 774 q 354 668 469 668 q 161 774 239 668 q 83 1042 83 881 q 160 1310 83 1204 q 354 1417 238 1417 q 640 1320 536 1417 q 743 1042 743 1224 q 718 842 743 944 q 663 669 693 740 q 608 510 633 599 q 583 347 583 422 q 646 113 583 206 q 832 -3 708 19 q 708 130 754 36 q 661 346 661 224 q 738 615 661 508 q 932 721 815 721 q 1126 615 1049 721 q 1203 346 1203 508 q 1125 78 1203 185 q 932 -28 1047 -28 q 842 -19 889 -28 q 739 15 794 -11 q 641 80 683 40 q 569 189 599 119 q 540 347 540 258 q 565 547 540 444 q 620 719 590 649 q 675 878 650 790 q 700 1042 700 967 q 639 1274 700 1181 q 456 1392 578 1368 q 578 1258 532 1351 q 625 1042 625 1164 q 547 774 625 881 m 763 347 q 769 247 763 300 q 791 131 775 194 q 843 27 807 68 q 931 -14 879 -14 q 1051 88 1001 -14 q 1100 347 1100 189 q 1051 606 1100 506 q 931 707 1001 707 q 810 607 858 707 q 763 347 763 507 m 185 1043 q 233 783 185 885 q 353 682 281 682 q 473 783 424 682 q 522 1043 522 885 q 515 1139 522 1085 q 490 1256 507 1193 q 437 1360 472 1318 q 353 1403 401 1403 q 233 1303 281 1403 q 185 1043 185 1203 z "},"&":{"ha":1256,"x_min":83,"x_max":1174,"o":"m 83 436 q 213 713 83 594 q 526 832 343 832 q 598 840 576 832 q 619 871 619 849 q 554 903 619 903 q 495 897 532 903 q 433 890 458 890 q 231 946 314 890 q 149 1122 149 1001 q 175 1225 149 1175 q 253 1319 201 1275 q 394 1390 304 1363 q 599 1417 483 1417 q 781 1388 690 1417 q 939 1295 871 1360 q 1007 1143 1007 1231 q 956 995 1007 1047 q 833 943 906 943 q 751 967 785 943 q 718 1036 718 992 q 736 1071 718 1061 q 806 1032 758 1032 q 874 1076 851 1032 q 897 1168 897 1119 q 825 1330 897 1260 q 599 1400 753 1400 q 440 1370 508 1400 q 336 1294 371 1340 q 285 1206 301 1249 q 269 1126 269 1163 q 290 1028 269 1069 q 339 965 311 986 q 410 933 367 944 q 484 919 454 921 q 554 917 514 917 q 633 872 633 917 q 557 819 633 819 q 303 699 403 819 q 203 399 203 579 q 310 112 203 235 q 589 -11 418 -11 q 759 23 682 -11 q 884 110 836 57 q 958 226 932 164 q 985 347 985 288 q 947 479 985 428 q 839 531 910 531 q 706 492 781 531 q 585 453 632 453 q 514 485 542 453 q 486 561 486 517 q 588 728 486 651 q 808 806 689 806 q 956 786 875 806 q 1078 767 1036 767 q 1165 807 1133 767 q 1173 785 1172 800 q 1167 753 1174 771 q 1145 718 1160 735 q 1101 690 1131 701 q 1031 679 1071 679 q 896 698 971 679 q 751 717 821 717 q 581 673 663 717 q 500 561 500 629 q 523 496 500 525 q 585 467 546 467 q 681 496 629 467 q 792 553 733 525 q 914 582 851 582 q 976 572 944 582 q 1040 538 1007 561 q 1093 470 1072 515 q 1114 365 1114 425 q 1063 187 1114 265 q 931 63 1011 108 q 762 -5 850 18 q 590 -28 674 -28 q 209 101 335 -28 q 83 436 83 231 z "},"'":{"ha":360,"x_min":83,"x_max":276,"o":"m 176 1231 q 110 1258 138 1231 q 83 1324 83 1285 q 110 1390 83 1363 q 176 1417 138 1417 q 247 1384 218 1417 q 276 1292 276 1351 q 263 1197 276 1239 q 228 1132 249 1154 q 188 1094 208 1110 q 154 1075 168 1079 l 140 1069 l 139 1083 q 209 1148 183 1093 q 219 1249 235 1203 q 176 1231 207 1231 z "},"(":{"ha":689,"x_min":83,"x_max":606,"o":"m 606 -235 q 435 -166 525 -235 q 266 19 344 -97 q 135 316 188 136 q 83 696 83 496 q 135 1076 83 896 q 266 1372 188 1256 q 435 1558 344 1489 q 606 1626 525 1626 l 606 1607 q 415 1482 507 1607 q 264 1144 322 1357 q 206 696 206 932 q 264 247 206 460 q 415 -90 322 35 q 606 -215 507 -215 l 606 -235 z "},")":{"ha":689,"x_min":83,"x_max":606,"o":"m 83 1607 l 83 1626 q 254 1558 164 1626 q 423 1372 344 1489 q 553 1076 501 1256 q 606 696 606 896 q 553 316 606 496 q 423 19 501 136 q 254 -166 344 -97 q 83 -235 164 -235 l 83 -215 q 274 -90 182 -215 q 425 247 367 35 q 483 696 483 460 q 425 1144 483 932 q 274 1482 367 1357 q 83 1607 182 1607 z "},"*":{"ha":417,"x_min":81,"x_max":339,"o":"m 103 1272 q 85 1299 81 1279 q 114 1310 89 1318 q 154 1287 119 1307 q 207 1261 189 1267 q 198 1317 207 1279 q 189 1364 189 1356 q 208 1389 189 1389 q 228 1364 228 1389 q 219 1317 228 1356 q 211 1261 211 1279 q 263 1287 229 1267 q 303 1310 296 1307 q 333 1299 326 1318 q 315 1272 339 1281 q 269 1266 308 1269 q 213 1257 231 1263 q 253 1216 224 1242 q 286 1183 282 1190 q 286 1153 300 1163 q 256 1161 269 1142 q 234 1204 250 1168 q 208 1254 218 1240 q 183 1204 197 1240 q 163 1161 168 1168 q 132 1153 147 1142 q 131 1183 118 1163 q 165 1216 135 1190 q 206 1257 194 1242 q 148 1267 188 1264 q 103 1272 108 1271 z "},"+":{"ha":861,"x_min":83,"x_max":778,"o":"m 102 654 q 93 661 102 654 q 83 693 83 668 q 102 732 83 718 q 150 746 121 746 q 273 723 171 746 q 425 699 375 700 q 401 851 424 749 q 378 974 378 953 q 392 1022 378 1003 q 431 1040 406 1040 q 469 1022 456 1040 q 483 974 483 1003 q 460 851 483 953 q 436 699 438 749 q 588 723 486 700 q 711 746 690 746 q 759 732 740 746 q 778 693 778 718 q 759 654 778 668 q 711 640 740 640 q 588 663 690 640 q 436 688 486 686 q 460 535 438 638 q 483 413 483 433 q 469 365 483 383 q 431 346 456 346 q 392 365 406 346 q 378 413 378 383 q 401 535 378 433 q 425 688 424 638 q 273 663 375 686 q 150 640 171 640 q 102 654 121 640 z "},",":{"ha":360,"x_min":83,"x_max":276,"o":"m 176 0 q 110 27 138 0 q 83 93 83 54 q 110 159 83 132 q 176 186 138 186 q 247 153 218 186 q 276 61 276 121 q 263 -34 276 8 q 228 -99 249 -76 q 188 -136 208 -121 q 154 -156 168 -151 l 140 -161 l 139 -147 q 209 -83 183 -137 q 219 18 235 -28 q 176 0 207 0 z "},"-":{"ha":757,"x_min":83,"x_max":675,"o":"m 83 667 l 83 694 l 675 694 l 675 667 l 83 667 z "},".":{"ha":353,"x_min":83,"x_max":269,"o":"m 110 27 q 97 41 110 27 q 83 93 83 54 q 110 159 83 132 q 176 186 138 186 q 242 159 215 186 q 269 93 269 132 q 242 27 269 54 q 176 0 215 0 q 110 27 138 0 z "},"/":{"ha":631,"x_min":83,"x_max":547,"o":"m 83 -28 l 533 1417 l 547 1417 l 97 -28 l 83 -28 z "},":":{"ha":353,"x_min":83,"x_max":269,"o":"m 110 27 q 97 41 110 27 q 83 93 83 54 q 110 159 83 132 q 176 186 138 186 q 242 159 215 186 q 269 93 269 132 q 242 27 269 54 q 176 0 215 0 q 110 27 138 0 m 110 523 q 97 536 110 523 q 83 589 83 550 q 110 655 83 628 q 176 682 138 682 q 242 655 215 682 q 269 589 269 628 q 242 523 269 550 q 176 496 215 496 q 110 523 138 496 z "},";":{"ha":360,"x_min":83,"x_max":276,"o":"m 110 27 q 97 41 110 27 q 83 93 83 54 q 110 159 83 132 q 176 186 138 186 q 247 153 218 186 q 276 61 276 121 q 263 -34 276 8 q 228 -99 249 -76 q 188 -136 208 -121 q 154 -156 168 -151 l 140 -161 l 139 -147 q 209 -83 183 -137 q 219 18 235 -28 q 176 0 207 0 q 110 27 138 0 m 110 523 q 97 536 110 523 q 83 589 83 550 q 110 655 83 628 q 176 682 138 682 q 242 655 215 682 q 269 589 269 628 q 242 523 269 550 q 176 496 215 496 q 110 523 138 496 z "},"<":{"ha":813,"x_min":83,"x_max":729,"o":"m 107 679 q 83 694 83 688 q 107 710 83 701 q 341 821 215 753 q 547 929 467 889 q 672 969 626 969 q 729 928 729 969 q 716 892 729 907 q 690 872 703 878 l 678 868 l 107 694 l 678 521 q 692 516 683 519 q 715 497 700 513 q 729 461 729 482 q 672 419 729 419 q 547 460 628 419 q 342 569 467 501 q 107 679 217 638 z "},"=":{"ha":861,"x_min":83,"x_max":778,"o":"m 150 749 q 102 763 121 749 q 83 801 83 776 q 102 840 83 826 q 150 854 121 854 q 276 831 172 854 q 431 807 381 807 q 585 831 481 807 q 711 854 689 854 q 759 840 740 854 q 778 801 778 826 q 759 763 778 776 q 711 749 740 749 q 585 772 689 749 q 431 796 481 796 q 276 772 381 796 q 150 749 172 749 m 102 551 q 93 558 102 551 q 83 590 83 565 q 102 629 83 615 q 150 643 121 643 q 276 619 172 643 q 431 596 381 596 q 585 619 481 596 q 711 643 689 643 q 759 629 740 643 q 778 590 778 615 q 759 551 778 565 q 711 538 740 538 q 585 561 689 538 q 431 585 481 585 q 276 561 381 585 q 150 538 172 538 q 102 551 121 538 z "},">":{"ha":813,"x_min":83,"x_max":729,"o":"m 83 928 q 140 969 83 969 q 265 928 185 969 q 471 819 346 886 q 706 710 596 751 q 729 694 729 701 q 706 679 729 688 q 471 569 596 638 q 265 460 346 501 q 140 419 185 419 q 83 461 83 419 q 96 497 83 482 q 122 517 108 511 l 135 521 l 706 694 l 135 868 q 121 873 129 869 q 98 892 113 876 q 83 928 83 907 z "},"?":{"ha":1076,"x_min":83,"x_max":993,"o":"m 83 1068 q 204 1316 83 1215 q 518 1417 325 1417 q 857 1300 721 1417 q 993 1007 993 1183 q 959 847 993 915 q 871 737 925 778 q 751 664 817 696 q 619 605 685 632 q 500 547 554 578 q 412 468 446 517 q 378 354 378 419 q 388 304 378 324 q 424 260 397 285 q 399 238 419 249 q 361 228 379 228 q 290 268 318 228 q 263 360 263 308 q 361 538 263 454 q 451 601 396 567 q 551 661 507 635 q 638 723 596 688 q 705 807 681 758 q 729 917 729 856 q 708 973 729 950 q 654 996 688 996 q 582 967 619 996 q 514 902 544 938 q 431 838 483 867 q 317 808 378 808 q 147 885 210 808 q 83 1068 83 963 m 154 1144 q 217 961 154 1038 q 378 885 279 885 q 448 898 417 885 q 501 931 479 911 q 544 969 524 950 q 594 1002 565 989 q 656 1015 622 1015 q 721 988 697 1015 q 744 921 744 961 q 722 810 744 861 q 658 721 700 760 q 576 656 615 682 q 481 603 536 631 q 579 631 519 617 q 678 656 639 646 q 763 688 717 665 q 837 739 810 710 q 883 821 864 768 q 901 946 901 874 q 783 1256 901 1118 q 485 1394 664 1394 q 244 1325 333 1394 q 154 1144 154 1256 m 297 131 q 310 145 297 131 q 363 158 324 158 q 428 131 401 158 q 456 65 456 104 q 428 -1 456 26 q 363 -28 401 -28 q 297 -1 324 -28 q 269 65 269 26 q 297 131 269 104 z "},"@":{"ha":1526,"x_min":42,"x_max":1485,"o":"m 763 -28 q 483 29 617 -28 q 252 183 349 86 q 99 414 156 281 q 42 694 42 547 q 99 975 42 842 q 252 1206 156 1108 q 483 1360 349 1303 q 763 1417 617 1417 q 1043 1360 910 1417 q 1274 1206 1176 1303 q 1428 975 1371 1108 q 1485 694 1485 842 q 1467 554 1485 625 q 1417 418 1450 483 q 1324 311 1383 353 q 1190 269 1265 269 q 1020 332 1083 269 q 957 464 957 394 l 957 646 q 921 515 942 571 q 866 411 900 460 q 781 337 832 363 q 663 311 729 311 q 493 378 560 311 q 426 547 426 444 q 466 696 426 635 q 565 785 506 757 q 695 835 625 813 q 825 869 765 857 q 924 907 885 881 q 964 974 964 933 q 908 1065 964 1033 q 778 1096 851 1096 q 637 1065 694 1096 q 579 972 579 1033 q 588 940 579 954 q 606 923 597 925 q 621 924 615 921 q 609 881 629 900 q 563 861 589 861 q 507 887 529 861 q 485 947 485 913 q 566 1064 485 1022 q 778 1106 647 1106 q 966 1068 878 1106 q 1054 972 1054 1031 q 1025 917 1054 938 q 949 884 996 896 q 844 862 901 872 q 729 831 786 851 q 625 778 672 810 q 549 685 578 746 q 519 540 519 625 q 568 401 519 456 q 694 346 617 346 q 874 453 794 346 q 954 774 954 561 q 936 825 954 821 q 965 840 936 840 q 1035 797 1018 840 q 1053 674 1053 753 l 1053 429 q 1093 327 1053 363 q 1189 292 1133 292 q 1324 333 1267 292 q 1413 438 1382 374 q 1457 567 1443 501 q 1471 694 1471 632 q 1375 1049 1471 886 q 1117 1308 1279 1213 q 764 1403 954 1403 q 492 1347 622 1403 q 266 1195 361 1290 q 114 969 171 1100 q 57 694 57 838 q 114 421 57 551 q 266 195 171 290 q 491 43 361 100 q 763 -14 621 -14 q 1015 33 892 -14 q 1232 164 1138 79 l 1242 154 q 763 -28 1035 -28 z "},"A":{"ha":1217,"x_min":42,"x_max":1217,"o":"m 42 243 q 83 397 42 324 q 185 523 124 471 q 319 625 247 575 q 453 712 392 675 q 556 788 515 749 q 597 860 597 826 q 564 897 597 897 q 517 874 542 897 q 475 824 493 851 q 430 774 457 797 q 376 751 403 751 q 340 774 349 751 q 344 825 332 797 q 451 1109 382 925 q 568 1417 521 1293 l 582 1417 l 1026 243 q 1117 67 1076 119 q 1217 14 1157 14 l 1217 0 l 761 0 l 761 14 q 872 33 832 14 q 922 88 913 51 q 926 167 932 125 q 897 267 919 208 l 725 721 q 733 554 733 654 q 615 134 733 296 q 294 -28 497 -28 q 110 51 178 -28 q 42 243 42 129 m 160 269 q 219 104 160 169 q 378 39 278 39 q 568 122 488 39 q 684 317 649 204 q 719 551 719 431 q 690 813 719 717 l 522 1256 l 363 831 q 378 765 339 765 q 436 802 404 765 q 502 875 468 839 q 567 911 536 911 q 613 857 613 911 q 588 784 613 819 q 523 719 563 749 q 435 656 483 689 q 338 585 386 624 q 249 503 289 547 q 185 399 210 460 q 160 269 160 339 z "},"B":{"ha":1165,"x_min":42,"x_max":1082,"o":"m 42 1389 l 203 1389 q 411 1403 264 1389 q 619 1417 558 1417 q 805 1394 725 1417 q 940 1313 885 1372 q 994 1161 994 1254 q 948 1010 994 1076 q 832 908 901 944 q 681 839 763 871 q 529 787 599 807 q 413 737 460 767 q 367 672 367 707 q 407 636 367 636 q 474 657 429 636 q 579 699 519 678 q 696 721 639 721 q 971 625 860 721 q 1082 374 1082 529 q 960 81 1082 190 q 621 -28 839 -28 q 411 -14 539 -28 q 208 0 283 0 l 42 0 l 42 14 q 148 89 126 14 q 169 386 169 164 l 169 1003 q 148 1300 169 1225 q 42 1375 126 1375 l 42 1389 m 288 1358 l 288 36 q 542 -8 411 -8 q 849 92 736 -8 q 963 364 963 192 q 890 602 963 499 q 694 706 818 706 q 535 664 632 706 q 401 622 438 622 q 353 669 353 622 q 392 749 353 711 q 488 815 431 788 q 614 877 546 842 q 740 947 682 913 q 836 1038 797 982 q 875 1158 875 1093 q 825 1296 875 1240 q 702 1374 775 1351 q 539 1397 629 1397 q 288 1358 413 1397 z "},"C":{"ha":1156,"x_min":83,"x_max":1128,"o":"m 701 -28 q 262 178 440 -28 q 83 694 83 385 q 262 1210 83 1004 q 701 1417 440 1417 q 901 1390 815 1417 q 1035 1318 988 1363 q 1105 1225 1082 1274 q 1128 1125 1128 1176 q 1099 995 1128 1057 q 1026 889 1069 933 q 931 800 982 844 q 837 722 881 756 q 764 647 793 688 q 735 568 735 607 q 776 478 735 514 q 690 510 724 467 q 656 607 656 553 q 696 735 656 675 q 793 842 736 796 q 908 931 850 888 q 1006 1028 965 975 q 1046 1136 1046 1081 q 959 1331 1046 1263 q 701 1400 872 1400 q 347 1200 486 1400 q 208 694 208 1000 q 353 192 208 394 q 701 -11 497 -11 q 860 13 788 -11 q 975 72 933 38 q 1046 140 1017 106 q 1086 197 1075 174 l 1097 222 l 1113 222 l 1113 36 q 701 -28 915 -28 z "},"D":{"ha":1254,"x_min":42,"x_max":1171,"o":"m 42 0 l 42 14 q 148 89 126 14 q 169 386 169 164 l 169 1003 q 148 1300 169 1225 q 42 1375 126 1375 l 42 1389 l 153 1389 q 356 1403 229 1389 q 540 1417 482 1417 q 819 1358 696 1417 q 1017 1198 942 1299 q 1132 969 1093 1097 q 1171 694 1171 840 q 1132 420 1171 549 q 1017 191 1093 292 q 819 31 942 90 q 540 -28 696 -28 q 356 -14 482 -28 q 153 0 229 0 l 42 0 m 288 1358 l 288 31 q 539 -8 413 -8 q 763 48 664 -8 q 924 201 863 104 q 1019 424 986 299 q 1051 694 1051 550 q 1019 965 1051 839 q 924 1188 986 1090 q 763 1341 863 1285 q 539 1397 664 1397 q 288 1358 413 1397 z "},"E":{"ha":1078,"x_min":42,"x_max":1036,"o":"m 42 1375 l 42 1389 l 1036 1389 l 1036 1201 l 1022 1201 l 1022 1207 q 887 1327 1022 1279 q 519 1375 751 1375 l 289 1375 l 289 778 q 450 842 356 842 q 624 799 521 842 q 786 756 726 756 q 858 778 828 756 q 889 835 889 800 l 903 835 q 853 726 903 771 q 725 682 804 682 q 615 701 668 682 q 528 742 561 719 q 457 783 496 764 q 386 804 418 803 q 289 756 328 806 l 289 14 l 467 14 q 613 20 539 14 q 790 46 688 26 q 958 113 893 65 q 1022 229 1022 160 l 1036 229 l 1036 0 l 42 0 l 42 14 q 148 89 126 14 q 169 386 169 164 l 169 1003 q 148 1300 169 1225 q 42 1375 126 1375 z "},"F":{"ha":1076,"x_min":42,"x_max":1035,"o":"m 42 14 q 148 89 126 14 q 169 386 169 164 l 169 1003 q 148 1300 169 1225 q 42 1375 126 1375 l 42 1389 l 1035 1389 l 1035 1201 l 1021 1201 l 1021 1207 q 885 1327 1021 1279 q 518 1375 750 1375 l 289 1375 l 289 760 q 347 817 303 792 q 450 842 392 842 q 624 799 521 842 q 786 756 726 756 q 858 778 828 756 q 889 835 889 800 l 903 835 q 853 726 903 771 q 725 682 804 682 q 589 713 653 682 q 475 774 525 743 q 386 804 425 804 q 289 682 289 804 l 289 386 q 310 89 289 164 q 417 14 332 14 l 417 0 l 42 0 l 42 14 z "},"G":{"ha":1279,"x_min":83,"x_max":1250,"o":"m 262 178 q 173 282 262 178 q 83 694 83 385 q 262 1210 83 1004 q 701 1417 440 1417 q 1097 1353 908 1417 l 1097 1167 l 1083 1167 q 1073 1192 1081 1176 q 1035 1247 1065 1207 q 965 1319 1004 1288 q 855 1375 925 1350 q 701 1400 785 1400 q 347 1200 486 1400 q 208 694 208 1000 q 353 192 208 394 q 701 -11 497 -11 q 858 22 786 -11 q 969 102 929 56 q 1030 189 1008 149 q 1051 251 1051 229 l 1051 447 q 1043 526 1051 492 q 1016 585 1035 561 q 977 627 997 610 q 925 655 957 644 q 867 671 893 665 q 801 678 842 676 q 735 680 761 679 q 667 679 710 681 q 603 678 624 678 q 510 684 546 678 q 448 712 474 690 q 422 772 422 733 q 491 900 422 853 q 633 947 560 947 q 808 915 721 947 q 978 852 896 883 q 1133 821 1060 821 q 1181 825 1161 821 q 1211 835 1201 829 q 1227 848 1221 842 q 1233 858 1233 854 l 1235 863 q 1207 763 1250 800 q 1094 726 1164 726 q 838 793 1007 726 q 603 860 668 860 q 485 835 533 860 q 438 765 438 811 q 447 732 438 746 q 476 710 456 718 q 517 699 496 703 q 574 693 538 694 q 637 692 610 692 q 709 694 664 693 q 782 694 754 694 q 897 690 847 694 q 1000 672 946 686 q 1090 631 1054 657 q 1148 558 1125 604 q 1171 447 1171 511 l 1171 247 q 971 44 1092 115 q 701 -28 850 -28 q 262 178 440 -28 z "},"H":{"ha":1272,"x_min":42,"x_max":1231,"o":"m 417 0 l 42 0 l 42 14 q 148 89 126 14 q 169 386 169 164 l 169 1003 q 148 1300 169 1225 q 42 1375 126 1375 l 42 1389 l 417 1389 l 417 1375 q 310 1300 332 1375 q 289 1003 289 1225 l 289 760 q 347 817 303 792 q 450 842 392 842 q 643 799 521 842 q 825 756 765 756 q 897 778 867 756 q 928 835 928 800 l 942 835 q 892 726 942 771 q 764 682 843 682 q 618 713 692 682 q 485 774 544 743 q 386 804 425 804 q 289 682 289 804 l 289 386 q 310 89 289 164 q 417 14 332 14 l 417 0 m 856 1375 l 856 1389 l 1231 1389 l 1231 1375 q 1124 1300 1146 1375 q 1103 1003 1103 1225 l 1103 386 q 1124 89 1103 164 q 1231 14 1146 14 l 1231 0 l 856 0 l 856 14 q 962 89 940 14 q 983 386 983 164 l 983 1003 q 962 1300 983 1225 q 856 1375 940 1375 z "},"I":{"ha":458,"x_min":42,"x_max":417,"o":"m 42 1375 l 42 1389 l 417 1389 l 417 1375 q 310 1300 332 1375 q 289 1003 289 1225 l 289 386 q 310 89 289 164 q 417 14 332 14 l 417 0 l 42 0 l 42 14 q 148 89 126 14 q 169 386 169 164 l 169 1003 q 148 1300 169 1225 q 42 1375 126 1375 z "},"J":{"ha":440,"x_min":-69,"x_max":413,"o":"m -69 -286 l -67 -272 q -44 -274 -53 -274 q 110 -172 56 -274 q 165 93 165 -71 l 165 1003 q 144 1300 165 1225 q 38 1375 122 1375 l 38 1389 l 413 1389 l 413 1375 q 306 1300 328 1375 q 285 1003 285 1225 l 285 96 q 197 -175 285 -58 q -21 -292 110 -292 q -69 -286 -36 -292 z "},"K":{"ha":1174,"x_min":42,"x_max":1160,"o":"m 899 1257 q 885 1335 899 1297 q 850 1389 872 1372 l 988 1389 q 1029 1260 1029 1350 q 992 1099 1029 1172 q 896 976 956 1025 q 765 886 836 926 q 622 819 693 846 q 490 772 550 793 q 394 731 431 750 q 357 694 357 713 q 399 651 357 668 q 497 620 440 633 q 625 564 554 607 q 740 454 696 521 q 805 356 760 425 q 874 251 850 286 q 939 163 897 217 q 1011 83 981 110 q 1082 35 1042 56 q 1160 14 1122 14 l 1160 0 l 947 0 q 926 3 936 0 q 906 15 917 6 q 884 34 894 24 q 858 65 874 44 q 829 107 843 86 q 792 163 815 128 q 747 231 768 199 q 692 316 726 264 q 625 417 657 368 q 538 526 583 481 q 459 592 492 571 q 399 628 426 613 q 357 658 371 643 q 343 694 343 672 q 374 744 343 719 q 453 793 404 769 q 562 845 503 817 q 680 912 621 874 q 788 997 739 950 q 868 1110 838 1043 q 899 1257 899 1178 m 42 0 l 42 14 q 148 89 126 14 q 169 386 169 164 l 169 1003 q 148 1300 169 1225 q 42 1375 126 1375 l 42 1389 l 415 1389 l 415 1375 q 309 1300 331 1375 q 288 1003 288 1225 l 288 386 q 309 89 288 164 q 415 14 331 14 l 415 0 l 42 0 z "},"L":{"ha":1076,"x_min":42,"x_max":1035,"o":"m 42 1389 l 417 1389 l 417 1375 q 310 1300 332 1375 q 289 1003 289 1225 l 289 14 l 465 14 q 612 20 538 14 q 789 46 686 26 q 956 113 892 65 q 1021 229 1021 160 l 1035 229 l 1035 0 l 42 0 l 42 14 q 148 89 126 14 q 169 386 169 164 l 169 1003 q 148 1300 169 1225 q 42 1375 126 1375 l 42 1389 z "},"M":{"ha":1501,"x_min":42,"x_max":1460,"o":"m 42 1389 l 265 1389 l 799 269 l 1215 1389 l 1460 1389 l 1460 1375 q 1353 1300 1375 1375 q 1332 1003 1332 1225 l 1332 386 q 1353 89 1332 164 q 1460 14 1375 14 l 1460 0 l 1085 0 l 1085 14 q 1191 89 1169 14 q 1213 386 1213 164 l 1213 1343 q 983 724 1133 1132 q 751 101 832 317 l 739 101 q 426 774 613 374 q 185 1290 239 1174 l 183 694 l 183 518 q 417 14 183 14 l 417 0 l 42 0 l 42 14 q 148 89 126 14 q 169 386 169 164 l 169 1003 q 148 1300 169 1225 q 42 1375 126 1375 l 42 1389 z "},"N":{"ha":1246,"x_min":42,"x_max":1204,"o":"m 42 1389 l 285 1389 l 1063 203 l 1063 808 q 995 1233 1063 1092 q 829 1375 928 1375 l 829 1389 l 1204 1389 l 1204 1375 q 1098 1300 1119 1375 q 1076 1003 1076 1225 l 1076 -28 l 1063 -28 l 183 1311 l 183 581 q 251 156 183 297 q 417 14 318 14 l 417 0 l 42 0 l 42 14 q 148 89 126 14 q 169 386 169 164 l 169 1003 q 148 1300 169 1225 q 42 1375 126 1375 l 42 1389 z "},"O":{"ha":1403,"x_min":83,"x_max":1319,"o":"m 1141 178 q 1052 75 1141 178 q 701 -28 963 -28 q 262 178 440 -28 q 83 694 83 385 q 262 1210 83 1004 q 701 1417 440 1417 q 1141 1210 963 1417 q 1319 694 1319 1004 q 1141 178 1319 385 m 1056 1200 q 986 1300 1056 1200 q 701 1400 917 1400 q 347 1200 486 1400 q 208 694 208 1000 q 353 192 208 394 q 701 -11 497 -11 q 1050 192 906 -11 q 1194 694 1194 394 q 1056 1200 1194 1000 z "},"P":{"ha":1165,"x_min":42,"x_max":1082,"o":"m 42 1375 l 42 1389 l 208 1389 q 411 1403 283 1389 q 621 1417 539 1417 q 960 1296 838 1417 q 1082 983 1082 1175 q 955 674 1082 803 q 607 546 828 546 q 433 567 524 546 q 288 611 342 588 l 288 386 q 309 89 288 164 q 415 14 331 14 l 415 0 l 42 0 l 42 14 q 148 89 126 14 q 169 386 169 164 l 169 1003 q 148 1300 169 1225 q 42 1375 126 1375 m 288 625 q 582 574 413 574 q 757 613 681 574 q 876 716 833 653 q 941 847 919 779 q 963 982 963 915 q 849 1284 963 1171 q 542 1397 735 1397 q 288 1353 411 1397 l 288 625 z "},"Q":{"ha":1408,"x_min":83,"x_max":1592,"o":"m 83 693 q 262 1209 83 1003 q 701 1415 440 1415 q 1141 1209 963 1415 q 1319 693 1319 1003 q 1290 465 1319 569 q 1216 289 1260 360 q 1103 153 1172 218 q 976 51 1033 89 q 840 -28 918 14 q 773 -61 822 -37 q 694 -103 724 -85 q 640 -144 664 -122 q 732 -118 689 -118 q 872 -143 794 -118 q 1016 -197 949 -168 q 1191 -251 1083 -226 q 1414 -276 1299 -276 q 1518 -243 1472 -276 q 1579 -158 1564 -210 q 1592 -187 1592 -167 q 1507 -334 1592 -275 q 1317 -393 1422 -393 q 1185 -367 1251 -393 q 1065 -302 1119 -340 q 956 -226 1010 -264 q 841 -161 903 -187 q 719 -135 779 -135 q 617 -175 664 -135 l 607 -164 q 713 -69 642 -112 q 1089 260 981 94 q 1197 690 1197 425 q 1058 1196 1197 996 q 704 1396 919 1396 q 350 1196 489 1396 q 211 690 211 996 q 231 475 211 579 q 292 274 250 371 q 411 119 333 178 q 592 60 489 60 q 748 127 675 60 q 821 303 821 194 q 784 487 821 399 q 694 644 747 575 q 589 781 642 714 q 499 926 536 847 q 463 1088 463 1006 q 499 1223 463 1165 q 567 1281 536 1281 l 571 1272 q 529 1182 529 1256 q 567 1033 529 1111 q 660 883 606 954 q 768 738 714 811 q 860 576 822 664 q 899 404 899 489 q 809 156 899 265 q 589 46 719 46 q 314 135 431 46 q 140 368 197 224 q 83 693 83 513 z "},"R":{"ha":1211,"x_min":42,"x_max":1169,"o":"m 42 0 l 42 14 q 148 89 126 14 q 169 386 169 164 l 169 1003 q 148 1300 169 1225 q 42 1375 126 1375 l 42 1389 l 208 1389 q 411 1403 283 1389 q 621 1417 539 1417 q 960 1308 838 1417 q 1082 1026 1082 1200 q 971 771 1082 878 q 685 664 860 664 q 519 708 611 664 q 407 753 428 753 q 367 717 367 753 q 415 658 367 686 q 527 606 464 629 q 663 537 590 583 q 772 432 735 490 q 819 356 786 410 q 872 273 853 303 q 924 197 892 243 q 982 123 956 150 q 1040 68 1008 96 q 1104 27 1072 40 q 1169 14 1136 14 l 1169 0 l 957 0 q 936 3 946 0 q 915 15 926 6 q 894 34 904 24 q 868 65 883 44 q 839 107 853 86 q 801 163 825 128 q 757 231 778 199 q 701 316 736 264 q 635 417 667 368 q 535 535 590 483 q 442 610 479 588 q 379 660 406 632 q 353 719 353 688 q 401 767 353 767 q 521 727 436 767 q 676 688 606 688 q 882 790 801 688 q 963 1025 963 893 q 849 1297 963 1197 q 542 1397 736 1397 q 288 1353 411 1397 l 288 386 q 309 89 288 164 q 415 14 331 14 l 415 0 l 42 0 z "},"S":{"ha":1142,"x_min":83,"x_max":1058,"o":"m 83 1056 q 217 1313 83 1208 q 581 1417 350 1417 q 976 1353 788 1417 l 976 1167 l 963 1167 q 952 1192 960 1176 q 914 1247 944 1207 q 844 1319 883 1288 q 734 1375 804 1350 q 581 1400 664 1400 q 289 1306 397 1400 q 181 1089 181 1213 q 229 955 181 1013 q 355 862 278 897 q 526 795 432 826 q 713 728 619 764 q 884 649 807 693 q 1010 530 961 604 q 1058 357 1058 456 q 913 88 1058 204 q 538 -28 768 -28 q 89 142 317 -28 l 89 328 l 103 328 q 124 292 110 314 q 188 213 139 269 q 292 112 238 156 q 435 33 347 68 q 615 -3 522 -3 q 871 90 764 -3 q 978 300 978 182 q 928 449 978 385 q 800 553 879 513 q 626 629 721 594 q 435 699 531 664 q 261 778 340 735 q 133 893 182 822 q 83 1056 83 964 z "},"T":{"ha":1054,"x_min":42,"x_max":1013,"o":"m 42 1389 l 1013 1389 l 1013 1201 l 999 1201 q 999 1203 999 1203 q 1000 1207 1000 1204 q 882 1326 1000 1278 q 586 1375 764 1375 l 586 386 q 586 368 586 381 q 588 199 586 249 q 601 97 590 150 q 635 29 611 44 q 703 14 660 14 l 703 0 l 340 0 l 340 14 q 447 89 425 14 q 468 386 468 164 l 468 1375 q 172 1326 290 1375 q 54 1207 54 1278 q 56 1201 54 1204 l 42 1201 l 42 1389 z "},"U":{"ha":1272,"x_min":42,"x_max":1231,"o":"m 42 1375 l 42 1389 l 417 1389 l 417 1375 q 310 1300 332 1375 q 289 1003 289 1225 l 289 386 q 386 89 289 192 q 639 -14 483 -14 q 888 89 793 -14 q 983 386 983 192 l 983 1003 q 962 1300 983 1225 q 856 1375 940 1375 l 856 1389 l 1231 1389 l 1231 1375 q 1124 1300 1146 1375 q 1103 1003 1103 1225 l 1103 386 q 972 79 1103 186 q 639 -28 842 -28 q 403 16 507 -28 q 235 156 300 60 q 169 386 169 251 l 169 1003 q 148 1300 169 1225 q 42 1375 126 1375 z "},"V":{"ha":1283,"x_min":0,"x_max":1283,"o":"m 0 1375 l 0 1389 l 456 1389 l 456 1375 q 344 1356 385 1375 q 294 1301 304 1338 q 291 1222 285 1264 q 319 1122 297 1181 l 694 133 q 858 579 729 231 q 1047 1118 986 928 q 1065 1206 1063 1164 q 1056 1288 1068 1247 q 1002 1351 1044 1328 q 890 1375 960 1375 l 890 1389 l 1283 1389 l 1283 1375 q 1181 1322 1222 1375 q 1093 1146 1139 1268 l 649 -28 l 635 -28 l 190 1146 q 100 1322 140 1269 q 0 1375 60 1375 z "},"W":{"ha":1861,"x_min":0,"x_max":1861,"o":"m 0 1375 l 0 1389 l 456 1389 l 456 1375 q 344 1356 385 1375 q 294 1301 304 1338 q 291 1222 285 1264 q 319 1122 297 1181 l 694 133 q 819 476 736 253 q 919 747 901 699 l 768 1146 q 678 1322 718 1269 q 578 1375 638 1375 l 578 1389 l 1283 1389 l 1283 1375 q 1181 1322 1222 1375 q 1093 1146 1139 1268 l 990 875 l 1272 133 q 1435 579 1307 231 q 1625 1118 1564 928 q 1643 1206 1640 1164 q 1634 1288 1646 1247 q 1580 1351 1622 1328 q 1468 1375 1538 1375 l 1468 1389 l 1861 1389 l 1861 1375 q 1758 1322 1800 1375 q 1671 1146 1717 1268 l 1226 -28 l 1213 -28 l 931 717 l 649 -28 l 635 -28 l 190 1146 q 100 1322 140 1269 q 0 1375 60 1375 m 958 1374 q 897 1122 801 1374 l 978 911 q 1014 1019 990 949 q 1047 1118 1038 1090 q 958 1374 1132 1374 z "},"X":{"ha":1193,"x_min":42,"x_max":1151,"o":"m 42 0 l 42 13 q 158 87 96 13 q 324 336 219 161 q 435 522 360 396 q 532 686 510 649 l 528 694 q 329 1038 499 749 q 159 1299 221 1222 q 43 1375 97 1375 l 43 1389 l 453 1389 l 453 1375 l 422 1375 q 347 1301 347 1375 q 367 1233 347 1279 q 423 1119 386 1186 q 494 991 460 1051 q 578 847 529 931 q 653 718 628 763 q 863 1106 804 979 q 924 1299 921 1232 q 901 1356 925 1336 q 846 1376 878 1376 l 808 1376 l 808 1389 l 1151 1389 l 1151 1376 q 1035 1302 1097 1376 q 869 1053 974 1228 q 758 867 833 993 q 661 703 683 740 l 665 694 q 864 351 694 640 q 1034 90 972 167 q 1150 14 1096 14 l 1150 0 l 740 0 l 740 14 l 771 14 q 846 88 846 14 q 826 156 846 110 q 770 270 807 203 q 698 399 733 338 q 615 543 663 460 q 540 672 567 626 q 330 283 388 408 q 269 90 272 158 q 292 33 268 53 q 347 13 315 13 l 385 13 l 385 0 l 42 0 z "},"Y":{"ha":1136,"x_min":0,"x_max":1136,"o":"m 0 1375 l 0 1389 l 386 1389 l 386 1375 l 356 1375 q 281 1301 281 1375 q 343 1133 281 1260 q 503 833 406 1007 q 624 617 601 660 q 692 745 632 633 q 783 919 751 857 q 862 1074 815 981 q 931 1226 908 1168 q 953 1311 953 1285 q 875 1375 953 1375 l 839 1375 l 839 1389 l 1136 1389 l 1136 1375 q 1096 1369 1114 1375 q 1059 1347 1078 1364 q 1028 1316 1040 1331 q 994 1265 1015 1301 q 961 1205 974 1229 q 919 1124 949 1181 q 871 1029 890 1067 q 740 791 828 949 q 628 588 651 633 l 628 386 q 649 89 628 164 q 756 14 671 14 l 756 0 l 381 0 l 381 14 q 487 89 465 14 q 508 386 508 164 l 508 588 q 397 791 485 633 q 265 1029 308 949 q 217 1124 246 1067 q 175 1205 188 1181 q 142 1265 163 1229 q 108 1316 121 1301 q 77 1347 96 1331 q 40 1369 58 1364 q 0 1375 22 1375 z "},"Z":{"ha":1096,"x_min":42,"x_max":1054,"o":"m 1017 0 l 42 0 l 911 1375 l 515 1375 q 221 1326 338 1375 q 104 1207 104 1278 l 104 1201 l 90 1201 l 90 1389 l 1054 1389 l 185 14 l 383 14 q 500 17 439 14 q 657 33 561 19 q 824 67 753 46 q 949 130 896 88 q 1003 229 1003 172 l 1017 229 l 1017 0 z "},"[":{"ha":629,"x_min":83,"x_max":546,"o":"m 546 -235 l 83 -235 l 83 1624 l 546 1624 l 546 1596 l 196 1596 l 196 -207 l 546 -207 l 546 -235 z "},"\\":{"ha":631,"x_min":83,"x_max":547,"o":"m 83 1417 l 97 1417 l 547 -28 l 533 -28 l 83 1417 z "},"]":{"ha":629,"x_min":83,"x_max":546,"o":"m 546 -235 l 83 -235 l 83 -207 l 433 -207 l 433 1596 l 83 1596 l 83 1624 l 546 1624 l 546 -235 z "},"`":{"ha":435,"x_min":83,"x_max":351,"o":"m 246 1500 q 136 1527 189 1500 q 83 1594 83 1554 q 94 1621 83 1610 q 122 1632 104 1632 q 162 1613 143 1632 q 194 1573 181 1594 q 237 1533 207 1551 q 307 1514 267 1514 l 351 1514 l 351 1500 l 246 1500 z "},"a":{"ha":1036,"x_min":83,"x_max":1008,"o":"m 83 281 q 122 453 83 381 q 223 565 161 525 q 360 633 285 606 q 510 677 435 660 q 647 713 585 694 q 747 762 708 731 q 786 839 786 793 q 713 957 786 917 q 543 997 639 997 q 358 957 433 997 q 283 836 283 917 q 295 793 283 811 q 319 772 307 775 q 339 772 332 768 q 323 717 349 742 q 261 692 297 692 q 189 724 217 692 q 161 803 161 757 q 267 957 161 903 q 543 1011 374 1011 q 789 962 674 1011 q 904 836 904 913 q 874 770 904 797 q 795 730 844 743 q 683 702 746 717 q 555 674 621 688 q 426 631 489 661 q 315 558 364 600 q 235 443 265 517 q 206 272 206 369 q 269 90 206 163 q 433 18 332 18 q 551 49 493 18 q 660 144 608 81 q 742 320 711 208 q 774 576 774 432 q 750 644 774 638 q 761 658 750 651 q 788 664 772 664 q 848 647 824 664 q 883 596 872 629 q 898 529 894 563 q 901 447 901 496 q 902 310 901 389 q 903 156 903 232 q 936 46 903 78 q 1008 14 969 14 l 1008 0 l 910 0 q 815 48 853 0 q 778 172 778 96 l 778 410 q 730 240 757 313 q 659 103 703 167 q 548 6 615 39 q 393 -28 481 -28 q 171 59 258 -28 q 83 281 83 146 z "},"b":{"ha":1117,"x_min":42,"x_max":1033,"o":"m 476 0 l 42 0 l 42 14 q 148 89 126 14 q 169 386 169 164 l 169 1003 q 148 1300 169 1225 q 42 1375 126 1375 l 42 1389 l 289 1389 l 289 821 q 626 1011 415 1011 q 919 894 804 1011 q 1033 581 1033 776 q 878 155 1033 310 q 476 0 724 0 m 289 607 l 289 51 q 460 14 368 14 q 778 171 642 14 q 914 551 914 328 q 883 749 914 664 q 801 883 853 835 q 691 954 750 931 q 567 978 632 978 q 368 888 447 978 q 289 607 289 799 z "},"c":{"ha":1018,"x_min":83,"x_max":990,"o":"m 560 -28 q 213 121 342 -28 q 83 492 83 269 q 213 863 83 714 q 560 1011 342 1011 q 760 987 664 1011 q 900 939 857 963 l 944 914 l 944 750 l 939 750 q 776 928 883 863 q 557 994 669 994 q 383 945 457 994 q 272 817 310 896 q 218 658 235 739 q 203 496 201 576 q 315 157 206 294 q 610 19 425 19 q 737 40 671 19 q 871 118 803 61 q 971 258 939 175 l 990 250 q 823 47 935 122 q 560 -28 711 -28 z "},"d":{"ha":1158,"x_min":83,"x_max":1131,"o":"m 560 -28 q 213 121 342 -28 q 83 492 83 269 q 213 863 83 714 q 560 1011 342 1011 q 883 928 753 1011 l 883 1003 q 862 1300 883 1225 q 756 1375 840 1375 l 756 1389 l 1003 1389 l 1003 386 q 1024 89 1003 164 q 1131 14 1046 14 l 1131 0 l 883 0 l 883 110 q 745 10 832 49 q 560 -28 658 -28 m 560 994 q 299 858 397 994 q 201 492 201 721 q 299 126 201 263 q 560 -11 397 -11 q 781 66 678 -11 q 883 249 883 143 l 883 818 q 560 994 768 994 z "},"e":{"ha":1074,"x_min":83,"x_max":990,"o":"m 560 -28 q 213 121 342 -28 q 83 492 83 269 q 213 863 83 714 q 560 1011 342 1011 q 751 982 667 1011 q 885 905 836 953 q 960 803 935 857 q 985 694 985 750 q 918 510 983 576 q 733 443 853 443 q 560 474 638 443 q 421 536 482 506 q 306 567 360 567 q 263 554 283 567 q 238 532 242 542 l 232 533 q 271 612 232 579 q 378 644 310 644 q 481 615 426 644 q 574 552 535 586 q 660 489 613 518 q 743 460 707 460 q 863 556 824 460 q 863 783 903 661 q 679 975 814 926 q 557 994 624 994 q 383 945 457 994 q 272 817 310 896 q 218 658 235 739 q 203 496 201 576 q 315 157 206 294 q 610 19 425 19 q 737 40 671 19 q 871 118 803 61 q 971 258 939 175 l 990 250 q 823 47 935 122 q 560 -28 711 -28 z "},"f":{"ha":751,"x_min":42,"x_max":751,"o":"m 42 0 l 42 14 q 148 89 126 14 q 169 386 169 164 l 169 1096 q 278 1321 169 1224 q 543 1418 388 1418 q 751 1386 647 1418 l 751 1231 l 738 1231 q 664 1350 725 1306 q 489 1394 603 1394 q 416 1383 449 1394 q 363 1353 383 1371 q 327 1308 342 1336 q 306 1257 313 1281 q 294 1201 299 1233 q 290 1149 290 1168 q 289 1103 289 1131 l 289 904 q 336 967 303 942 q 414 993 369 993 q 507 978 449 993 q 617 963 565 963 q 667 990 660 963 l 671 990 q 651 916 681 946 q 576 889 622 886 q 476 911 543 890 q 371 932 410 932 q 289 844 289 932 l 289 386 q 310 89 289 164 q 417 14 332 14 l 417 0 l 42 0 z "},"g":{"ha":1013,"x_min":28,"x_max":985,"o":"m 467 -604 q 149 -524 269 -604 q 28 -293 28 -443 q 93 -147 28 -204 q 243 -89 158 -89 q 397 -119 307 -89 q 551 -150 486 -150 q 615 -133 585 -150 q 635 -81 644 -115 l 640 -79 q 660 -137 660 -104 q 647 -198 661 -169 q 599 -246 632 -226 q 524 -265 567 -265 q 391 -235 475 -265 q 240 -204 307 -204 q 150 -237 190 -204 q 110 -319 110 -271 q 210 -515 110 -440 q 469 -590 311 -590 q 758 -472 635 -590 q 881 -181 881 -354 q 795 -1 881 -71 q 571 69 710 69 q 444 57 513 69 q 322 44 375 44 q 241 65 276 44 q 206 125 206 86 q 238 191 206 165 q 323 231 271 217 q 438 258 375 244 q 563 295 500 271 q 677 356 625 319 q 762 464 729 393 q 794 632 794 535 q 713 888 794 781 q 494 994 631 994 q 276 885 358 994 q 193 628 193 776 q 276 401 193 489 q 481 313 360 313 l 481 300 q 411 294 449 294 q 168 392 263 294 q 74 628 74 490 q 189 897 74 783 q 494 1011 304 1011 l 914 1011 l 914 967 l 614 997 q 833 859 753 963 q 914 628 914 756 q 884 468 914 538 q 806 360 854 399 q 694 292 757 321 q 567 252 632 264 q 440 228 503 240 q 329 208 378 217 q 251 178 281 199 q 221 128 221 158 q 252 77 221 96 q 322 58 283 58 q 500 92 389 58 q 676 125 611 125 q 893 40 801 125 q 985 -169 985 -46 q 844 -480 985 -356 q 467 -604 703 -604 z "},"h":{"ha":1093,"x_min":42,"x_max":1065,"o":"m 42 14 q 148 89 126 14 q 169 386 169 164 l 169 1003 q 148 1300 169 1225 q 42 1375 126 1375 l 42 1389 l 289 1389 l 289 988 q 424 999 313 988 q 567 1011 535 1011 q 938 701 938 1011 l 938 386 q 959 89 938 164 q 1065 14 981 14 l 1065 0 l 690 0 l 690 14 q 797 89 775 14 q 818 386 818 164 l 817 672 q 792 825 817 761 q 735 920 767 889 q 653 969 703 951 q 574 989 604 986 q 504 992 544 992 q 289 951 403 992 l 289 386 q 310 89 289 164 q 417 14 332 14 l 417 0 l 42 0 l 42 14 z "},"i":{"ha":444,"x_min":42,"x_max":417,"o":"m 417 0 l 42 0 l 42 14 q 148 89 126 14 q 169 386 169 164 l 169 597 q 148 894 169 819 q 42 969 126 969 l 42 983 l 289 983 l 289 386 q 310 89 289 164 q 417 14 332 14 l 417 0 m 156 1099 q 143 1113 156 1099 q 129 1165 129 1126 q 156 1231 129 1204 q 222 1258 183 1258 q 288 1231 261 1258 q 315 1165 315 1204 q 288 1099 315 1126 q 222 1072 261 1072 q 156 1099 183 1072 z "},"j":{"ha":399,"x_min":-69,"x_max":315,"o":"m -69 -575 l -60 -561 q 21 -586 -28 -586 q 163 -324 163 -586 l 163 597 q 141 894 163 819 q 35 969 119 969 l 35 983 l 282 983 l 282 -303 q 216 -512 282 -419 q 36 -606 150 -606 q -69 -575 -28 -606 m 156 1231 q 170 1245 156 1231 q 222 1258 183 1258 q 288 1231 261 1258 q 315 1165 315 1204 q 288 1099 315 1126 q 222 1072 261 1072 q 156 1099 183 1072 q 129 1165 129 1126 q 156 1231 129 1204 z "},"k":{"ha":972,"x_min":42,"x_max":931,"o":"m 417 0 l 42 0 l 42 14 q 148 89 126 14 q 169 386 169 164 l 169 1003 q 148 1300 169 1225 q 42 1375 126 1375 l 42 1389 l 289 1389 l 289 386 q 310 89 289 164 q 417 14 332 14 l 417 0 m 729 906 q 664 969 729 969 l 664 983 l 831 983 q 854 947 854 983 q 801 817 854 871 q 673 738 749 764 q 521 694 597 711 q 392 657 444 676 q 339 611 339 638 q 379 566 339 585 q 475 532 419 547 q 601 469 531 517 q 717 347 671 422 q 774 206 749 294 q 811 86 799 117 q 931 14 842 14 l 931 0 l 771 0 q 733 11 750 0 q 706 45 717 22 q 688 86 694 68 q 674 133 682 104 q 669 149 671 144 q 604 344 626 304 q 514 460 567 414 q 422 524 461 507 q 353 562 382 540 q 325 611 325 583 q 367 669 325 646 q 467 710 408 693 q 586 747 526 726 q 688 807 646 767 q 729 906 729 847 z "},"l":{"ha":458,"x_min":42,"x_max":417,"o":"m 42 0 l 42 14 q 148 89 126 14 q 169 386 169 164 l 169 1003 q 148 1300 169 1225 q 42 1375 126 1375 l 42 1389 l 289 1389 l 289 386 q 310 89 289 164 q 417 14 332 14 l 417 0 l 42 0 z "},"m":{"ha":1740,"x_min":42,"x_max":1713,"o":"m 417 0 l 42 0 l 42 14 q 148 89 126 14 q 169 386 169 164 l 169 597 q 148 894 169 819 q 42 969 126 969 l 42 983 l 200 983 q 397 997 261 983 q 567 1011 532 1011 q 817 954 728 1011 q 886 969 831 954 q 1031 997 942 983 q 1214 1011 1119 1011 q 1585 701 1585 1011 l 1585 386 q 1606 89 1585 164 q 1713 14 1628 14 l 1713 0 l 1338 0 l 1338 14 q 1444 89 1422 14 q 1465 386 1465 164 l 1464 672 q 1439 825 1464 761 q 1382 920 1414 889 q 1301 969 1350 951 q 1221 990 1251 988 q 1151 993 1190 993 q 861 919 986 993 q 938 701 938 843 l 938 386 q 959 89 938 164 q 1065 14 981 14 l 1065 0 l 690 0 l 690 14 q 797 89 775 14 q 818 386 818 164 l 817 672 q 792 825 817 761 q 735 920 767 889 q 653 969 703 951 q 574 989 604 986 q 504 992 544 992 q 289 951 403 992 l 289 386 q 310 89 289 164 q 417 14 332 14 l 417 0 z "},"n":{"ha":1093,"x_min":42,"x_max":1065,"o":"m 42 14 q 148 89 126 14 q 169 386 169 164 l 169 597 q 148 894 169 819 q 42 969 126 969 l 42 983 l 200 983 q 397 997 261 983 q 567 1011 532 1011 q 938 701 938 1011 l 938 386 q 959 89 938 164 q 1065 14 981 14 l 1065 0 l 690 0 l 690 14 q 797 89 775 14 q 818 386 818 164 l 817 672 q 792 825 817 761 q 735 920 767 889 q 653 969 703 951 q 574 989 604 986 q 504 992 544 992 q 289 951 403 992 l 289 386 q 310 89 289 164 q 417 14 332 14 l 417 0 l 42 0 l 42 14 z "},"o":{"ha":1122,"x_min":83,"x_max":1039,"o":"m 908 122 q 843 47 908 122 q 560 -28 778 -28 q 213 121 342 -28 q 83 492 83 269 q 213 863 83 714 q 560 1011 342 1011 q 908 862 778 1011 q 1039 492 1039 713 q 908 122 1039 271 m 299 858 q 250 789 299 858 q 201 492 201 721 q 299 126 201 263 q 560 -11 397 -11 q 822 126 722 -11 q 921 492 921 264 q 822 857 921 719 q 560 994 722 994 q 299 858 397 994 z "},"p":{"ha":1103,"x_min":28,"x_max":1019,"o":"m 28 969 l 28 983 l 275 983 l 275 821 q 613 1011 401 1011 q 905 894 790 1011 q 1019 581 1019 776 q 865 155 1019 310 q 463 0 710 0 q 275 22 368 0 l 275 -190 q 297 -487 275 -412 q 403 -562 318 -562 l 403 -576 l 28 -576 l 28 -562 q 134 -487 113 -562 q 156 -190 156 -412 l 156 597 q 134 894 156 819 q 28 969 113 969 m 275 607 l 275 54 q 446 14 351 14 q 764 167 629 14 q 899 551 899 319 q 868 749 899 664 q 787 883 838 835 q 677 954 736 931 q 553 978 618 978 q 354 888 433 978 q 275 607 275 799 z "},"q":{"ha":1156,"x_min":83,"x_max":1128,"o":"m 560 -28 q 213 121 342 -28 q 83 492 83 269 q 213 863 83 714 q 560 1011 342 1011 q 740 997 628 1011 q 951 983 853 983 l 1128 983 l 1128 969 q 1022 894 1043 969 q 1000 597 1000 819 l 1000 -190 q 1022 -487 1000 -412 q 1128 -562 1043 -562 l 1128 -576 l 753 -576 l 753 -562 q 859 -487 838 -562 q 881 -190 881 -412 l 881 104 q 560 -28 744 -28 m 299 858 q 250 789 299 858 q 201 492 201 721 q 299 126 201 263 q 560 -11 397 -11 q 781 66 678 -11 q 883 249 883 143 q 882 562 883 299 q 881 886 881 825 q 560 994 767 994 q 299 858 397 994 z "},"r":{"ha":939,"x_min":42,"x_max":911,"o":"m 417 0 l 42 0 l 42 14 q 148 89 126 14 q 169 386 169 164 l 169 597 q 148 894 169 819 q 42 969 126 969 l 42 983 l 203 983 q 451 997 283 983 q 696 1011 619 1011 q 851 966 790 1011 q 911 842 911 921 q 880 745 911 783 q 792 707 849 707 q 738 725 761 707 q 715 771 715 743 q 767 803 744 772 q 790 875 790 833 q 752 958 790 925 q 642 992 714 992 q 455 980 567 992 q 289 951 343 968 l 289 386 q 310 89 289 164 q 417 14 332 14 l 417 0 z "},"s":{"ha":931,"x_min":83,"x_max":847,"o":"m 83 57 l 83 226 l 97 226 q 120 160 97 200 q 183 81 143 121 q 290 13 222 40 q 433 -14 357 -15 q 645 56 556 -11 q 735 238 735 124 q 700 338 735 297 q 610 403 665 379 q 487 446 554 426 q 351 489 419 465 q 228 544 283 513 q 138 633 172 576 q 103 769 103 690 q 192 942 103 872 q 444 1011 282 1011 q 635 987 549 1011 q 756 939 721 963 l 789 914 l 789 750 l 783 750 q 657 933 743 868 q 458 997 571 997 q 258 938 332 997 q 183 796 183 878 q 220 696 183 738 q 315 630 257 654 q 444 585 374 606 q 586 539 515 564 q 715 481 657 514 q 810 391 774 449 q 847 256 847 333 q 729 42 847 113 q 433 -28 611 -28 q 83 57 215 -28 z "},"t":{"ha":442,"x_min":28,"x_max":414,"o":"m 28 983 q 113 998 75 983 q 176 1033 151 1013 q 217 1086 200 1053 q 243 1147 235 1119 q 256 1212 251 1174 q 260 1270 260 1250 q 261 1319 261 1290 l 275 1319 l 275 983 l 381 983 l 381 969 l 275 969 l 275 303 q 279 60 275 88 q 319 11 288 11 q 359 28 339 11 q 389 61 379 44 l 400 76 l 414 69 q 261 -28 356 -28 q 156 128 156 -28 l 156 969 l 28 969 l 28 983 z "},"u":{"ha":1079,"x_min":28,"x_max":1051,"o":"m 28 969 l 28 983 l 275 983 l 276 311 q 301 158 276 222 q 358 63 326 94 q 440 15 390 32 q 519 -6 489 -3 q 589 -8 549 -8 q 804 32 690 -8 l 804 597 q 783 894 804 819 q 676 969 761 969 l 676 983 l 924 983 l 924 386 q 945 89 924 164 q 1051 14 967 14 l 1051 0 l 893 0 q 697 -14 832 0 q 526 -28 561 -28 q 156 282 156 -28 l 156 597 q 134 894 156 819 q 28 969 113 969 z "},"v":{"ha":1017,"x_min":0,"x_max":1017,"o":"m 0 969 l 0 983 l 171 983 q 288 872 253 983 q 351 665 314 789 q 422 432 388 540 q 493 204 456 324 q 594 83 529 92 q 776 668 729 506 q 797 764 790 718 q 799 860 803 810 q 767 940 796 910 q 682 969 738 969 l 651 969 l 651 983 l 1017 983 l 1017 969 l 993 969 q 803 699 888 969 q 715 414 799 686 q 576 -28 631 142 q 569 -28 574 -28 q 549 -27 564 -29 q 520 -18 535 -25 q 485 5 506 -11 q 445 45 464 21 q 406 110 426 69 q 368 204 385 151 q 266 531 325 338 q 193 771 207 725 q 176 826 182 808 q 154 876 169 843 q 124 926 139 910 q 86 956 110 942 q 33 969 63 969 l 0 969 z "},"w":{"ha":1560,"x_min":0,"x_max":1560,"o":"m 0 969 l 0 983 l 171 983 q 288 872 253 983 q 351 665 314 789 q 422 432 388 540 q 493 204 456 324 q 594 83 529 92 q 772 653 719 469 q 756 710 767 668 q 735 780 744 751 q 710 847 726 808 q 677 910 694 886 q 633 952 660 935 q 576 969 607 969 l 543 969 l 543 983 l 714 983 q 831 872 796 983 q 894 665 857 789 q 965 432 931 540 q 1036 204 999 324 q 1138 83 1072 92 q 1319 668 1272 506 q 1340 764 1333 718 q 1342 860 1346 810 q 1310 940 1339 910 q 1225 969 1281 969 l 1194 969 l 1194 983 l 1560 983 l 1560 969 l 1536 969 q 1346 699 1431 969 q 1119 -28 1226 307 q 1112 -28 1117 -28 q 1092 -27 1107 -29 q 1063 -18 1078 -25 q 1028 5 1049 -11 q 988 45 1007 21 q 949 110 969 69 q 911 204 928 151 q 779 626 813 515 q 576 -28 638 167 q 569 -28 574 -28 q 549 -27 564 -29 q 520 -18 535 -25 q 485 5 506 -11 q 445 45 464 21 q 406 110 426 69 q 368 204 385 151 q 266 531 325 338 q 193 771 207 725 q 176 826 182 808 q 154 876 169 843 q 124 926 139 910 q 86 956 110 942 q 33 969 63 969 l 0 969 z "},"x":{"ha":868,"x_min":0,"x_max":868,"o":"m 0 14 l 18 14 q 279 250 143 14 l 393 444 l 125 882 q 117 897 125 883 q 106 915 108 911 q 94 930 103 918 q 81 947 86 942 q 66 958 75 951 q 47 967 57 964 q 26 969 38 969 l 0 969 l 0 983 l 146 983 q 235 933 203 983 l 467 553 l 574 736 q 622 899 626 828 q 558 969 618 969 l 525 969 l 525 983 l 868 983 l 868 969 l 850 969 q 589 733 725 969 l 476 539 l 743 101 q 751 86 743 100 q 763 69 760 72 q 774 53 765 65 q 788 37 782 42 q 802 26 793 32 q 821 17 811 19 q 842 14 831 14 l 868 14 l 868 0 l 719 0 q 633 50 665 0 l 401 431 l 294 247 q 246 85 242 156 q 310 14 250 14 l 343 14 l 343 0 l 0 0 l 0 14 z "},"y":{"ha":1017,"x_min":0,"x_max":1017,"o":"m 0 969 l 0 983 l 171 983 q 288 872 253 983 q 351 665 314 789 q 422 432 388 540 q 493 204 456 324 q 594 83 529 92 q 776 668 729 506 q 797 764 790 718 q 799 860 803 810 q 767 940 796 910 q 682 969 738 969 l 651 969 l 651 983 l 1017 983 l 1017 969 l 993 969 q 803 699 888 969 q 715 414 799 686 q 576 -28 631 142 q 257 -576 383 -576 l 69 -576 l 69 -562 q 254 -476 150 -562 q 442 -265 358 -389 q 560 -28 525 -142 q 523 -19 543 -28 q 476 13 503 -10 q 419 84 449 35 q 368 204 390 133 q 266 531 325 338 q 193 771 207 725 q 176 826 182 808 q 154 876 169 843 q 124 926 139 910 q 86 956 110 942 q 33 969 63 969 l 0 969 z "},"z":{"ha":860,"x_min":42,"x_max":818,"o":"m 42 0 l 664 969 l 471 969 q 208 917 306 969 q 90 769 110 864 l 76 769 l 76 983 l 818 983 l 196 14 l 411 14 q 674 67 576 14 q 792 214 772 119 l 806 214 l 806 0 l 42 0 z "},"{":{"ha":472,"x_min":83,"x_max":389,"o":"m 101 665 q 92 672 101 665 q 83 694 83 678 q 101 724 83 711 q 146 753 119 736 q 199 798 172 769 q 243 889 225 826 q 261 1042 261 951 q 234 1183 261 1082 q 207 1389 207 1283 q 258 1552 207 1482 q 389 1622 310 1622 l 389 1608 q 319 1560 343 1608 q 296 1442 296 1513 q 329 1242 296 1382 q 363 1042 363 1101 q 335 898 363 960 q 269 806 308 836 q 192 755 231 775 q 126 721 153 735 q 99 694 99 707 q 126 668 99 682 q 192 634 153 654 q 269 583 231 614 q 335 491 308 553 q 363 347 363 429 q 329 147 363 288 q 296 -53 296 7 q 319 -172 296 -124 q 389 -219 343 -219 l 389 -233 q 258 -163 310 -233 q 207 0 207 -93 q 234 206 207 106 q 261 347 261 307 q 243 500 261 438 q 199 591 225 563 q 146 636 172 619 q 101 665 119 653 z "},"|":{"ha":182,"x_min":83,"x_max":99,"o":"m 83 -28 l 83 1417 l 99 1417 l 99 -28 l 83 -28 z "},"}":{"ha":472,"x_min":83,"x_max":389,"o":"m 176 1442 q 153 1560 176 1513 q 83 1608 129 1608 l 83 1622 q 214 1552 163 1622 q 265 1389 265 1482 q 238 1183 265 1283 q 211 1042 211 1082 q 229 889 211 951 q 274 798 247 826 q 326 753 300 769 q 371 724 353 736 q 389 694 389 711 q 371 665 389 678 q 326 636 353 653 q 274 591 300 619 q 229 500 247 563 q 211 347 211 438 q 238 206 211 307 q 265 0 265 106 q 214 -163 265 -93 q 83 -233 163 -233 l 83 -219 q 153 -172 129 -219 q 176 -53 176 -124 q 143 147 176 7 q 110 347 110 288 q 137 491 110 429 q 203 583 164 553 q 281 634 242 614 q 347 668 319 654 q 374 694 374 682 q 347 721 374 707 q 281 755 319 735 q 203 806 242 775 q 137 898 164 836 q 110 1042 110 960 q 143 1242 110 1101 q 176 1442 176 1382 z "},"~":{"ha":938,"x_min":83,"x_max":854,"o":"m 94 642 l 83 646 q 159 738 96 689 q 308 786 222 786 q 506 744 397 786 q 682 703 614 703 q 843 783 794 703 l 854 779 q 778 671 840 728 q 617 614 715 614 q 468 639 538 614 q 340 689 399 664 q 232 714 282 714 q 94 642 139 714 z "},"":{"ha":353,"x_min":83,"x_max":269,"o":"m 176 -28 q 138 -10 153 -28 q 117 40 124 7 q 108 115 110 74 q 108 215 106 157 q 116 328 111 272 q 128 454 121 383 q 133 511 132 492 q 168 1103 168 878 l 185 1103 q 219 511 185 854 q 246 104 250 194 q 176 -28 238 -28 m 242 1258 q 229 1244 242 1258 q 176 1231 215 1231 q 110 1258 138 1231 q 83 1324 83 1285 q 110 1390 83 1363 q 176 1417 138 1417 q 242 1390 215 1417 q 269 1324 269 1363 q 242 1258 269 1285 z "},"":{"ha":1074,"x_min":83,"x_max":990,"o":"m 557 1214 l 560 1214 q 750 1190 664 1214 q 869 1142 836 1165 l 904 1117 l 904 953 l 899 953 q 556 1171 782 1142 l 557 258 q 640 249 596 249 q 971 461 890 249 l 990 453 q 817 247 932 319 q 556 175 703 174 l 557 93 q 576 -46 558 43 q 593 -157 593 -135 q 550 -224 593 -224 q 519 -205 531 -224 q 508 -157 508 -186 q 526 -47 508 -136 q 543 93 543 42 l 543 175 q 208 330 332 182 q 83 694 83 478 q 208 1060 83 911 q 542 1214 332 1208 l 543 1322 q 526 1463 544 1374 q 508 1572 508 1551 q 519 1620 508 1601 q 550 1639 531 1639 q 593 1572 593 1639 q 575 1461 593 1550 q 557 1322 557 1372 l 557 1214 m 143 829 q 260 453 143 606 q 542 261 376 301 l 543 1172 q 499 1174 528 1174 q 389 1156 446 1174 q 274 1101 332 1139 q 180 993 217 1064 q 143 829 143 922 z "},"":{"ha":1215,"x_min":83,"x_max":1132,"o":"m 217 -28 q 125 -6 167 -28 q 83 51 83 15 q 111 90 83 75 q 178 119 139 106 q 254 158 217 133 q 315 238 292 182 q 333 379 339 294 q 303 547 328 468 q 247 683 278 626 q 187 794 217 740 q 137 912 157 849 q 117 1042 117 975 q 129 1125 117 1081 q 176 1223 142 1169 q 261 1318 210 1276 q 401 1388 313 1360 q 600 1417 489 1417 q 956 1327 814 1417 q 1097 1068 1097 1238 q 1035 879 1097 946 q 886 813 974 813 q 785 844 826 813 q 744 931 744 875 q 768 975 744 964 q 794 933 768 947 q 851 919 819 919 q 955 973 911 919 q 999 1100 999 1026 q 894 1306 999 1213 q 600 1400 789 1400 q 335 1302 436 1400 q 233 1061 233 1204 q 269 894 233 979 q 351 719 304 810 q 413 554 397 628 q 483 623 435 592 q 592 654 531 654 q 757 618 667 654 q 904 582 847 582 q 1038 654 994 582 l 1049 647 q 985 558 1036 604 q 850 511 933 511 q 680 556 778 511 q 535 601 582 601 q 417 532 463 601 q 424 454 424 490 q 390 288 424 358 q 309 181 357 217 q 213 122 261 144 q 132 83 165 99 q 99 51 99 67 q 133 6 99 26 q 217 -14 168 -14 q 387 24 296 -14 q 548 108 478 63 q 715 191 618 153 q 904 229 813 229 q 1065 182 999 229 q 1132 71 1132 135 q 1111 1 1132 31 q 1053 -28 1090 -28 q 1067 18 1067 -10 q 1013 89 1067 64 q 893 111 960 114 q 558 40 761 107 q 217 -28 354 -28 m 413 554 q 403 533 404 542 l 414 526 l 417 532 q 415 544 417 536 q 413 554 414 551 z "},"":{"ha":918,"x_min":83,"x_max":835,"o":"m 83 1022 l 132 1072 l 315 888 q 458 936 381 936 q 601 888 538 936 l 785 1071 l 835 1022 l 650 839 q 697 694 697 774 q 647 551 696 614 l 650 554 l 835 369 l 785 321 l 601 506 l 604 508 q 458 458 539 458 q 314 507 379 458 l 317 504 l 132 321 l 83 369 l 268 554 l 269 553 q 220 695 221 615 q 267 839 219 775 l 83 1022 m 460 867 q 338 817 388 867 q 288 696 288 767 q 338 575 288 625 q 460 525 389 525 q 581 575 531 525 q 631 696 631 625 q 581 817 631 767 q 460 867 531 867 z "},"":{"ha":1303,"x_min":83,"x_max":1219,"o":"m 83 1375 l 83 1389 l 458 1389 l 458 1375 l 428 1375 q 353 1301 353 1375 q 415 1134 353 1260 q 579 827 478 1008 q 701 607 681 646 q 769 733 711 625 q 861 908 826 842 q 942 1067 896 974 q 1013 1223 989 1161 q 1036 1311 1036 1285 q 958 1375 1036 1375 l 922 1375 l 922 1389 l 1219 1389 l 1219 1375 q 1179 1369 1197 1375 q 1142 1347 1161 1364 q 1111 1316 1124 1331 q 1078 1265 1099 1301 q 1044 1205 1057 1229 q 1003 1124 1032 1181 q 954 1029 974 1067 q 823 791 911 949 q 711 588 735 633 l 711 582 q 833 558 779 558 q 974 639 924 558 l 986 639 q 967 598 981 621 q 928 549 953 575 q 863 504 903 522 q 776 486 824 486 q 711 492 738 486 l 711 443 q 833 419 779 419 q 974 500 924 419 l 986 500 q 967 459 981 482 q 928 410 953 436 q 863 365 903 383 q 776 347 824 347 q 711 353 738 347 q 735 83 713 153 q 839 14 758 14 l 839 0 l 464 0 l 464 14 q 570 89 549 14 q 592 386 592 164 l 592 392 q 566 403 585 394 q 539 416 547 413 q 515 426 531 419 q 488 436 499 433 q 463 441 478 439 q 435 443 449 443 q 315 378 356 443 l 303 371 q 370 451 314 408 q 503 493 426 493 q 592 483 546 493 l 592 531 q 566 542 585 533 q 539 555 547 551 q 515 565 531 558 q 488 575 499 572 q 463 580 478 578 q 435 582 449 582 q 315 517 356 582 l 303 510 q 370 590 314 547 q 503 632 426 632 q 571 626 543 632 q 470 807 550 664 q 349 1029 390 950 q 299 1123 326 1069 q 258 1203 272 1176 q 224 1265 243 1231 q 191 1316 204 1300 q 160 1348 178 1332 q 124 1369 142 1364 q 83 1375 106 1375 z "},"":{"ha":182,"x_min":83,"x_max":99,"o":"m 83 -28 l 83 599 l 99 599 l 99 -28 l 83 -28 m 99 790 l 83 790 l 83 1417 l 99 1417 l 99 790 z "},"":{"ha":931,"x_min":83,"x_max":847,"o":"m 83 57 l 83 226 l 97 226 q 120 160 97 200 q 183 81 143 121 q 290 13 222 40 q 433 -14 357 -15 q 645 56 556 -11 q 735 238 735 124 q 700 338 735 297 q 610 403 665 379 q 487 446 554 426 q 351 489 419 465 q 228 544 283 513 q 138 633 172 576 q 103 769 103 690 q 217 958 103 892 q 103 1175 103 1035 q 192 1347 103 1278 q 444 1417 282 1417 q 635 1392 549 1417 q 756 1344 721 1368 l 789 1319 l 789 1156 l 783 1156 q 657 1338 743 1274 q 458 1403 571 1403 q 258 1343 332 1403 q 183 1201 183 1283 q 220 1101 183 1143 q 315 1035 257 1060 q 444 990 374 1011 q 586 944 515 969 q 715 887 657 919 q 810 797 774 854 q 847 661 847 739 q 747 460 847 535 q 847 256 847 383 q 729 42 847 113 q 433 -28 611 -28 q 83 57 215 -28 m 254 935 q 183 796 183 876 q 215 701 183 740 q 304 635 247 661 q 421 592 361 610 q 557 549 481 574 q 683 499 633 524 q 735 643 735 561 q 683 760 735 713 q 567 826 632 807 q 406 876 503 846 q 254 935 310 906 z "},"":{"ha":393,"x_min":83,"x_max":310,"o":"m 83 1542 q 95 1570 83 1558 q 125 1582 107 1582 q 153 1570 142 1582 q 165 1542 165 1558 q 153 1512 165 1524 q 125 1500 142 1500 q 95 1512 107 1500 q 83 1542 83 1524 m 268 1500 q 240 1512 251 1500 q 228 1542 228 1524 q 240 1570 228 1558 q 268 1582 251 1582 q 298 1570 286 1582 q 310 1542 310 1558 q 298 1512 310 1524 q 268 1500 286 1500 z "},"":{"ha":1608,"x_min":83,"x_max":1525,"o":"m 140 414 q 112 481 140 414 q 83 694 83 547 q 140 975 83 842 q 294 1206 197 1108 q 524 1360 390 1303 q 804 1417 658 1417 q 1166 1320 1000 1417 q 1428 1057 1332 1224 q 1525 694 1525 890 q 1428 332 1525 499 q 1166 69 1332 165 q 804 -28 1000 -28 q 524 29 658 -28 q 294 183 390 86 q 140 414 197 281 m 806 1403 q 453 1308 617 1403 q 194 1049 290 1213 q 97 694 97 885 q 191 340 97 503 q 448 81 285 176 q 804 -14 611 -14 q 1158 81 994 -14 q 1417 340 1321 176 q 1513 694 1513 503 q 1456 969 1513 838 q 1303 1195 1399 1100 q 1078 1347 1208 1290 q 806 1403 947 1403 m 475 326 q 410 401 475 326 q 346 697 346 475 q 475 1068 346 919 q 822 1217 604 1217 q 1013 1192 926 1217 q 1133 1144 1099 1168 l 1167 1119 l 1167 956 l 1161 956 q 985 1121 1093 1065 q 761 1176 878 1176 q 651 1159 708 1176 q 537 1104 594 1142 q 442 996 479 1067 q 406 832 406 925 q 450 588 406 700 q 566 404 494 476 q 726 292 638 332 q 903 251 814 251 q 1233 464 1153 251 l 1253 456 q 1085 253 1197 328 q 822 178 974 178 q 475 326 604 178 z "},"":{"ha":738,"x_min":42,"x_max":696,"o":"m 42 900 q 78 1038 42 981 q 171 1120 115 1094 q 290 1166 226 1146 q 410 1197 354 1186 q 502 1233 465 1208 q 539 1294 539 1257 q 487 1378 539 1350 q 367 1407 435 1407 q 236 1378 289 1407 q 183 1293 183 1350 q 192 1263 183 1276 q 208 1247 200 1250 q 222 1247 217 1244 q 211 1208 229 1226 q 168 1190 193 1190 q 117 1214 136 1190 q 97 1269 97 1238 q 172 1378 97 1340 q 367 1417 247 1417 q 541 1382 460 1417 q 622 1293 622 1347 q 585 1235 622 1257 q 494 1204 549 1213 q 375 1178 439 1196 q 256 1133 311 1160 q 165 1046 201 1107 q 128 894 128 985 q 173 765 128 817 q 289 714 218 714 q 456 813 382 714 q 531 1110 531 913 q 514 1157 531 1154 q 540 1171 514 1171 q 605 1130 589 1171 q 621 1018 621 1089 l 621 811 q 644 734 621 757 q 696 711 668 711 l 696 701 l 626 701 q 560 735 586 701 q 533 824 533 769 l 533 992 q 499 871 518 922 q 449 774 479 819 q 371 706 418 729 q 261 682 324 682 q 104 744 167 682 q 42 900 42 806 z "},"":{"ha":525,"x_min":83,"x_max":442,"o":"m 94 685 q 83 694 83 693 q 94 704 83 696 q 190 796 154 747 q 241 869 226 844 q 274 893 256 893 q 292 872 292 893 q 214 778 292 840 q 92 694 136 715 q 214 611 136 674 q 292 517 292 549 q 274 497 292 497 q 245 513 258 497 q 219 551 232 528 q 174 613 207 575 q 94 685 140 650 m 244 685 q 233 694 233 693 q 244 704 233 696 q 340 796 304 747 q 391 869 376 844 q 424 893 406 893 q 442 872 442 893 q 364 778 442 840 q 242 694 286 715 q 364 611 286 674 q 442 517 442 549 q 424 497 442 497 q 395 513 408 497 q 369 551 382 528 q 324 613 357 575 q 244 685 290 650 z "},"":{"ha":888,"x_min":83,"x_max":804,"o":"m 443 694 q 189 801 294 694 q 83 1056 83 907 q 189 1311 83 1206 q 443 1417 294 1417 q 699 1311 593 1417 q 804 1056 804 1206 q 699 801 804 907 q 443 694 593 694 m 96 1056 q 197 811 96 913 q 443 710 297 710 q 687 811 585 710 q 789 1056 789 913 q 686 1300 789 1197 q 443 1403 583 1403 q 199 1300 301 1403 q 96 1056 96 1197 m 243 1311 l 304 1311 q 378 1316 332 1311 q 456 1321 425 1321 q 579 1281 535 1321 q 624 1178 624 1242 q 583 1085 624 1125 q 479 1046 543 1046 q 418 1062 451 1046 q 378 1078 385 1078 q 363 1065 363 1078 q 390 1039 363 1051 q 456 1007 418 1026 q 511 961 493 988 q 535 923 514 956 q 564 878 556 890 q 590 846 572 867 q 623 817 607 825 q 656 808 639 808 l 656 803 l 578 803 q 570 804 574 803 q 563 808 567 806 q 555 815 558 811 q 545 827 551 819 q 534 842 539 835 q 521 863 529 850 q 505 888 513 875 q 485 919 497 900 q 460 956 472 938 q 413 1008 439 986 q 372 1041 386 1029 q 357 1067 357 1053 q 375 1083 357 1083 q 418 1069 388 1083 q 475 1054 449 1054 q 551 1092 521 1054 q 581 1178 581 1129 q 539 1278 581 1242 q 426 1314 497 1314 q 333 1297 379 1314 l 333 944 q 341 835 333 863 q 381 808 349 808 l 381 803 l 243 803 l 243 808 q 283 835 275 808 q 290 944 290 863 l 290 1169 q 283 1278 290 1251 q 243 1306 275 1306 l 243 1311 z "},"":{"ha":465,"x_min":83,"x_max":382,"o":"m 83 1500 l 83 1531 l 382 1531 l 382 1500 l 83 1500 z "},"":{"ha":489,"x_min":83,"x_max":406,"o":"m 358 1142 q 335 1118 358 1142 q 244 1094 311 1094 q 131 1142 178 1094 q 83 1256 83 1189 q 131 1369 83 1322 q 244 1417 178 1417 q 358 1369 311 1417 q 406 1256 406 1322 q 358 1142 406 1189 m 163 1337 q 146 1320 163 1337 q 129 1256 129 1303 q 163 1174 129 1208 q 246 1140 197 1140 q 328 1174 294 1140 q 361 1256 361 1208 q 328 1337 361 1303 q 246 1371 294 1371 q 163 1337 197 1371 z "},"":{"ha":861,"x_min":83,"x_max":778,"o":"m 102 515 q 93 522 102 515 q 83 554 83 529 q 102 593 83 579 q 150 607 121 607 q 273 584 171 607 q 425 560 375 561 q 401 712 424 610 q 378 835 378 814 q 392 883 378 864 q 431 901 406 901 q 469 883 456 901 q 483 835 483 864 q 460 712 483 814 q 436 560 438 610 q 588 584 486 561 q 711 607 690 607 q 759 593 740 607 q 778 554 778 579 q 759 515 778 529 q 711 501 740 501 q 588 524 690 501 q 436 549 486 547 q 460 397 438 499 q 483 274 483 294 q 469 226 483 244 q 431 207 456 207 q 392 226 406 207 q 378 274 378 244 q 401 397 378 294 q 425 549 424 499 q 273 524 375 547 q 150 501 171 501 q 102 515 121 501 m 102 14 q 93 21 102 14 q 83 53 83 28 q 102 92 83 78 q 150 106 121 106 q 276 82 172 106 q 431 58 381 58 q 585 82 481 58 q 711 106 689 106 q 759 92 740 106 q 778 53 778 78 q 759 14 778 28 q 711 0 740 0 q 585 24 689 0 q 431 47 481 47 q 276 24 381 47 q 150 0 172 0 q 102 14 121 0 z "},"":{"ha":668,"x_min":83,"x_max":585,"o":"m 83 781 q 126 873 83 828 q 228 956 168 918 q 349 1034 289 994 q 452 1126 410 1074 q 494 1233 494 1178 q 453 1355 494 1301 q 333 1408 413 1408 q 213 1365 253 1408 q 174 1265 174 1322 q 193 1199 174 1232 q 246 1167 213 1167 q 280 1176 265 1167 q 294 1199 294 1185 q 310 1171 310 1192 q 285 1122 310 1142 q 224 1101 260 1101 q 133 1141 168 1101 q 99 1246 99 1181 q 167 1372 99 1326 q 333 1417 235 1417 q 524 1354 463 1417 q 585 1226 585 1292 q 535 1094 585 1151 q 413 1003 485 1038 q 270 938 342 968 q 149 870 199 908 q 99 786 99 832 q 163 740 99 740 q 310 777 211 740 q 453 814 408 814 q 537 788 506 814 q 568 728 568 761 q 556 697 568 706 q 471 736 529 739 q 328 708 417 733 q 196 682 240 682 q 116 710 149 682 q 83 781 83 739 z "},"":{"ha":736,"x_min":83,"x_max":653,"o":"m 343 682 q 161 723 239 682 q 83 844 83 764 q 111 916 83 888 q 188 944 139 944 q 250 912 232 944 q 246 861 268 879 q 219 867 235 867 q 183 851 197 867 q 168 813 168 835 q 221 723 168 756 q 343 690 274 690 q 502 751 443 690 q 561 929 561 813 q 521 1036 561 994 q 418 1078 481 1078 q 319 1060 363 1078 q 249 1026 276 1043 q 204 1008 222 1008 q 179 1019 190 1008 q 168 1043 168 1029 q 219 1101 168 1079 q 330 1133 269 1122 q 441 1179 390 1144 q 492 1271 492 1214 q 332 1408 492 1408 q 188 1290 188 1408 q 201 1245 188 1265 q 238 1225 215 1225 q 272 1240 263 1225 q 283 1224 283 1236 q 263 1183 283 1200 q 208 1167 242 1167 q 132 1199 161 1167 q 103 1278 103 1231 q 145 1363 103 1329 q 235 1406 188 1396 q 332 1417 283 1417 q 513 1378 442 1417 q 583 1269 583 1340 q 544 1183 583 1215 q 448 1139 504 1151 q 335 1119 392 1126 q 238 1096 278 1111 q 199 1053 199 1081 q 221 1032 199 1032 q 308 1065 228 1032 q 457 1097 389 1097 q 596 1051 539 1097 q 653 928 653 1004 q 558 754 653 826 q 343 682 463 682 z "},"":{"ha":435,"x_min":83,"x_max":351,"o":"m 83 1514 l 128 1514 q 198 1533 168 1514 q 241 1573 228 1551 q 273 1613 254 1594 q 313 1632 292 1632 q 341 1621 331 1632 q 351 1594 351 1610 q 299 1527 351 1554 q 189 1500 246 1500 l 83 1500 l 83 1514 z "},"":{"ha":353,"x_min":83,"x_max":269,"o":"m 110 630 q 97 643 110 630 q 83 696 83 657 q 110 762 83 735 q 176 789 138 789 q 242 762 215 789 q 269 696 269 735 q 242 630 269 657 q 176 603 215 603 q 110 630 138 603 z "},"":{"ha":344,"x_min":83,"x_max":275,"o":"m 83 -244 l 89 -233 q 121 -242 100 -242 q 204 -182 182 -242 q 197 -97 224 -129 q 161 -82 183 -82 q 114 -101 136 -82 l 103 -85 l 156 13 l 169 13 l 117 -85 q 174 -65 143 -65 q 257 -122 240 -65 q 232 -221 275 -176 q 129 -260 194 -260 q 83 -244 101 -260 z "},"":{"ha":389,"x_min":83,"x_max":306,"o":"m 306 694 l 83 694 l 83 706 q 138 744 126 706 q 149 896 149 782 l 149 1218 q 138 1299 149 1279 q 83 1319 126 1319 l 83 1331 q 170 1367 118 1336 q 229 1417 222 1397 l 240 1417 l 240 896 q 251 744 240 782 q 306 706 263 706 l 306 694 z "},"":{"ha":760,"x_min":42,"x_max":718,"o":"m 626 788 q 580 735 626 788 q 379 682 533 682 q 133 788 225 682 q 42 1050 42 893 q 133 1311 42 1206 q 379 1417 225 1417 q 626 1311 533 1417 q 718 1050 718 1206 q 626 788 718 893 m 125 1050 q 194 791 125 888 q 379 694 264 694 q 564 792 493 694 q 635 1050 635 889 q 564 1308 635 1211 q 379 1406 493 1406 q 194 1308 264 1406 q 125 1050 125 1211 m 407 1332 l 410 1321 q 372 1300 392 1321 q 353 1244 353 1279 q 399 1096 353 1193 q 446 940 446 999 q 418 850 446 889 q 339 799 390 811 l 336 808 q 375 829 356 808 q 394 885 394 850 q 347 1032 394 933 q 300 1183 300 1131 q 328 1278 300 1238 q 407 1332 356 1318 z "},"":{"ha":525,"x_min":83,"x_max":442,"o":"m 233 872 q 251 893 233 893 q 278 876 265 893 q 303 835 290 860 q 349 774 315 811 q 431 704 382 736 q 442 694 442 697 q 440 692 442 693 q 435 688 438 690 q 431 685 432 686 q 351 613 385 650 q 305 551 318 575 q 279 513 292 528 q 251 497 267 497 q 233 517 233 497 q 311 611 233 549 q 433 694 389 674 q 311 778 389 715 q 233 872 233 840 m 83 872 q 101 893 83 893 q 128 876 115 893 q 153 835 140 860 q 199 774 165 811 q 281 704 232 736 q 292 694 292 697 q 281 685 292 692 q 200 614 233 651 q 154 553 167 576 q 129 513 142 529 q 101 497 117 497 q 83 517 83 497 q 161 611 83 549 q 283 694 239 674 q 161 778 239 715 q 83 872 83 840 z "},"":{"ha":953,"x_min":83,"x_max":869,"o":"m 294 179 q 431 359 372 267 q 515 512 489 451 q 578 668 542 572 q 588 694 585 686 l 713 694 q 535 451 611 547 q 328 204 458 354 q 359 222 336 208 q 396 244 382 236 q 433 260 410 253 q 476 267 456 267 q 614 235 528 267 q 740 204 700 204 q 849 236 835 204 q 836 263 857 254 q 785 276 815 272 q 730 292 756 279 q 704 329 704 306 l 704 578 l 793 578 l 793 303 q 803 285 793 292 q 825 275 813 278 q 847 261 838 272 q 857 233 857 250 q 838 182 857 207 q 793 147 819 157 q 809 37 794 67 q 869 7 824 7 l 869 0 l 626 0 l 626 7 q 685 35 669 7 q 703 133 700 63 q 563 167 647 133 q 411 200 479 200 q 294 172 356 200 l 294 179 m 306 694 l 83 694 l 83 706 q 138 744 126 706 q 149 896 149 782 l 149 1218 q 138 1299 149 1279 q 83 1319 126 1319 l 83 1331 q 170 1367 118 1336 q 229 1417 222 1397 l 240 1417 l 240 896 q 251 744 240 782 q 306 706 263 706 l 306 694 m 153 -28 l 603 1417 l 617 1417 l 167 -28 l 153 -28 z "},"":{"ha":1008,"x_min":83,"x_max":925,"o":"m 536 -26 q 456 1 489 -26 q 424 71 424 29 q 466 163 424 118 q 569 247 508 208 q 690 324 629 285 q 792 416 750 364 q 835 524 835 468 q 794 646 835 593 q 675 699 754 699 q 553 656 593 699 q 514 556 514 613 q 531 489 514 519 q 586 458 549 458 q 621 467 606 458 q 636 489 636 475 q 651 461 651 481 q 626 413 651 432 q 564 393 600 393 q 474 428 508 393 q 439 528 439 464 q 506 663 439 618 q 675 707 574 707 q 794 687 743 707 q 873 635 846 667 q 913 574 900 604 q 925 517 925 544 q 875 385 925 442 q 753 293 825 328 q 610 228 682 258 q 489 160 539 199 q 439 76 439 122 q 503 31 439 31 q 650 67 553 31 q 793 104 747 104 q 877 78 846 104 q 908 18 908 51 q 896 -12 908 -4 q 862 17 885 6 q 813 26 839 28 q 669 -1 757 24 q 536 -26 581 -26 m 83 694 l 83 706 q 138 744 126 706 q 149 896 149 782 l 149 1218 q 138 1299 149 1279 q 83 1319 126 1319 l 83 1331 q 170 1367 118 1336 q 229 1417 222 1397 l 240 1417 l 240 896 q 251 744 240 782 q 306 706 263 706 l 306 694 l 83 694 m 153 -28 l 603 1417 l 617 1417 l 167 -28 l 153 -28 z "},"":{"ha":1275,"x_min":83,"x_max":1192,"o":"m 343 682 q 161 723 239 682 q 83 844 83 764 q 111 916 83 888 q 188 944 139 944 q 250 912 232 944 q 246 861 268 879 q 219 867 235 867 q 183 851 197 867 q 168 813 168 835 q 221 723 168 756 q 343 690 274 690 q 502 751 443 690 q 561 929 561 813 q 521 1036 561 994 q 418 1078 481 1078 q 319 1060 363 1078 q 249 1026 276 1043 q 204 1008 222 1008 q 179 1019 190 1008 q 168 1043 168 1029 q 219 1101 168 1079 q 330 1133 269 1122 q 441 1179 390 1144 q 492 1271 492 1214 q 332 1408 492 1408 q 188 1290 188 1408 q 201 1245 188 1265 q 238 1225 215 1225 q 272 1240 263 1225 q 283 1224 283 1236 q 263 1183 283 1200 q 208 1167 242 1167 q 132 1199 161 1167 q 103 1278 103 1231 q 145 1363 103 1329 q 235 1406 188 1396 q 332 1417 283 1417 q 513 1378 442 1417 q 583 1269 583 1340 q 544 1183 583 1215 q 448 1139 504 1151 q 335 1119 392 1126 q 238 1096 278 1111 q 199 1053 199 1081 q 221 1032 199 1032 q 308 1065 228 1032 q 457 1097 389 1097 q 596 1051 539 1097 q 653 928 653 1004 q 558 754 653 826 q 343 682 463 682 m 617 172 l 615 179 q 751 359 693 267 q 836 512 810 451 q 899 668 863 572 q 908 694 906 686 l 1033 694 q 857 451 933 547 q 650 204 781 354 q 680 223 654 207 q 718 245 706 239 q 754 259 731 251 q 799 267 778 267 q 937 235 851 267 q 1061 204 1022 204 q 1169 238 1154 204 q 1157 264 1178 254 q 1106 276 1136 274 q 1051 292 1076 279 q 1025 329 1025 306 l 1025 578 l 1115 578 l 1115 303 q 1125 285 1115 292 q 1147 275 1135 278 q 1169 261 1160 272 q 1179 233 1179 250 q 1160 183 1179 208 q 1115 147 1142 158 q 1131 38 1117 68 q 1192 7 1146 7 l 1192 0 l 947 0 l 947 7 q 1006 34 992 7 q 1024 135 1021 61 q 885 167 969 135 q 733 200 800 200 q 617 172 669 200 m 460 -28 l 910 1417 l 924 1417 l 474 -28 l 460 -28 z "},"":{"ha":1076,"x_min":83,"x_max":993,"o":"m 83 382 q 117 542 83 474 q 206 652 151 611 q 326 725 260 693 q 457 784 392 757 q 576 842 522 811 q 665 921 631 872 q 699 1035 699 969 q 689 1085 699 1065 q 653 1129 679 1104 q 677 1151 657 1140 q 715 1161 697 1161 q 786 1121 758 1161 q 814 1029 814 1081 q 715 851 814 935 q 625 788 681 822 q 525 728 569 754 q 438 666 481 701 q 372 582 396 631 q 347 472 347 533 q 368 416 347 439 q 422 393 389 393 q 494 422 457 393 q 563 487 532 451 q 646 551 593 522 q 760 581 699 581 q 930 503 867 581 q 993 321 993 426 q 872 73 993 174 q 558 -28 751 -28 q 219 89 356 -28 q 83 382 83 206 m 596 786 q 497 758 557 772 q 399 733 438 743 q 313 701 360 724 q 240 650 267 679 q 194 568 213 621 q 175 443 175 515 q 294 133 175 271 q 592 -6 413 -6 q 833 64 743 -6 q 922 244 922 133 q 860 428 922 351 q 699 504 797 504 q 628 491 660 504 q 575 458 597 478 q 532 419 553 439 q 483 387 511 400 q 421 374 454 374 q 356 401 379 374 q 332 468 332 428 q 354 578 332 528 q 419 668 376 629 q 501 733 461 707 q 596 786 540 758 m 649 1258 q 636 1271 649 1258 q 622 1324 622 1285 q 649 1390 622 1363 q 715 1417 676 1417 q 781 1390 754 1417 q 808 1324 808 1363 q 781 1258 808 1285 q 715 1231 754 1231 q 649 1258 676 1231 z "},"":{"ha":1217,"x_min":42,"x_max":1217,"o":"m 42 243 q 83 397 42 324 q 185 523 124 471 q 319 625 247 575 q 453 712 392 675 q 556 788 515 749 q 597 860 597 826 q 564 897 597 897 q 517 874 542 897 q 475 824 493 851 q 430 774 457 797 q 376 751 403 751 q 340 774 349 751 q 344 825 332 797 q 451 1109 382 925 q 568 1417 521 1293 l 582 1417 l 1026 243 q 1117 67 1076 119 q 1217 14 1157 14 l 1217 0 l 761 0 l 761 14 q 872 33 832 14 q 922 88 913 51 q 926 167 932 125 q 897 267 919 208 l 725 721 q 733 554 733 654 q 615 134 733 296 q 294 -28 497 -28 q 110 51 178 -28 q 42 243 42 129 m 613 857 q 588 784 613 819 q 523 719 563 749 q 435 656 483 689 q 338 585 386 624 q 249 503 289 547 q 185 399 210 460 q 160 269 160 339 q 219 104 160 169 q 378 39 278 39 q 568 122 488 39 q 684 317 649 204 q 719 551 719 431 q 690 813 719 717 l 522 1256 l 363 831 q 378 765 339 765 q 436 802 404 765 q 502 875 468 839 q 567 911 536 911 q 613 857 613 911 m 601 1500 q 492 1527 544 1500 q 439 1594 439 1554 q 449 1621 439 1610 q 478 1632 460 1632 q 517 1613 499 1632 q 549 1573 536 1594 q 592 1533 563 1551 q 663 1514 622 1514 l 707 1514 l 707 1500 l 601 1500 z "},"":{"ha":1217,"x_min":42,"x_max":1217,"o":"m 42 243 q 83 397 42 324 q 185 523 124 471 q 319 625 247 575 q 453 712 392 675 q 556 788 515 749 q 597 860 597 826 q 564 897 597 897 q 517 874 542 897 q 475 824 493 851 q 430 774 457 797 q 376 751 403 751 q 340 774 349 751 q 344 825 332 797 q 451 1109 382 925 q 568 1417 521 1293 l 582 1417 l 1026 243 q 1117 67 1076 119 q 1217 14 1157 14 l 1217 0 l 761 0 l 761 14 q 872 33 832 14 q 922 88 913 51 q 926 167 932 125 q 897 267 919 208 l 725 721 q 733 554 733 654 q 615 134 733 296 q 294 -28 497 -28 q 110 51 178 -28 q 42 243 42 129 m 613 857 q 588 784 613 819 q 523 719 563 749 q 435 656 483 689 q 338 585 386 624 q 249 503 289 547 q 185 399 210 460 q 160 269 160 339 q 219 104 160 169 q 378 39 278 39 q 568 122 488 39 q 684 317 649 204 q 719 551 719 431 q 690 813 719 717 l 522 1256 l 363 831 q 378 765 339 765 q 436 802 404 765 q 502 875 468 839 q 567 911 536 911 q 613 857 613 911 m 544 1500 l 439 1500 l 439 1514 l 483 1514 q 553 1533 524 1514 q 597 1573 583 1551 q 628 1613 610 1594 q 668 1632 647 1632 q 697 1621 686 1632 q 707 1594 707 1610 q 654 1527 707 1554 q 544 1500 601 1500 z "},"":{"ha":1217,"x_min":42,"x_max":1217,"o":"m 42 243 q 83 397 42 324 q 185 523 124 471 q 319 625 247 575 q 453 712 392 675 q 556 788 515 749 q 597 860 597 826 q 564 897 597 897 q 517 874 542 897 q 475 824 493 851 q 430 774 457 797 q 376 751 403 751 q 340 774 349 751 q 344 825 332 797 q 451 1109 382 925 q 568 1417 521 1293 l 582 1417 l 1026 243 q 1117 67 1076 119 q 1217 14 1157 14 l 1217 0 l 761 0 l 761 14 q 872 33 832 14 q 922 88 913 51 q 926 167 932 125 q 897 267 919 208 l 725 721 q 733 554 733 654 q 615 134 733 296 q 294 -28 497 -28 q 110 51 178 -28 q 42 243 42 129 m 160 269 q 219 104 160 169 q 378 39 278 39 q 568 122 488 39 q 684 317 649 204 q 719 551 719 431 q 690 813 719 717 l 522 1256 l 363 831 q 378 765 339 765 q 436 802 404 765 q 502 875 468 839 q 567 911 536 911 q 613 857 613 911 q 588 784 613 819 q 523 719 563 749 q 435 656 483 689 q 338 585 386 624 q 249 503 289 547 q 185 399 210 460 q 160 269 160 339 m 426 1500 l 418 1514 l 571 1633 l 732 1514 l 724 1500 l 575 1564 l 426 1500 z "},"":{"ha":1217,"x_min":42,"x_max":1217,"o":"m 42 243 q 83 397 42 324 q 185 523 124 471 q 319 625 247 575 q 453 712 392 675 q 556 788 515 749 q 597 860 597 826 q 564 897 597 897 q 517 874 542 897 q 475 824 493 851 q 430 774 457 797 q 376 751 403 751 q 340 774 349 751 q 344 825 332 797 q 451 1109 382 925 q 568 1417 521 1293 l 582 1417 l 1026 243 q 1117 67 1076 119 q 1217 14 1157 14 l 1217 0 l 761 0 l 761 14 q 872 33 832 14 q 922 88 913 51 q 926 167 932 125 q 897 267 919 208 l 725 721 q 733 554 733 654 q 615 134 733 296 q 294 -28 497 -28 q 110 51 178 -28 q 42 243 42 129 m 613 857 q 588 784 613 819 q 523 719 563 749 q 435 656 483 689 q 338 585 386 624 q 249 503 289 547 q 185 399 210 460 q 160 269 160 339 q 219 104 160 169 q 378 39 278 39 q 568 122 488 39 q 684 317 649 204 q 719 551 719 431 q 690 813 719 717 l 522 1256 l 363 831 q 378 765 339 765 q 436 802 404 765 q 502 875 468 839 q 567 911 536 911 q 613 857 613 911 m 410 1521 q 440 1560 415 1540 q 501 1581 464 1581 q 584 1561 535 1581 q 664 1542 633 1542 q 708 1549 692 1542 q 728 1563 725 1556 l 732 1569 l 740 1565 q 706 1518 732 1536 q 643 1500 681 1500 q 565 1520 614 1500 q 476 1540 517 1540 q 417 1517 433 1540 l 410 1521 z "},"":{"ha":1217,"x_min":42,"x_max":1217,"o":"m 42 243 q 83 397 42 324 q 185 523 124 471 q 319 625 247 575 q 453 712 392 675 q 556 788 515 749 q 597 860 597 826 q 564 897 597 897 q 517 874 542 897 q 475 824 493 851 q 430 774 457 797 q 376 751 403 751 q 340 774 349 751 q 344 825 332 797 q 451 1109 382 925 q 568 1417 521 1293 l 582 1417 l 1026 243 q 1117 67 1076 119 q 1217 14 1157 14 l 1217 0 l 761 0 l 761 14 q 872 33 832 14 q 922 88 913 51 q 926 167 932 125 q 897 267 919 208 l 725 721 q 733 554 733 654 q 615 134 733 296 q 294 -28 497 -28 q 110 51 178 -28 q 42 243 42 129 m 613 857 q 588 784 613 819 q 523 719 563 749 q 435 656 483 689 q 338 585 386 624 q 249 503 289 547 q 185 399 210 460 q 160 269 160 339 q 219 104 160 169 q 378 39 278 39 q 568 122 488 39 q 684 317 649 204 q 719 551 719 431 q 690 813 719 717 l 522 1256 l 363 831 q 378 765 339 765 q 436 802 404 765 q 502 875 468 839 q 567 911 536 911 q 613 857 613 911 m 528 1512 q 523 1506 528 1512 q 500 1500 517 1500 q 471 1512 483 1500 q 458 1542 458 1524 q 471 1570 458 1558 q 500 1582 483 1582 q 528 1570 517 1582 q 540 1542 540 1558 q 528 1512 540 1524 m 644 1500 q 615 1512 626 1500 q 603 1542 603 1524 q 615 1570 603 1558 q 644 1582 626 1582 q 673 1570 661 1582 q 685 1542 685 1558 q 673 1512 685 1524 q 644 1500 661 1500 z "},"":{"ha":1217,"x_min":42,"x_max":1217,"o":"m 42 243 q 83 397 42 324 q 185 523 124 471 q 319 625 247 575 q 453 712 392 675 q 556 788 515 749 q 597 860 597 826 q 564 897 597 897 q 517 874 542 897 q 475 824 493 851 q 430 774 457 797 q 376 751 403 751 q 340 774 349 751 q 344 825 332 797 q 451 1109 382 925 q 568 1417 521 1293 l 582 1417 l 1026 243 q 1117 67 1076 119 q 1217 14 1157 14 l 1217 0 l 761 0 l 761 14 q 872 33 832 14 q 922 88 913 51 q 926 167 932 125 q 897 267 919 208 l 725 721 q 733 554 733 654 q 615 134 733 296 q 294 -28 497 -28 q 110 51 178 -28 q 42 243 42 129 m 613 857 q 588 784 613 819 q 523 719 563 749 q 435 656 483 689 q 338 585 386 624 q 249 503 289 547 q 185 399 210 460 q 160 269 160 339 q 219 104 160 169 q 378 39 278 39 q 568 122 488 39 q 684 317 649 204 q 719 551 719 431 q 690 813 719 717 l 522 1256 l 363 831 q 378 765 339 765 q 436 802 404 765 q 502 875 468 839 q 567 911 536 911 q 613 857 613 911 m 485 1589 q 511 1653 485 1626 q 575 1679 538 1679 q 638 1653 611 1679 q 664 1589 664 1626 q 638 1526 664 1553 q 575 1500 611 1500 q 511 1526 538 1500 q 485 1589 485 1553 m 522 1642 q 511 1631 522 1642 q 500 1589 500 1619 q 522 1537 500 1558 q 575 1515 544 1515 q 627 1537 606 1515 q 649 1589 649 1558 q 627 1642 649 1619 q 575 1664 606 1664 q 522 1642 544 1664 z "},"":{"ha":1738,"x_min":42,"x_max":1696,"o":"m 42 243 q 83 397 42 324 q 185 523 124 471 q 319 625 247 575 q 453 712 392 675 q 556 788 515 749 q 597 860 597 826 q 564 897 597 897 q 517 874 542 897 q 475 824 493 851 q 430 774 457 797 q 376 751 403 751 q 336 777 347 751 q 344 825 325 803 q 829 1389 718 1254 l 1696 1389 l 1696 1201 l 1682 1201 l 1682 1207 q 1547 1327 1682 1279 q 1179 1375 1411 1375 l 949 1375 l 949 778 q 1110 842 1013 842 q 1283 799 1181 842 q 1446 756 1386 756 q 1518 778 1488 756 q 1549 835 1549 800 l 1563 835 q 1513 726 1563 771 q 1385 682 1464 682 q 1274 701 1328 682 q 1188 742 1221 719 q 1117 783 1156 764 q 1046 804 1078 803 q 949 756 988 806 l 949 14 l 1126 14 q 1273 20 1199 14 q 1450 46 1347 26 q 1617 113 1553 65 q 1682 229 1682 160 l 1696 229 l 1696 0 l 701 0 l 701 14 q 808 89 786 14 q 829 386 829 164 l 829 429 q 633 101 788 229 q 294 -28 478 -28 q 110 51 178 -28 q 42 243 42 129 m 160 269 q 219 104 160 169 q 378 39 278 39 q 596 119 489 39 q 766 319 703 200 q 829 551 829 439 l 829 1353 l 369 831 q 350 794 351 810 q 358 772 349 778 q 378 765 367 765 q 436 802 404 765 q 502 875 468 839 q 567 911 536 911 q 613 857 613 911 q 588 784 613 819 q 523 719 563 749 q 435 656 483 689 q 338 585 386 624 q 249 503 289 547 q 185 399 210 460 q 160 269 160 339 z "},"":{"ha":1156,"x_min":83,"x_max":1128,"o":"m 671 -26 q 252 190 421 -14 q 83 694 83 394 q 262 1210 83 1004 q 701 1417 440 1417 q 901 1390 815 1417 q 1035 1318 988 1363 q 1105 1225 1082 1274 q 1128 1125 1128 1176 q 1099 995 1128 1057 q 1026 889 1069 933 q 931 800 982 844 q 837 722 881 756 q 764 647 793 688 q 735 568 735 607 q 776 478 735 514 q 690 510 724 467 q 656 607 656 553 q 696 735 656 675 q 793 842 736 796 q 908 931 850 888 q 1006 1028 965 975 q 1046 1136 1046 1081 q 959 1331 1046 1263 q 701 1400 872 1400 q 347 1200 486 1400 q 208 694 208 1000 q 353 192 208 394 q 701 -11 497 -11 q 860 13 788 -11 q 975 72 933 38 q 1046 140 1017 106 q 1086 197 1075 174 l 1097 222 l 1113 222 l 1113 36 q 685 -28 914 -28 l 640 -111 q 697 -92 667 -92 q 781 -149 764 -92 q 756 -247 799 -203 q 653 -286 718 -286 q 607 -271 625 -286 l 613 -260 q 644 -268 622 -268 q 728 -208 706 -268 q 721 -124 747 -156 q 685 -108 707 -108 q 638 -128 660 -108 l 626 -111 l 671 -26 z "},"":{"ha":1078,"x_min":42,"x_max":1036,"o":"m 42 14 q 148 89 126 14 q 169 386 169 164 l 169 1003 q 148 1300 169 1225 q 42 1375 126 1375 l 42 1389 l 1036 1389 l 1036 1201 l 1022 1201 l 1022 1207 q 887 1327 1022 1279 q 519 1375 751 1375 l 289 1375 l 289 778 q 450 842 356 842 q 624 799 521 842 q 786 756 726 756 q 858 778 828 756 q 889 835 889 800 l 903 835 q 853 726 903 771 q 725 682 804 682 q 615 701 668 682 q 528 742 561 719 q 457 783 496 764 q 386 804 418 803 q 289 756 328 806 l 289 14 l 467 14 q 613 20 539 14 q 790 46 688 26 q 958 113 893 65 q 1022 229 1022 160 l 1036 229 l 1036 0 l 42 0 l 42 14 m 415 1594 q 426 1621 415 1610 q 454 1632 436 1632 q 494 1613 475 1632 q 526 1573 513 1594 q 569 1533 539 1551 q 639 1514 599 1514 l 683 1514 l 683 1500 l 578 1500 q 468 1527 521 1500 q 415 1594 415 1554 z "},"":{"ha":1078,"x_min":42,"x_max":1036,"o":"m 1036 0 l 42 0 l 42 14 q 148 89 126 14 q 169 386 169 164 l 169 1003 q 148 1300 169 1225 q 42 1375 126 1375 l 42 1389 l 1036 1389 l 1036 1201 l 1022 1201 l 1022 1207 q 887 1327 1022 1279 q 519 1375 751 1375 l 289 1375 l 289 778 q 450 842 356 842 q 624 799 521 842 q 786 756 726 756 q 858 778 828 756 q 889 835 889 800 l 903 835 q 853 726 903 771 q 725 682 804 682 q 615 701 668 682 q 528 742 561 719 q 457 783 496 764 q 386 804 418 803 q 289 756 328 806 l 289 14 l 467 14 q 613 20 539 14 q 790 46 688 26 q 958 113 893 65 q 1022 229 1022 160 l 1036 229 l 1036 0 m 415 1514 l 460 1514 q 530 1533 500 1514 q 573 1573 560 1551 q 605 1613 586 1594 q 644 1632 624 1632 q 673 1621 663 1632 q 683 1594 683 1610 q 631 1527 683 1554 q 521 1500 578 1500 l 415 1500 l 415 1514 z "},"":{"ha":1078,"x_min":42,"x_max":1036,"o":"m 42 1375 l 42 1389 l 1036 1389 l 1036 1201 l 1022 1201 l 1022 1207 q 887 1327 1022 1279 q 519 1375 751 1375 l 289 1375 l 289 778 q 450 842 356 842 q 624 799 521 842 q 786 756 726 756 q 858 778 828 756 q 889 835 889 800 l 903 835 q 853 726 903 771 q 725 682 804 682 q 615 701 668 682 q 528 742 561 719 q 457 783 496 764 q 386 804 418 803 q 289 756 328 806 l 289 14 l 467 14 q 613 20 539 14 q 790 46 688 26 q 958 113 893 65 q 1022 229 1022 160 l 1036 229 l 1036 0 l 42 0 l 42 14 q 148 89 126 14 q 169 386 169 164 l 169 1003 q 148 1300 169 1225 q 42 1375 126 1375 m 403 1500 l 394 1514 l 547 1633 l 708 1514 l 700 1500 l 551 1564 l 403 1500 z "},"":{"ha":1078,"x_min":42,"x_max":1036,"o":"m 42 0 l 42 14 q 148 89 126 14 q 169 386 169 164 l 169 1003 q 148 1300 169 1225 q 42 1375 126 1375 l 42 1389 l 1036 1389 l 1036 1201 l 1022 1201 l 1022 1207 q 887 1327 1022 1279 q 519 1375 751 1375 l 289 1375 l 289 778 q 450 842 356 842 q 624 799 521 842 q 786 756 726 756 q 858 778 828 756 q 889 835 889 800 l 903 835 q 853 726 903 771 q 725 682 804 682 q 615 701 668 682 q 528 742 561 719 q 457 783 496 764 q 386 804 418 803 q 289 756 328 806 l 289 14 l 467 14 q 613 20 539 14 q 790 46 688 26 q 958 113 893 65 q 1022 229 1022 160 l 1036 229 l 1036 0 l 42 0 m 505 1512 q 499 1506 505 1512 q 476 1500 493 1500 q 447 1512 460 1500 q 435 1542 435 1524 q 447 1570 435 1558 q 476 1582 460 1582 q 505 1570 493 1582 q 517 1542 517 1558 q 505 1512 517 1524 m 621 1500 q 591 1512 603 1500 q 579 1542 579 1524 q 591 1570 579 1558 q 621 1582 603 1582 q 649 1570 638 1582 q 661 1542 661 1558 q 649 1512 661 1524 q 621 1500 638 1500 z "},"":{"ha":458,"x_min":42,"x_max":417,"o":"m 42 1375 l 42 1389 l 417 1389 l 417 1375 q 310 1300 332 1375 q 289 1003 289 1225 l 289 386 q 310 89 289 164 q 417 14 332 14 l 417 0 l 42 0 l 42 14 q 148 89 126 14 q 169 386 169 164 l 169 1003 q 148 1300 169 1225 q 42 1375 126 1375 m 254 1500 q 144 1527 197 1500 q 92 1594 92 1554 q 102 1621 92 1610 q 131 1632 113 1632 q 170 1613 151 1632 q 202 1573 189 1594 q 245 1533 215 1551 q 315 1514 275 1514 l 360 1514 l 360 1500 l 254 1500 z "},"":{"ha":458,"x_min":42,"x_max":417,"o":"m 42 0 l 42 14 q 148 89 126 14 q 169 386 169 164 l 169 1003 q 148 1300 169 1225 q 42 1375 126 1375 l 42 1389 l 417 1389 l 417 1375 q 310 1300 332 1375 q 289 1003 289 1225 l 289 386 q 310 89 289 164 q 417 14 332 14 l 417 0 l 42 0 m 92 1500 l 92 1514 l 136 1514 q 206 1533 176 1514 q 249 1573 236 1551 q 281 1613 263 1594 q 321 1632 300 1632 q 349 1621 339 1632 q 360 1594 360 1610 q 307 1527 360 1554 q 197 1500 254 1500 l 92 1500 z "},"":{"ha":458,"x_min":42,"x_max":417,"o":"m 42 1375 l 42 1389 l 417 1389 l 417 1375 q 310 1300 332 1375 q 289 1003 289 1225 l 289 386 q 310 89 289 164 q 417 14 332 14 l 417 0 l 42 0 l 42 14 q 148 89 126 14 q 169 386 169 164 l 169 1003 q 148 1300 169 1225 q 42 1375 126 1375 m 78 1500 l 69 1514 l 222 1633 l 383 1514 l 375 1500 l 226 1564 l 78 1500 z "},"":{"ha":458,"x_min":42,"x_max":417,"o":"m 42 1375 l 42 1389 l 417 1389 l 417 1375 q 310 1300 332 1375 q 289 1003 289 1225 l 289 386 q 310 89 289 164 q 417 14 332 14 l 417 0 l 42 0 l 42 14 q 148 89 126 14 q 169 386 169 164 l 169 1003 q 148 1300 169 1225 q 42 1375 126 1375 m 111 1542 q 123 1570 111 1558 q 151 1582 135 1582 q 181 1570 169 1582 q 193 1542 193 1558 q 181 1512 193 1524 q 151 1500 169 1500 q 123 1512 135 1500 q 111 1542 111 1524 m 256 1542 q 267 1570 256 1558 q 296 1582 279 1582 q 325 1570 313 1582 q 338 1542 338 1558 q 325 1512 338 1524 q 296 1500 313 1500 q 267 1512 279 1500 q 256 1542 256 1524 z "},"":{"ha":1254,"x_min":-28,"x_max":1171,"o":"m -28 764 l 169 764 l 169 1003 q 148 1300 169 1225 q 42 1375 126 1375 l 42 1389 l 153 1389 q 356 1403 229 1389 q 540 1417 482 1417 q 819 1358 696 1417 q 1017 1198 942 1299 q 1132 969 1093 1097 q 1171 694 1171 840 q 1132 420 1171 549 q 1017 191 1093 292 q 819 31 942 90 q 540 -28 696 -28 q 356 -14 482 -28 q 153 0 229 0 l 42 0 l 42 14 q 148 89 126 14 q 169 386 169 164 l 169 736 l -28 736 l -28 764 m 288 764 l 564 764 l 564 736 l 288 736 l 288 31 q 539 -8 413 -8 q 763 48 664 -8 q 924 201 863 104 q 1019 424 986 299 q 1051 694 1051 550 q 1019 965 1051 839 q 924 1188 986 1090 q 763 1341 863 1285 q 539 1397 664 1397 q 288 1358 413 1397 l 288 764 z "},"":{"ha":1246,"x_min":42,"x_max":1204,"o":"m 42 1389 l 285 1389 l 1063 203 l 1063 808 q 995 1233 1063 1092 q 829 1375 928 1375 l 829 1389 l 1204 1389 l 1204 1375 q 1098 1300 1119 1375 q 1076 1003 1076 1225 l 1076 -28 l 1063 -28 l 183 1311 l 183 581 q 251 156 183 297 q 417 14 318 14 l 417 0 l 42 0 l 42 14 q 148 89 126 14 q 169 386 169 164 l 169 1003 q 148 1300 169 1225 q 42 1375 126 1375 l 42 1389 m 453 1517 l 446 1521 q 476 1560 451 1540 q 538 1581 500 1581 q 620 1561 571 1581 q 700 1542 669 1542 q 744 1549 728 1542 q 764 1563 761 1556 l 768 1569 l 776 1565 q 742 1518 768 1536 q 679 1500 717 1500 q 601 1520 650 1500 q 513 1540 553 1540 q 453 1517 469 1540 z "},"":{"ha":1403,"x_min":83,"x_max":1319,"o":"m 262 178 q 173 282 262 178 q 83 694 83 385 q 262 1210 83 1004 q 701 1417 440 1417 q 1141 1210 963 1417 q 1319 694 1319 1004 q 1141 178 1319 385 q 701 -28 963 -28 q 262 178 440 -28 m 208 694 q 353 192 208 394 q 701 -11 497 -11 q 1050 192 906 -11 q 1194 694 1194 394 q 1056 1200 1194 1000 q 701 1400 917 1400 q 347 1200 486 1400 q 208 694 208 1000 m 567 1594 q 577 1621 567 1610 q 606 1632 588 1632 q 645 1613 626 1632 q 677 1573 664 1594 q 720 1533 690 1551 q 790 1514 750 1514 l 835 1514 l 835 1500 l 729 1500 q 619 1527 672 1500 q 567 1594 567 1554 z "},"":{"ha":1403,"x_min":83,"x_max":1319,"o":"m 262 178 q 173 282 262 178 q 83 694 83 385 q 262 1210 83 1004 q 701 1417 440 1417 q 1141 1210 963 1417 q 1319 694 1319 1004 q 1141 178 1319 385 q 701 -28 963 -28 q 262 178 440 -28 m 1056 1200 q 986 1300 1056 1200 q 701 1400 917 1400 q 347 1200 486 1400 q 208 694 208 1000 q 353 192 208 394 q 701 -11 497 -11 q 1050 192 906 -11 q 1194 694 1194 394 q 1056 1200 1194 1000 m 672 1500 l 567 1500 l 567 1514 l 611 1514 q 681 1533 651 1514 q 724 1573 711 1551 q 756 1613 738 1594 q 796 1632 775 1632 q 824 1621 814 1632 q 835 1594 835 1610 q 782 1527 835 1554 q 672 1500 729 1500 z "},"":{"ha":1403,"x_min":83,"x_max":1319,"o":"m 262 178 q 173 282 262 178 q 83 694 83 385 q 262 1210 83 1004 q 701 1417 440 1417 q 1141 1210 963 1417 q 1319 694 1319 1004 q 1141 178 1319 385 q 701 -28 963 -28 q 262 178 440 -28 m 1056 1200 q 986 1300 1056 1200 q 701 1400 917 1400 q 347 1200 486 1400 q 208 694 208 1000 q 353 192 208 394 q 701 -11 497 -11 q 1050 192 906 -11 q 1194 694 1194 394 q 1056 1200 1194 1000 m 553 1500 l 544 1514 l 697 1633 l 858 1514 l 850 1500 l 701 1564 l 553 1500 z "},"":{"ha":1403,"x_min":83,"x_max":1319,"o":"m 262 178 q 173 282 262 178 q 83 694 83 385 q 262 1210 83 1004 q 701 1417 440 1417 q 1141 1210 963 1417 q 1319 694 1319 1004 q 1141 178 1319 385 q 701 -28 963 -28 q 262 178 440 -28 m 1056 1200 q 986 1300 1056 1200 q 701 1400 917 1400 q 347 1200 486 1400 q 208 694 208 1000 q 353 192 208 394 q 701 -11 497 -11 q 1050 192 906 -11 q 1194 694 1194 394 q 1056 1200 1194 1000 m 536 1521 q 566 1560 542 1540 q 628 1581 590 1581 q 710 1561 661 1581 q 790 1542 760 1542 q 835 1549 818 1542 q 856 1563 851 1556 l 858 1569 l 867 1565 q 833 1518 858 1536 q 769 1500 807 1500 q 693 1520 742 1500 q 603 1540 644 1540 q 543 1517 560 1540 l 536 1521 z "},"":{"ha":1403,"x_min":83,"x_max":1319,"o":"m 1141 178 q 1052 75 1141 178 q 701 -28 963 -28 q 262 178 440 -28 q 83 694 83 385 q 262 1210 83 1004 q 701 1417 440 1417 q 1141 1210 963 1417 q 1319 694 1319 1004 q 1141 178 1319 385 m 208 694 q 353 192 208 394 q 701 -11 497 -11 q 1050 192 906 -11 q 1194 694 1194 394 q 1056 1200 1194 1000 q 701 1400 917 1400 q 347 1200 486 1400 q 208 694 208 1000 m 626 1500 q 598 1512 610 1500 q 586 1542 586 1524 q 598 1570 586 1558 q 626 1582 610 1582 q 656 1570 644 1582 q 668 1542 668 1558 q 656 1512 668 1524 q 626 1500 644 1500 m 800 1512 q 794 1506 800 1512 q 771 1500 788 1500 q 742 1512 754 1500 q 731 1542 731 1524 q 742 1570 731 1558 q 771 1582 754 1582 q 800 1570 788 1582 q 813 1542 813 1558 q 800 1512 813 1524 z "},"":{"ha":686,"x_min":61,"x_max":626,"o":"m 97 449 q 108 532 63 483 q 212 603 124 549 q 336 693 300 658 q 212 783 300 728 q 108 854 124 839 q 97 939 61 903 q 131 953 111 953 q 182 929 158 953 q 253 826 197 914 q 343 701 308 738 q 433 825 378 736 q 504 929 488 914 q 556 953 528 953 q 589 939 575 953 q 579 854 626 901 q 476 783 564 839 q 351 693 388 728 q 476 603 388 658 q 579 532 564 547 q 589 449 625 486 q 554 433 574 433 q 504 458 529 433 q 433 562 489 474 q 343 686 378 650 q 251 560 307 649 q 182 458 194 472 q 132 433 157 433 q 97 449 113 433 z "},"":{"ha":1403,"x_min":83,"x_max":1319,"o":"m 482 15 q 193 273 303 90 q 83 694 83 456 q 262 1210 83 1004 q 701 1417 440 1417 q 907 1378 807 1417 l 919 1417 l 933 1417 l 919 1374 q 1210 1116 1100 1299 q 1319 694 1319 933 q 1141 178 1319 385 q 701 -28 963 -28 q 494 11 596 -28 l 483 -28 l 469 -28 l 482 15 m 701 1400 q 347 1200 486 1400 q 208 694 208 1000 q 287 307 208 478 q 494 53 365 136 l 899 1347 q 701 1400 808 1400 m 506 46 q 701 -11 599 -11 q 1050 192 906 -11 q 1194 694 1194 394 q 1118 1089 1194 917 q 910 1340 1042 1261 l 506 46 z "},"":{"ha":1272,"x_min":42,"x_max":1231,"o":"m 42 1389 l 417 1389 l 417 1375 q 310 1300 332 1375 q 289 1003 289 1225 l 289 386 q 386 89 289 192 q 639 -14 483 -14 q 888 89 793 -14 q 983 386 983 192 l 983 1003 q 962 1300 983 1225 q 856 1375 940 1375 l 856 1389 l 1231 1389 l 1231 1375 q 1124 1300 1146 1375 q 1103 1003 1103 1225 l 1103 386 q 972 79 1103 186 q 639 -28 842 -28 q 403 16 507 -28 q 235 156 300 60 q 169 386 169 251 l 169 1003 q 148 1300 169 1225 q 42 1375 126 1375 l 42 1389 m 503 1594 q 513 1621 503 1610 q 542 1632 524 1632 q 581 1613 563 1632 q 613 1573 600 1594 q 656 1533 626 1551 q 726 1514 686 1514 l 771 1514 l 771 1500 l 665 1500 q 556 1527 608 1500 q 503 1594 503 1554 z "},"":{"ha":1272,"x_min":42,"x_max":1231,"o":"m 42 1375 l 42 1389 l 417 1389 l 417 1375 q 310 1300 332 1375 q 289 1003 289 1225 l 289 386 q 386 89 289 192 q 639 -14 483 -14 q 888 89 793 -14 q 983 386 983 192 l 983 1003 q 962 1300 983 1225 q 856 1375 940 1375 l 856 1389 l 1231 1389 l 1231 1375 q 1124 1300 1146 1375 q 1103 1003 1103 1225 l 1103 386 q 972 79 1103 186 q 639 -28 842 -28 q 403 16 507 -28 q 235 156 300 60 q 169 386 169 251 l 169 1003 q 148 1300 169 1225 q 42 1375 126 1375 m 503 1514 l 547 1514 q 617 1533 588 1514 q 660 1573 647 1551 q 692 1613 674 1594 q 732 1632 711 1632 q 760 1621 750 1632 q 771 1594 771 1610 q 718 1527 771 1554 q 608 1500 665 1500 l 503 1500 l 503 1514 z "},"":{"ha":1272,"x_min":42,"x_max":1231,"o":"m 42 1389 l 417 1389 l 417 1375 q 310 1300 332 1375 q 289 1003 289 1225 l 289 386 q 386 89 289 192 q 639 -14 483 -14 q 888 89 793 -14 q 983 386 983 192 l 983 1003 q 962 1300 983 1225 q 856 1375 940 1375 l 856 1389 l 1231 1389 l 1231 1375 q 1124 1300 1146 1375 q 1103 1003 1103 1225 l 1103 386 q 972 79 1103 186 q 639 -28 842 -28 q 403 16 507 -28 q 235 156 300 60 q 169 386 169 251 l 169 1003 q 148 1300 169 1225 q 42 1375 126 1375 l 42 1389 m 489 1500 l 481 1514 l 633 1633 l 794 1514 l 786 1500 l 638 1564 l 489 1500 z "},"":{"ha":1272,"x_min":42,"x_max":1231,"o":"m 42 1375 l 42 1389 l 417 1389 l 417 1375 q 310 1300 332 1375 q 289 1003 289 1225 l 289 386 q 386 89 289 192 q 639 -14 483 -14 q 888 89 793 -14 q 983 386 983 192 l 983 1003 q 962 1300 983 1225 q 856 1375 940 1375 l 856 1389 l 1231 1389 l 1231 1375 q 1124 1300 1146 1375 q 1103 1003 1103 1225 l 1103 386 q 972 79 1103 186 q 639 -28 842 -28 q 403 16 507 -28 q 235 156 300 60 q 169 386 169 251 l 169 1003 q 148 1300 169 1225 q 42 1375 126 1375 m 735 1512 q 730 1506 735 1512 q 707 1500 724 1500 q 678 1512 690 1500 q 665 1542 665 1524 q 678 1570 665 1558 q 707 1582 690 1582 q 735 1570 724 1582 q 747 1542 747 1558 q 735 1512 747 1524 m 592 1512 q 585 1506 592 1512 q 563 1500 579 1500 q 534 1512 546 1500 q 522 1542 522 1524 q 534 1570 522 1558 q 563 1582 546 1582 q 592 1570 579 1582 q 604 1542 604 1558 q 592 1512 604 1524 z "},"":{"ha":1136,"x_min":0,"x_max":1136,"o":"m 0 1375 l 0 1389 l 386 1389 l 386 1375 l 356 1375 q 281 1301 281 1375 q 343 1133 281 1260 q 503 833 406 1007 q 624 617 601 660 q 692 745 632 633 q 783 919 751 857 q 862 1074 815 981 q 931 1226 908 1168 q 953 1311 953 1285 q 875 1375 953 1375 l 839 1375 l 839 1389 l 1136 1389 l 1136 1375 q 1096 1369 1114 1375 q 1059 1347 1078 1364 q 1028 1316 1040 1331 q 994 1265 1015 1301 q 961 1205 974 1229 q 919 1124 949 1181 q 871 1029 890 1067 q 740 791 828 949 q 628 588 651 633 l 628 386 q 649 89 628 164 q 756 14 671 14 l 756 0 l 381 0 l 381 14 q 487 89 465 14 q 508 386 508 164 l 508 588 q 397 791 485 633 q 265 1029 308 949 q 217 1124 246 1067 q 175 1205 188 1181 q 142 1265 163 1229 q 108 1316 121 1301 q 77 1347 96 1331 q 40 1369 58 1364 q 0 1375 22 1375 m 482 1514 l 526 1514 q 597 1533 567 1514 q 640 1573 626 1551 q 672 1613 653 1594 q 711 1632 690 1632 q 740 1621 729 1632 q 750 1594 750 1610 q 697 1527 750 1554 q 588 1500 644 1500 l 482 1500 l 482 1514 z "},"":{"ha":1119,"x_min":42,"x_max":1078,"o":"m 289 0 l 42 0 l 42 14 q 148 89 126 14 q 169 386 169 164 l 169 1042 q 272 1307 169 1197 q 531 1417 375 1417 q 766 1348 676 1417 q 856 1160 856 1279 q 804 995 856 1068 q 681 880 753 922 q 535 805 608 838 q 411 744 463 772 q 360 688 360 715 q 372 656 360 667 q 394 644 383 644 l 406 644 q 526 688 436 644 q 683 731 615 731 q 965 634 853 731 q 1078 376 1078 538 q 955 88 1078 203 q 656 -28 832 -28 q 442 31 533 -28 q 350 193 350 90 q 354 233 350 213 l 367 233 q 424 74 349 131 q 610 18 500 18 q 858 110 756 18 q 960 349 960 203 q 878 589 960 483 q 678 694 797 694 q 510 663 588 694 q 406 631 432 632 q 364 644 382 629 q 346 681 346 660 q 386 747 346 713 q 484 817 426 781 q 599 897 542 853 q 697 1011 657 942 q 738 1164 738 1081 q 683 1331 738 1261 q 531 1400 629 1400 q 359 1303 429 1400 q 289 1042 289 1206 l 289 0 z "},"":{"ha":1036,"x_min":83,"x_max":1008,"o":"m 83 281 q 122 453 83 381 q 223 565 161 525 q 360 633 285 606 q 510 677 435 660 q 647 713 585 694 q 747 762 708 731 q 786 839 786 793 q 713 957 786 917 q 543 997 639 997 q 358 957 433 997 q 283 836 283 917 q 295 793 283 811 q 319 772 307 775 q 339 772 332 768 q 323 717 349 742 q 261 692 297 692 q 189 724 217 692 q 161 803 161 757 q 267 957 161 903 q 543 1011 374 1011 q 789 962 674 1011 q 904 836 904 913 q 874 770 904 797 q 795 730 844 743 q 683 702 746 717 q 555 674 621 688 q 426 631 489 661 q 315 558 364 600 q 235 443 265 517 q 206 272 206 369 q 269 90 206 163 q 433 18 332 18 q 551 49 493 18 q 660 144 608 81 q 742 320 711 208 q 774 576 774 432 q 750 644 774 638 q 761 658 750 651 q 788 664 772 664 q 848 647 824 664 q 883 596 872 629 q 898 529 894 563 q 901 447 901 496 q 902 310 901 389 q 903 156 903 232 q 936 46 903 78 q 1008 14 969 14 l 1008 0 l 910 0 q 815 48 853 0 q 778 172 778 96 l 778 410 q 730 240 757 313 q 659 103 703 167 q 548 6 615 39 q 393 -28 481 -28 q 171 59 258 -28 q 83 281 83 146 m 408 1189 q 419 1215 408 1204 q 447 1226 429 1226 q 487 1208 468 1226 q 519 1167 506 1189 q 562 1127 532 1146 q 632 1108 592 1108 l 676 1108 l 676 1094 l 571 1094 q 461 1122 514 1094 q 408 1189 408 1149 z "},"":{"ha":1036,"x_min":83,"x_max":1008,"o":"m 393 -28 q 171 59 258 -28 q 83 281 83 146 q 122 453 83 381 q 223 565 161 525 q 360 633 285 606 q 510 677 435 660 q 647 713 585 694 q 747 762 708 731 q 786 839 786 793 q 713 957 786 917 q 543 997 639 997 q 358 957 433 997 q 283 836 283 917 q 295 793 283 811 q 319 772 307 775 q 339 772 332 768 q 323 717 349 742 q 261 692 297 692 q 189 724 217 692 q 161 803 161 757 q 267 957 161 903 q 543 1011 374 1011 q 789 962 674 1011 q 904 836 904 913 q 874 770 904 797 q 795 730 844 743 q 683 702 746 717 q 555 674 621 688 q 426 631 489 661 q 315 558 364 600 q 235 443 265 517 q 206 272 206 369 q 269 90 206 163 q 433 18 332 18 q 551 49 493 18 q 660 144 608 81 q 742 320 711 208 q 774 576 774 432 q 750 644 774 638 q 761 658 750 651 q 788 664 772 664 q 848 647 824 664 q 883 596 872 629 q 898 529 894 563 q 901 447 901 496 q 902 310 901 389 q 903 156 903 232 q 936 46 903 78 q 1008 14 969 14 l 1008 0 l 910 0 q 815 48 853 0 q 778 172 778 96 l 778 410 q 730 240 757 313 q 659 103 703 167 q 548 6 615 39 q 393 -28 481 -28 m 408 1094 l 408 1108 l 453 1108 q 523 1127 493 1108 q 566 1167 553 1146 q 598 1208 579 1189 q 638 1226 617 1226 q 666 1215 656 1226 q 676 1189 676 1204 q 624 1122 676 1149 q 514 1094 571 1094 l 408 1094 z "},"":{"ha":1036,"x_min":83,"x_max":1008,"o":"m 393 -28 q 171 59 258 -28 q 83 281 83 146 q 122 453 83 381 q 223 565 161 525 q 360 633 285 606 q 510 677 435 660 q 647 713 585 694 q 747 762 708 731 q 786 839 786 793 q 713 957 786 917 q 543 997 639 997 q 358 957 433 997 q 283 836 283 917 q 295 793 283 811 q 319 772 307 775 q 339 772 332 768 q 323 717 349 742 q 261 692 297 692 q 189 724 217 692 q 161 803 161 757 q 267 957 161 903 q 543 1011 374 1011 q 789 962 674 1011 q 904 836 904 913 q 874 770 904 797 q 795 730 844 743 q 683 702 746 717 q 555 674 621 688 q 426 631 489 661 q 315 558 364 600 q 235 443 265 517 q 206 272 206 369 q 269 90 206 163 q 433 18 332 18 q 551 49 493 18 q 660 144 608 81 q 742 320 711 208 q 774 576 774 432 q 750 644 774 638 q 761 658 750 651 q 788 664 772 664 q 848 647 824 664 q 883 596 872 629 q 898 529 894 563 q 901 447 901 496 q 902 310 901 389 q 903 156 903 232 q 936 46 903 78 q 1008 14 969 14 l 1008 0 l 910 0 q 815 48 853 0 q 778 172 778 96 l 778 410 q 730 240 757 313 q 659 103 703 167 q 548 6 615 39 q 393 -28 481 -28 m 386 1108 l 539 1228 l 700 1108 l 692 1094 l 543 1158 l 394 1094 l 386 1108 z "},"":{"ha":1036,"x_min":83,"x_max":1008,"o":"m 393 -28 q 171 59 258 -28 q 83 281 83 146 q 122 453 83 381 q 223 565 161 525 q 360 633 285 606 q 510 677 435 660 q 647 713 585 694 q 747 762 708 731 q 786 839 786 793 q 713 957 786 917 q 543 997 639 997 q 358 957 433 997 q 283 836 283 917 q 295 793 283 811 q 319 772 307 775 q 339 772 332 768 q 323 717 349 742 q 261 692 297 692 q 189 724 217 692 q 161 803 161 757 q 267 957 161 903 q 543 1011 374 1011 q 789 962 674 1011 q 904 836 904 913 q 874 770 904 797 q 795 730 844 743 q 683 702 746 717 q 555 674 621 688 q 426 631 489 661 q 315 558 364 600 q 235 443 265 517 q 206 272 206 369 q 269 90 206 163 q 433 18 332 18 q 551 49 493 18 q 660 144 608 81 q 742 320 711 208 q 774 576 774 432 q 750 644 774 638 q 761 658 750 651 q 788 664 772 664 q 848 647 824 664 q 883 596 872 629 q 898 529 894 563 q 901 447 901 496 q 902 310 901 389 q 903 156 903 232 q 936 46 903 78 q 1008 14 969 14 l 1008 0 l 910 0 q 815 48 853 0 q 778 172 778 96 l 778 410 q 730 240 757 313 q 659 103 703 167 q 548 6 615 39 q 393 -28 481 -28 m 385 1111 l 378 1115 q 408 1155 383 1135 q 469 1175 432 1175 q 552 1156 503 1175 q 632 1136 601 1136 q 676 1143 660 1136 q 697 1157 693 1150 l 700 1164 l 708 1160 q 674 1113 700 1131 q 611 1094 649 1094 q 535 1115 583 1094 q 444 1135 486 1135 q 385 1111 401 1135 z "},"":{"ha":1036,"x_min":83,"x_max":1008,"o":"m 393 -28 q 171 59 258 -28 q 83 281 83 146 q 122 453 83 381 q 223 565 161 525 q 360 633 285 606 q 510 677 435 660 q 647 713 585 694 q 747 762 708 731 q 786 839 786 793 q 713 957 786 917 q 543 997 639 997 q 358 957 433 997 q 283 836 283 917 q 295 793 283 811 q 319 772 307 775 q 339 772 332 768 q 323 717 349 742 q 261 692 297 692 q 189 724 217 692 q 161 803 161 757 q 267 957 161 903 q 543 1011 374 1011 q 789 962 674 1011 q 904 836 904 913 q 874 770 904 797 q 795 730 844 743 q 683 702 746 717 q 555 674 621 688 q 426 631 489 661 q 315 558 364 600 q 235 443 265 517 q 206 272 206 369 q 269 90 206 163 q 433 18 332 18 q 551 49 493 18 q 660 144 608 81 q 742 320 711 208 q 774 576 774 432 q 750 644 774 638 q 761 658 750 651 q 788 664 772 664 q 848 647 824 664 q 883 596 872 629 q 898 529 894 563 q 901 447 901 496 q 902 310 901 389 q 903 156 903 232 q 936 46 903 78 q 1008 14 969 14 l 1008 0 l 910 0 q 815 48 853 0 q 778 172 778 96 l 778 410 q 730 240 757 313 q 659 103 703 167 q 548 6 615 39 q 393 -28 481 -28 m 428 1136 q 440 1165 428 1153 q 468 1176 451 1176 q 498 1165 486 1176 q 510 1136 510 1153 q 498 1106 510 1118 q 468 1094 486 1094 q 440 1106 451 1094 q 428 1136 428 1118 m 642 1106 q 635 1100 642 1106 q 613 1094 629 1094 q 584 1106 596 1094 q 572 1136 572 1118 q 584 1165 572 1153 q 613 1176 596 1176 q 642 1165 629 1176 q 654 1136 654 1153 q 642 1106 654 1118 z "},"":{"ha":1036,"x_min":83,"x_max":1008,"o":"m 393 -28 q 171 59 258 -28 q 83 281 83 146 q 122 453 83 381 q 223 565 161 525 q 360 633 285 606 q 510 677 435 660 q 647 713 585 694 q 747 762 708 731 q 786 839 786 793 q 713 957 786 917 q 543 997 639 997 q 358 957 433 997 q 283 836 283 917 q 295 793 283 811 q 319 772 307 775 q 339 772 332 768 q 323 717 349 742 q 261 692 297 692 q 189 724 217 692 q 161 803 161 757 q 267 957 161 903 q 543 1011 374 1011 q 789 962 674 1011 q 904 836 904 913 q 874 770 904 797 q 795 730 844 743 q 683 702 746 717 q 555 674 621 688 q 426 631 489 661 q 315 558 364 600 q 235 443 265 517 q 206 272 206 369 q 269 90 206 163 q 433 18 332 18 q 551 49 493 18 q 660 144 608 81 q 742 320 711 208 q 774 576 774 432 q 750 644 774 638 q 761 658 750 651 q 788 664 772 664 q 848 647 824 664 q 883 596 872 629 q 898 529 894 563 q 901 447 901 496 q 902 310 901 389 q 903 156 903 232 q 936 46 903 78 q 1008 14 969 14 l 1008 0 l 910 0 q 815 48 853 0 q 778 172 778 96 l 778 410 q 730 240 757 313 q 659 103 703 167 q 548 6 615 39 q 393 -28 481 -28 m 607 1121 q 594 1108 607 1121 q 543 1094 581 1094 q 479 1121 506 1094 q 453 1183 453 1147 q 479 1247 453 1221 q 543 1274 506 1274 q 607 1247 581 1274 q 633 1183 633 1221 q 607 1121 633 1147 m 543 1258 q 491 1236 513 1258 q 469 1183 469 1214 q 491 1131 469 1153 q 543 1110 513 1110 q 596 1131 574 1110 q 618 1183 618 1153 q 597 1236 618 1214 q 543 1258 575 1258 z "},"":{"ha":1785,"x_min":83,"x_max":1701,"o":"m 83 281 q 122 453 83 381 q 223 565 161 525 q 360 633 285 606 q 510 677 435 660 q 647 713 585 694 q 747 762 708 731 q 786 839 786 793 q 713 957 786 917 q 543 997 639 997 q 358 957 433 997 q 283 836 283 917 q 295 793 283 811 q 319 772 307 775 q 339 772 332 768 q 323 717 349 742 q 261 692 297 692 q 189 724 217 692 q 161 803 161 757 q 267 957 161 903 q 543 1011 374 1011 q 705 992 624 1011 q 844 931 786 972 q 904 839 903 890 q 1271 1011 1038 1011 q 1458 978 1376 1011 q 1585 892 1540 944 q 1651 783 1629 839 q 1674 674 1674 728 q 1647 563 1674 610 q 1578 490 1621 515 q 1489 454 1535 465 q 1393 443 1443 443 q 1180 501 1310 443 q 1003 560 1050 560 q 949 532 958 560 l 943 533 q 981 603 943 575 q 1068 632 1018 632 q 1179 591 1115 632 q 1317 509 1243 550 q 1461 468 1390 468 q 1572 511 1532 468 q 1611 631 1611 554 q 1587 747 1611 689 q 1515 856 1563 804 q 1388 939 1468 907 q 1210 971 1308 971 q 953 872 1053 971 q 854 626 854 774 q 899 383 854 494 q 1015 199 943 271 q 1174 86 1086 126 q 1351 46 1263 46 q 1682 258 1601 46 l 1701 250 q 1534 47 1646 122 q 1271 -28 1422 -28 q 930 114 1058 -28 q 794 469 801 256 l 781 410 q 393 -28 678 -28 q 171 59 258 -28 q 83 281 83 146 m 851 754 q 748 717 817 733 q 612 688 679 700 q 469 647 544 676 q 337 577 393 618 q 243 458 281 536 q 206 272 206 379 q 269 90 206 163 q 433 18 332 18 q 653 155 554 18 q 799 567 753 292 q 851 754 811 667 z "},"":{"ha":1018,"x_min":83,"x_max":990,"o":"m 83 492 q 213 863 83 714 q 560 1011 342 1011 q 760 987 664 1011 q 900 939 857 963 l 944 914 l 944 750 l 939 750 q 776 928 883 863 q 557 994 669 994 q 383 945 457 994 q 272 817 310 896 q 218 658 235 739 q 203 496 201 576 q 315 157 206 294 q 610 19 425 19 q 737 40 671 19 q 871 118 803 61 q 971 258 939 175 l 990 250 q 824 49 935 124 q 563 -28 713 -26 l 518 -112 q 575 -93 544 -93 q 658 -150 642 -93 q 633 -249 676 -204 q 531 -287 594 -287 q 485 -272 503 -287 l 490 -261 q 522 -269 500 -269 q 606 -210 583 -269 q 599 -125 625 -157 q 563 -110 585 -110 q 515 -129 538 -110 l 504 -112 l 549 -28 q 210 124 336 -24 q 83 492 83 272 z "},"":{"ha":1074,"x_min":83,"x_max":990,"o":"m 213 121 q 148 195 213 121 q 83 492 83 269 q 213 863 83 714 q 560 1011 342 1011 q 751 982 667 1011 q 885 905 836 953 q 960 803 935 857 q 985 694 985 750 q 918 510 983 576 q 733 443 853 443 q 560 474 638 443 q 421 536 482 506 q 306 567 360 567 q 263 554 283 567 q 238 532 242 542 l 232 533 q 271 612 232 579 q 378 644 310 644 q 481 615 426 644 q 574 552 535 586 q 660 489 613 518 q 743 460 707 460 q 863 556 824 460 q 863 783 903 661 q 679 975 814 926 q 557 994 624 994 q 383 945 457 994 q 272 817 310 896 q 218 658 235 739 q 203 496 201 576 q 315 157 206 294 q 610 19 425 19 q 737 40 671 19 q 871 118 803 61 q 971 258 939 175 l 990 250 q 823 47 935 122 q 560 -28 711 -28 q 213 121 342 -28 m 436 1189 q 447 1215 436 1204 q 475 1226 457 1226 q 515 1208 496 1226 q 547 1167 533 1189 q 590 1127 560 1146 q 660 1108 619 1108 l 704 1108 l 704 1094 l 599 1094 q 489 1122 542 1094 q 436 1189 436 1149 z "},"":{"ha":1074,"x_min":83,"x_max":990,"o":"m 560 -28 q 213 121 342 -28 q 83 492 83 269 q 213 863 83 714 q 560 1011 342 1011 q 751 982 667 1011 q 885 905 836 953 q 960 803 935 857 q 985 694 985 750 q 918 510 983 576 q 733 443 853 443 q 560 474 638 443 q 421 536 482 506 q 306 567 360 567 q 263 554 283 567 q 238 532 242 542 l 232 533 q 271 612 232 579 q 378 644 310 644 q 481 615 426 644 q 574 552 535 586 q 660 489 613 518 q 743 460 707 460 q 863 556 824 460 q 863 783 903 661 q 679 975 814 926 q 557 994 624 994 q 383 945 457 994 q 272 817 310 896 q 218 658 235 739 q 203 496 201 576 q 315 157 206 294 q 610 19 425 19 q 737 40 671 19 q 871 118 803 61 q 971 258 939 175 l 990 250 q 823 47 935 122 q 560 -28 711 -28 m 436 1094 l 436 1108 l 481 1108 q 551 1127 521 1108 q 594 1167 581 1146 q 626 1208 607 1189 q 665 1226 644 1226 q 694 1215 683 1226 q 704 1189 704 1204 q 651 1122 704 1149 q 542 1094 599 1094 l 436 1094 z "},"":{"ha":1074,"x_min":83,"x_max":990,"o":"m 560 -28 q 213 121 342 -28 q 83 492 83 269 q 213 863 83 714 q 560 1011 342 1011 q 751 982 667 1011 q 885 905 836 953 q 960 803 935 857 q 985 694 985 750 q 918 510 983 576 q 733 443 853 443 q 560 474 638 443 q 421 536 482 506 q 306 567 360 567 q 263 554 283 567 q 238 532 242 542 l 232 533 q 271 612 232 579 q 378 644 310 644 q 481 615 426 644 q 574 552 535 586 q 660 489 613 518 q 743 460 707 460 q 863 556 824 460 q 863 783 903 661 q 679 975 814 926 q 557 994 624 994 q 383 945 457 994 q 272 817 310 896 q 218 658 235 739 q 203 496 201 576 q 315 157 206 294 q 610 19 425 19 q 737 40 671 19 q 871 118 803 61 q 971 258 939 175 l 990 250 q 823 47 935 122 q 560 -28 711 -28 m 422 1094 l 414 1108 l 567 1228 l 728 1108 l 719 1094 l 571 1158 l 422 1094 z "},"":{"ha":1074,"x_min":83,"x_max":990,"o":"m 213 121 q 148 195 213 121 q 83 492 83 269 q 213 863 83 714 q 560 1011 342 1011 q 751 982 667 1011 q 885 905 836 953 q 960 803 935 857 q 985 694 985 750 q 918 510 983 576 q 733 443 853 443 q 560 474 638 443 q 421 536 482 506 q 306 567 360 567 q 263 554 283 567 q 238 532 242 542 l 232 533 q 271 612 232 579 q 378 644 310 644 q 481 615 426 644 q 574 552 535 586 q 660 489 613 518 q 743 460 707 460 q 863 556 824 460 q 863 783 903 661 q 679 975 814 926 q 557 994 624 994 q 383 945 457 994 q 272 817 310 896 q 218 658 235 739 q 203 496 201 576 q 315 157 206 294 q 610 19 425 19 q 737 40 671 19 q 871 118 803 61 q 971 258 939 175 l 990 250 q 823 47 935 122 q 560 -28 711 -28 q 213 121 342 -28 m 640 1094 q 612 1106 624 1094 q 600 1136 600 1118 q 612 1165 600 1153 q 640 1176 624 1176 q 670 1165 658 1176 q 682 1136 682 1153 q 670 1106 682 1118 q 640 1094 658 1094 m 497 1094 q 467 1106 479 1094 q 456 1136 456 1118 q 467 1165 456 1153 q 497 1176 479 1176 q 526 1165 514 1176 q 538 1136 538 1153 q 526 1106 538 1118 q 497 1094 514 1094 z "},"":{"ha":458,"x_min":42,"x_max":417,"o":"m 42 0 l 42 14 q 148 89 126 14 q 169 386 169 164 l 169 597 q 148 894 169 819 q 42 969 126 969 l 42 983 l 289 983 l 289 386 q 310 89 289 164 q 417 14 332 14 l 417 0 l 42 0 m 82 1189 q 92 1215 82 1204 q 121 1226 103 1226 q 160 1208 142 1226 q 192 1167 179 1189 q 235 1127 206 1146 q 306 1108 265 1108 l 350 1108 l 350 1094 l 244 1094 q 135 1122 188 1094 q 82 1189 82 1149 z "},"":{"ha":458,"x_min":42,"x_max":417,"o":"m 42 969 l 42 983 l 289 983 l 289 386 q 310 89 289 164 q 417 14 332 14 l 417 0 l 42 0 l 42 14 q 148 89 126 14 q 169 386 169 164 l 169 597 q 148 894 169 819 q 42 969 126 969 m 82 1108 l 126 1108 q 197 1127 167 1108 q 240 1167 226 1146 q 272 1208 253 1189 q 311 1226 290 1226 q 340 1215 329 1226 q 350 1189 350 1204 q 297 1122 350 1149 q 188 1094 244 1094 l 82 1094 l 82 1108 z "},"":{"ha":458,"x_min":42,"x_max":417,"o":"m 42 983 l 289 983 l 289 386 q 310 89 289 164 q 417 14 332 14 l 417 0 l 42 0 l 42 14 q 148 89 126 14 q 169 386 169 164 l 169 597 q 148 894 169 819 q 42 969 126 969 l 42 983 m 68 1094 l 60 1108 l 213 1228 l 374 1108 l 365 1094 l 217 1158 l 68 1094 z "},"":{"ha":458,"x_min":42,"x_max":417,"o":"m 417 0 l 42 0 l 42 14 q 148 89 126 14 q 169 386 169 164 l 169 597 q 148 894 169 819 q 42 969 126 969 l 42 983 l 289 983 l 289 386 q 310 89 289 164 q 417 14 332 14 l 417 0 m 143 1094 q 113 1106 125 1094 q 101 1136 101 1118 q 113 1165 101 1153 q 143 1176 125 1176 q 172 1165 160 1176 q 183 1136 183 1153 q 172 1106 183 1118 q 143 1094 160 1094 m 246 1136 q 258 1165 246 1153 q 286 1176 269 1176 q 316 1165 304 1176 q 328 1136 328 1153 q 316 1106 328 1118 q 286 1094 304 1094 q 258 1106 269 1094 q 246 1136 246 1118 z "},"":{"ha":840,"x_min":0,"x_max":0,"o":""},"":{"ha":1093,"x_min":42,"x_max":1065,"o":"m 42 14 q 148 89 126 14 q 169 386 169 164 l 169 597 q 148 894 169 819 q 42 969 126 969 l 42 983 l 200 983 q 397 997 261 983 q 567 1011 532 1011 q 938 701 938 1011 l 938 386 q 959 89 938 164 q 1065 14 981 14 l 1065 0 l 690 0 l 690 14 q 797 89 775 14 q 818 386 818 164 l 817 672 q 792 825 817 761 q 735 920 767 889 q 653 969 703 951 q 574 989 604 986 q 504 992 544 992 q 289 951 403 992 l 289 386 q 310 89 289 164 q 417 14 332 14 l 417 0 l 42 0 l 42 14 m 357 1115 q 387 1155 363 1135 q 449 1175 411 1175 q 531 1156 482 1175 q 611 1136 581 1136 q 656 1143 639 1136 q 675 1157 672 1150 l 679 1164 l 688 1160 q 653 1113 679 1131 q 590 1094 628 1094 q 513 1115 561 1094 q 424 1135 465 1135 q 364 1111 381 1135 l 357 1115 z "},"":{"ha":1122,"x_min":83,"x_max":1039,"o":"m 908 122 q 843 47 908 122 q 560 -28 778 -28 q 213 121 342 -28 q 83 492 83 269 q 213 863 83 714 q 560 1011 342 1011 q 908 862 778 1011 q 1039 492 1039 713 q 908 122 1039 271 m 822 857 q 772 926 822 857 q 560 994 722 994 q 299 858 397 994 q 201 492 201 721 q 299 126 201 263 q 560 -11 397 -11 q 822 126 722 -11 q 921 492 921 264 q 822 857 921 719 m 425 1189 q 435 1215 425 1204 q 464 1226 446 1226 q 503 1208 485 1226 q 535 1167 522 1189 q 578 1127 549 1146 q 649 1108 608 1108 l 693 1108 l 693 1094 l 588 1094 q 478 1122 531 1094 q 425 1189 425 1149 z "},"":{"ha":1122,"x_min":83,"x_max":1039,"o":"m 908 122 q 843 47 908 122 q 560 -28 778 -28 q 213 121 342 -28 q 83 492 83 269 q 213 863 83 714 q 560 1011 342 1011 q 908 862 778 1011 q 1039 492 1039 713 q 908 122 1039 271 m 822 857 q 772 926 822 857 q 560 994 722 994 q 299 858 397 994 q 201 492 201 721 q 299 126 201 263 q 560 -11 397 -11 q 822 126 722 -11 q 921 492 921 264 q 822 857 921 719 m 425 1108 l 469 1108 q 540 1127 510 1108 q 583 1167 569 1146 q 615 1208 596 1189 q 654 1226 633 1226 q 683 1215 672 1226 q 693 1189 693 1204 q 640 1122 693 1149 q 531 1094 588 1094 l 425 1094 l 425 1108 z "},"":{"ha":1122,"x_min":83,"x_max":1039,"o":"m 908 122 q 843 47 908 122 q 560 -28 778 -28 q 213 121 342 -28 q 83 492 83 269 q 213 863 83 714 q 560 1011 342 1011 q 908 862 778 1011 q 1039 492 1039 713 q 908 122 1039 271 m 822 857 q 772 926 822 857 q 560 994 722 994 q 299 858 397 994 q 201 492 201 721 q 299 126 201 263 q 560 -11 397 -11 q 822 126 722 -11 q 921 492 921 264 q 822 857 921 719 m 411 1094 l 403 1108 l 556 1228 l 717 1108 l 708 1094 l 560 1158 l 411 1094 z "},"":{"ha":1122,"x_min":83,"x_max":1039,"o":"m 908 122 q 843 47 908 122 q 560 -28 778 -28 q 213 121 342 -28 q 83 492 83 269 q 213 863 83 714 q 560 1011 342 1011 q 908 862 778 1011 q 1039 492 1039 713 q 908 122 1039 271 m 299 858 q 250 789 299 858 q 201 492 201 721 q 299 126 201 263 q 560 -11 397 -11 q 822 126 722 -11 q 921 492 921 264 q 822 857 921 719 q 560 994 722 994 q 299 858 397 994 m 394 1115 q 424 1155 400 1135 q 486 1175 449 1175 q 569 1156 519 1175 q 649 1136 618 1136 q 693 1143 676 1136 q 714 1157 710 1150 l 717 1164 l 725 1160 q 691 1113 717 1131 q 628 1094 665 1094 q 551 1115 600 1094 q 461 1135 503 1135 q 401 1111 418 1135 l 394 1115 z "},"":{"ha":1122,"x_min":83,"x_max":1039,"o":"m 908 122 q 843 47 908 122 q 560 -28 778 -28 q 213 121 342 -28 q 83 492 83 269 q 213 863 83 714 q 560 1011 342 1011 q 908 862 778 1011 q 1039 492 1039 713 q 908 122 1039 271 m 299 858 q 250 789 299 858 q 201 492 201 721 q 299 126 201 263 q 560 -11 397 -11 q 822 126 722 -11 q 921 492 921 264 q 822 857 921 719 q 560 994 722 994 q 299 858 397 994 m 589 1136 q 601 1165 589 1153 q 631 1176 613 1176 q 659 1165 647 1176 q 671 1136 671 1153 q 659 1106 671 1118 q 631 1094 647 1094 q 601 1106 613 1094 q 589 1136 589 1118 m 444 1136 q 456 1165 444 1153 q 486 1176 468 1176 q 515 1165 503 1176 q 526 1136 526 1153 q 515 1106 526 1118 q 486 1094 503 1094 q 456 1106 468 1094 q 444 1136 444 1118 z "},"":{"ha":861,"x_min":83,"x_max":778,"o":"m 102 657 q 93 664 102 657 q 83 696 83 671 q 102 735 83 721 q 150 749 121 749 q 276 725 172 749 q 431 701 381 701 q 585 725 481 701 q 711 749 689 749 q 759 735 740 749 q 778 696 778 721 q 759 657 778 671 q 711 643 740 643 q 585 667 689 643 q 431 690 481 690 q 276 667 381 690 q 150 643 172 643 q 102 657 121 643 m 365 387 q 351 400 365 387 q 338 453 338 414 q 365 519 338 492 q 431 546 392 546 q 497 519 469 546 q 524 453 524 492 q 497 387 524 414 q 431 360 469 360 q 365 387 392 360 m 497 883 q 483 869 497 883 q 431 856 469 856 q 365 883 392 856 q 338 949 338 910 q 365 1015 338 988 q 431 1042 392 1042 q 497 1015 469 1042 q 524 949 524 988 q 497 883 524 910 z "},"":{"ha":1122,"x_min":83,"x_max":1039,"o":"m 249 85 q 83 492 83 233 q 213 863 83 714 q 560 1011 342 1011 q 829 932 713 1011 l 883 1011 l 897 1011 l 838 925 q 986 742 933 856 q 1039 492 1039 628 q 908 122 1039 271 q 560 -28 778 -28 q 257 78 381 -28 l 185 -28 l 171 -28 l 249 85 m 806 878 l 294 133 q 560 -11 392 -11 q 822 126 722 -11 q 921 492 921 264 q 806 878 921 738 m 288 143 l 797 888 q 560 994 701 994 q 299 858 397 994 q 201 492 201 721 q 288 143 201 276 z "},"":{"ha":1079,"x_min":28,"x_max":1051,"o":"m 28 969 l 28 983 l 275 983 l 276 311 q 301 158 276 222 q 358 63 326 94 q 440 15 390 32 q 519 -6 489 -3 q 589 -8 549 -8 q 804 32 690 -8 l 804 597 q 783 894 804 819 q 676 969 761 969 l 676 983 l 924 983 l 924 386 q 945 89 924 164 q 1051 14 967 14 l 1051 0 l 893 0 q 697 -14 832 0 q 526 -28 561 -28 q 156 282 156 -28 l 156 597 q 134 894 156 819 q 28 969 113 969 m 539 1094 q 429 1122 482 1094 q 376 1189 376 1149 q 387 1215 376 1204 q 415 1226 397 1226 q 455 1208 436 1226 q 487 1167 474 1189 q 530 1127 500 1146 q 600 1108 560 1108 l 644 1108 l 644 1094 l 539 1094 z "},"":{"ha":1079,"x_min":28,"x_max":1051,"o":"m 28 969 l 28 983 l 275 983 l 276 311 q 301 158 276 222 q 358 63 326 94 q 440 15 390 32 q 519 -6 489 -3 q 589 -8 549 -8 q 804 32 690 -8 l 804 597 q 783 894 804 819 q 676 969 761 969 l 676 983 l 924 983 l 924 386 q 945 89 924 164 q 1051 14 967 14 l 1051 0 l 893 0 q 697 -14 832 0 q 526 -28 561 -28 q 156 282 156 -28 l 156 597 q 134 894 156 819 q 28 969 113 969 m 482 1094 l 376 1094 l 376 1108 l 421 1108 q 491 1127 461 1108 q 534 1167 521 1146 q 566 1208 547 1189 q 606 1226 585 1226 q 634 1215 624 1226 q 644 1189 644 1204 q 592 1122 644 1149 q 482 1094 539 1094 z "},"":{"ha":1079,"x_min":28,"x_max":1051,"o":"m 28 969 l 28 983 l 275 983 l 276 311 q 301 158 276 222 q 358 63 326 94 q 440 15 390 32 q 519 -6 489 -3 q 589 -8 549 -8 q 804 32 690 -8 l 804 597 q 783 894 804 819 q 676 969 761 969 l 676 983 l 924 983 l 924 386 q 945 89 924 164 q 1051 14 967 14 l 1051 0 l 893 0 q 697 -14 832 0 q 526 -28 561 -28 q 156 282 156 -28 l 156 597 q 134 894 156 819 q 28 969 113 969 m 363 1094 l 354 1108 l 507 1228 l 668 1108 l 660 1094 l 511 1158 l 363 1094 z "},"":{"ha":1079,"x_min":28,"x_max":1051,"o":"m 28 969 l 28 983 l 275 983 l 276 311 q 301 158 276 222 q 358 63 326 94 q 440 15 390 32 q 519 -6 489 -3 q 589 -8 549 -8 q 804 32 690 -8 l 804 597 q 783 894 804 819 q 676 969 761 969 l 676 983 l 924 983 l 924 386 q 945 89 924 164 q 1051 14 967 14 l 1051 0 l 893 0 q 697 -14 832 0 q 526 -28 561 -28 q 156 282 156 -28 l 156 597 q 134 894 156 819 q 28 969 113 969 m 539 1136 q 551 1165 539 1153 q 581 1176 564 1176 q 609 1165 597 1176 q 621 1136 621 1153 q 609 1106 621 1118 q 581 1094 597 1094 q 551 1106 564 1094 q 539 1136 539 1118 m 396 1136 q 408 1165 396 1153 q 436 1176 419 1176 q 465 1165 453 1176 q 478 1136 478 1153 q 465 1106 478 1118 q 436 1094 453 1094 q 408 1106 419 1094 q 396 1136 396 1118 z "},"":{"ha":1017,"x_min":0,"x_max":1017,"o":"m 0 983 l 171 983 q 288 872 253 983 q 351 665 314 789 q 422 432 388 540 q 493 204 456 324 q 594 83 529 92 q 776 668 729 506 q 797 764 790 718 q 799 860 803 810 q 767 940 796 910 q 682 969 738 969 l 651 969 l 651 983 l 1017 983 l 1017 969 l 993 969 q 803 699 888 969 q 715 414 799 686 q 576 -28 631 142 q 257 -576 383 -576 l 69 -576 l 69 -562 q 254 -476 150 -562 q 442 -265 358 -389 q 560 -28 525 -142 q 523 -19 543 -28 q 476 13 503 -10 q 419 84 449 35 q 368 204 390 133 q 266 531 325 338 q 193 771 207 725 q 176 826 182 808 q 154 876 169 843 q 124 926 139 910 q 86 956 110 942 q 33 969 63 969 l 0 969 l 0 983 m 351 1108 l 396 1108 q 466 1127 436 1108 q 509 1167 496 1146 q 541 1208 522 1189 q 581 1226 560 1226 q 609 1215 599 1226 q 619 1189 619 1204 q 567 1122 619 1149 q 457 1094 514 1094 l 351 1094 l 351 1108 z "},"":{"ha":1017,"x_min":0,"x_max":1017,"o":"m 0 983 l 171 983 q 288 872 253 983 q 351 665 314 789 q 422 432 388 540 q 493 204 456 324 q 594 83 529 92 q 776 668 729 506 q 797 764 790 718 q 799 860 803 810 q 767 940 796 910 q 682 969 738 969 l 651 969 l 651 983 l 1017 983 l 1017 969 l 993 969 q 803 699 888 969 q 715 414 799 686 q 576 -28 631 142 q 257 -576 383 -576 l 69 -576 l 69 -562 q 254 -476 150 -562 q 442 -265 358 -389 q 560 -28 525 -142 q 523 -19 543 -28 q 476 13 503 -10 q 419 84 449 35 q 368 204 390 133 q 266 531 325 338 q 193 771 207 725 q 176 826 182 808 q 154 876 169 843 q 124 926 139 910 q 86 956 110 942 q 33 969 63 969 l 0 969 l 0 983 m 371 1136 q 383 1165 371 1153 q 413 1176 396 1176 q 442 1165 429 1176 q 454 1136 454 1153 q 442 1106 454 1118 q 413 1094 429 1094 q 383 1106 396 1094 q 371 1136 371 1118 m 515 1136 q 527 1165 515 1153 q 557 1176 539 1176 q 585 1165 574 1176 q 597 1136 597 1153 q 585 1106 597 1118 q 557 1094 574 1094 q 527 1106 539 1094 q 515 1136 515 1118 z "},"":{"ha":1217,"x_min":42,"x_max":1217,"o":"m 42 243 q 83 397 42 324 q 185 523 124 471 q 319 625 247 575 q 453 712 392 675 q 556 788 515 749 q 597 860 597 826 q 564 897 597 897 q 517 874 542 897 q 475 824 493 851 q 430 774 457 797 q 376 751 403 751 q 340 774 349 751 q 344 825 332 797 q 451 1109 382 925 q 568 1417 521 1293 l 582 1417 l 1026 243 q 1117 67 1076 119 q 1217 14 1157 14 l 1217 0 l 761 0 l 761 14 q 872 33 832 14 q 922 88 913 51 q 926 167 932 125 q 897 267 919 208 l 725 721 q 733 554 733 654 q 615 134 733 296 q 294 -28 497 -28 q 110 51 178 -28 q 42 243 42 129 m 160 269 q 219 104 160 169 q 378 39 278 39 q 568 122 488 39 q 684 317 649 204 q 719 551 719 431 q 690 813 719 717 l 522 1256 l 363 831 q 378 765 339 765 q 436 802 404 765 q 502 875 468 839 q 567 911 536 911 q 613 857 613 911 q 588 784 613 819 q 523 719 563 749 q 435 656 483 689 q 338 585 386 624 q 249 503 289 547 q 185 399 210 460 q 160 269 160 339 m 425 1531 l 724 1531 l 724 1500 l 425 1500 l 425 1531 z "},"":{"ha":1036,"x_min":83,"x_max":1008,"o":"m 393 -28 q 171 59 258 -28 q 83 281 83 146 q 122 453 83 381 q 223 565 161 525 q 360 633 285 606 q 510 677 435 660 q 647 713 585 694 q 747 762 708 731 q 786 839 786 793 q 713 957 786 917 q 543 997 639 997 q 358 957 433 997 q 283 836 283 917 q 295 793 283 811 q 319 772 307 775 q 339 772 332 768 q 323 717 349 742 q 261 692 297 692 q 189 724 217 692 q 161 803 161 757 q 267 957 161 903 q 543 1011 374 1011 q 789 962 674 1011 q 904 836 904 913 q 874 770 904 797 q 795 730 844 743 q 683 702 746 717 q 555 674 621 688 q 426 631 489 661 q 315 558 364 600 q 235 443 265 517 q 206 272 206 369 q 269 90 206 163 q 433 18 332 18 q 551 49 493 18 q 660 144 608 81 q 742 320 711 208 q 774 576 774 432 q 750 644 774 638 q 761 658 750 651 q 788 664 772 664 q 848 647 824 664 q 883 596 872 629 q 898 529 894 563 q 901 447 901 496 q 902 310 901 389 q 903 156 903 232 q 936 46 903 78 q 1008 14 969 14 l 1008 0 l 910 0 q 815 48 853 0 q 778 172 778 96 l 778 410 q 730 240 757 313 q 659 103 703 167 q 548 6 615 39 q 393 -28 481 -28 m 394 1094 l 394 1125 l 693 1125 l 693 1094 l 394 1094 z "},"":{"ha":1217,"x_min":42,"x_max":1217,"o":"m 42 243 q 83 397 42 324 q 185 523 124 471 q 319 625 247 575 q 453 712 392 675 q 556 788 515 749 q 597 860 597 826 q 564 897 597 897 q 517 874 542 897 q 475 824 493 851 q 430 774 457 797 q 376 751 403 751 q 340 774 349 751 q 344 825 332 797 q 451 1109 382 925 q 568 1417 521 1293 l 582 1417 l 1026 243 q 1117 67 1076 119 q 1217 14 1157 14 l 1217 0 l 761 0 l 761 14 q 872 33 832 14 q 922 88 913 51 q 926 167 932 125 q 897 267 919 208 l 725 721 q 733 554 733 654 q 615 134 733 296 q 294 -28 497 -28 q 110 51 178 -28 q 42 243 42 129 m 160 269 q 219 104 160 169 q 378 39 278 39 q 568 122 488 39 q 684 317 649 204 q 719 551 719 431 q 690 813 719 717 l 522 1256 l 363 831 q 378 765 339 765 q 436 802 404 765 q 502 875 468 839 q 567 911 536 911 q 613 857 613 911 q 588 784 613 819 q 523 719 563 749 q 435 656 483 689 q 338 585 386 624 q 249 503 289 547 q 185 399 210 460 q 160 269 160 339 m 575 1500 q 475 1535 518 1500 q 422 1619 432 1569 l 433 1619 q 575 1542 481 1542 q 715 1619 668 1542 l 728 1619 q 674 1535 717 1569 q 575 1500 631 1500 z "},"":{"ha":1036,"x_min":83,"x_max":1008,"o":"m 83 281 q 122 453 83 381 q 223 565 161 525 q 360 633 285 606 q 510 677 435 660 q 647 713 585 694 q 747 762 708 731 q 786 839 786 793 q 713 957 786 917 q 543 997 639 997 q 358 957 433 997 q 283 836 283 917 q 295 793 283 811 q 319 772 307 775 q 339 772 332 768 q 323 717 349 742 q 261 692 297 692 q 189 724 217 692 q 161 803 161 757 q 267 957 161 903 q 543 1011 374 1011 q 789 962 674 1011 q 904 836 904 913 q 874 770 904 797 q 795 730 844 743 q 683 702 746 717 q 555 674 621 688 q 426 631 489 661 q 315 558 364 600 q 235 443 265 517 q 206 272 206 369 q 269 90 206 163 q 433 18 332 18 q 551 49 493 18 q 660 144 608 81 q 742 320 711 208 q 774 576 774 432 q 750 644 774 638 q 761 658 750 651 q 788 664 772 664 q 848 647 824 664 q 883 596 872 629 q 898 529 894 563 q 901 447 901 496 q 902 310 901 389 q 903 156 903 232 q 936 46 903 78 q 1008 14 969 14 l 1008 0 l 910 0 q 815 48 853 0 q 778 172 778 96 l 778 410 q 730 240 757 313 q 659 103 703 167 q 548 6 615 39 q 393 -28 481 -28 q 171 59 258 -28 q 83 281 83 146 m 390 1214 l 403 1214 q 543 1136 450 1136 q 683 1214 636 1136 l 696 1214 q 642 1129 686 1164 q 543 1094 599 1094 q 444 1129 488 1094 q 390 1214 400 1164 z "},"":{"ha":1217,"x_min":42,"x_max":1217,"o":"m 42 243 q 83 397 42 324 q 185 523 124 471 q 319 625 247 575 q 453 712 392 675 q 556 788 515 749 q 597 860 597 826 q 564 897 597 897 q 517 874 542 897 q 475 824 493 851 q 430 774 457 797 q 376 751 403 751 q 340 774 349 751 q 344 825 332 797 q 451 1109 382 925 q 568 1417 521 1293 l 582 1417 l 1026 243 q 1117 67 1076 119 q 1217 14 1157 14 l 1217 0 l 1013 0 q 922 -35 957 0 q 888 -115 888 -69 q 904 -180 888 -154 q 956 -206 921 -206 q 985 -192 974 -206 q 988 -164 996 -179 l 990 -161 q 1013 -193 1013 -168 q 994 -239 1013 -221 q 943 -257 975 -257 q 874 -226 900 -257 q 847 -154 847 -194 q 883 -59 847 -103 q 971 0 919 -15 l 761 0 l 761 14 q 872 33 832 14 q 922 88 913 51 q 926 167 932 125 q 897 267 919 208 l 725 721 q 733 554 733 654 q 615 134 733 296 q 294 -28 497 -28 q 110 51 178 -28 q 42 243 42 129 m 160 269 q 219 104 160 169 q 378 39 278 39 q 568 122 488 39 q 684 317 649 204 q 719 551 719 431 q 690 813 719 717 l 522 1256 l 363 831 q 378 765 339 765 q 436 802 404 765 q 502 875 468 839 q 567 911 536 911 q 613 857 613 911 q 588 784 613 819 q 523 719 563 749 q 435 656 483 689 q 338 585 386 624 q 249 503 289 547 q 185 399 210 460 q 160 269 160 339 z "},"":{"ha":1036,"x_min":83,"x_max":1008,"o":"m 83 281 q 122 453 83 381 q 223 565 161 525 q 360 633 285 606 q 510 677 435 660 q 647 713 585 694 q 747 762 708 731 q 786 839 786 793 q 713 957 786 917 q 543 997 639 997 q 358 957 433 997 q 283 836 283 917 q 295 793 283 811 q 319 772 307 775 q 339 772 332 768 q 323 717 349 742 q 261 692 297 692 q 189 724 217 692 q 161 803 161 757 q 267 957 161 903 q 543 1011 374 1011 q 789 962 674 1011 q 904 836 904 913 q 874 770 904 797 q 795 730 844 743 q 683 702 746 717 q 555 674 621 688 q 426 631 489 661 q 315 558 364 600 q 235 443 265 517 q 206 272 206 369 q 269 90 206 163 q 433 18 332 18 q 551 49 493 18 q 660 144 608 81 q 742 320 711 208 q 774 576 774 432 q 750 644 774 638 q 761 658 750 651 q 788 664 772 664 q 848 647 824 664 q 883 596 872 629 q 898 529 894 563 q 901 447 901 496 q 902 310 901 389 q 903 156 903 232 q 936 46 903 78 q 1008 14 969 14 l 1008 0 l 918 0 q 828 -35 863 0 q 793 -115 793 -69 q 810 -180 793 -154 q 861 -206 826 -206 q 890 -192 879 -206 q 893 -164 901 -179 l 896 -161 q 918 -193 918 -168 q 899 -239 918 -221 q 849 -257 881 -257 q 779 -226 806 -257 q 753 -154 753 -194 q 792 -55 753 -100 q 886 3 832 -10 q 808 58 838 13 q 778 172 778 104 l 778 410 q 730 240 757 313 q 659 103 703 167 q 548 6 615 39 q 393 -28 481 -28 q 171 59 258 -28 q 83 281 83 146 z "},"":{"ha":1156,"x_min":83,"x_max":1128,"o":"m 262 178 q 173 282 262 178 q 83 694 83 385 q 262 1210 83 1004 q 701 1417 440 1417 q 901 1390 815 1417 q 1035 1318 988 1363 q 1105 1225 1082 1274 q 1128 1125 1128 1176 q 1099 995 1128 1057 q 1026 889 1069 933 q 931 800 982 844 q 837 722 881 756 q 764 647 793 688 q 735 568 735 607 q 776 478 735 514 q 690 510 724 467 q 656 607 656 553 q 696 735 656 675 q 793 842 736 796 q 908 931 850 888 q 1006 1028 965 975 q 1046 1136 1046 1081 q 959 1331 1046 1263 q 701 1400 872 1400 q 347 1200 486 1400 q 208 694 208 1000 q 353 192 208 394 q 701 -11 497 -11 q 860 13 788 -11 q 975 72 933 38 q 1046 140 1017 106 q 1086 197 1075 174 l 1097 222 l 1113 222 l 1113 36 q 701 -28 915 -28 q 262 178 440 -28 m 550 1514 l 594 1514 q 665 1533 635 1514 q 708 1573 694 1551 q 740 1613 721 1594 q 779 1632 758 1632 q 808 1621 797 1632 q 818 1594 818 1610 q 765 1527 818 1554 q 656 1500 713 1500 l 550 1500 l 550 1514 z "},"":{"ha":1018,"x_min":83,"x_max":990,"o":"m 213 121 q 148 195 213 121 q 83 492 83 269 q 213 863 83 714 q 560 1011 342 1011 q 760 987 664 1011 q 900 939 857 963 l 944 914 l 944 750 l 939 750 q 776 928 883 863 q 557 994 669 994 q 383 945 457 994 q 272 817 310 896 q 218 658 235 739 q 203 496 201 576 q 315 157 206 294 q 610 19 425 19 q 737 40 671 19 q 871 118 803 61 q 971 258 939 175 l 990 250 q 823 47 935 122 q 560 -28 711 -28 q 213 121 342 -28 m 525 1094 l 419 1094 l 419 1108 l 464 1108 q 534 1127 504 1108 q 577 1167 564 1146 q 609 1208 590 1189 q 649 1226 628 1226 q 677 1215 667 1226 q 688 1189 688 1204 q 635 1122 688 1149 q 525 1094 582 1094 z "},"":{"ha":1156,"x_min":83,"x_max":1128,"o":"m 262 178 q 173 282 262 178 q 83 694 83 385 q 262 1210 83 1004 q 701 1417 440 1417 q 901 1390 815 1417 q 1035 1318 988 1363 q 1105 1225 1082 1274 q 1128 1125 1128 1176 q 1099 995 1128 1057 q 1026 889 1069 933 q 931 800 982 844 q 837 722 881 756 q 764 647 793 688 q 735 568 735 607 q 776 478 735 514 q 690 510 724 467 q 656 607 656 553 q 696 735 656 675 q 793 842 736 796 q 908 931 850 888 q 1006 1028 965 975 q 1046 1136 1046 1081 q 959 1331 1046 1263 q 701 1400 872 1400 q 347 1200 486 1400 q 208 694 208 1000 q 353 192 208 394 q 701 -11 497 -11 q 860 13 788 -11 q 975 72 933 38 q 1046 140 1017 106 q 1086 197 1075 174 l 1097 222 l 1113 222 l 1113 36 q 701 -28 915 -28 q 262 178 440 -28 m 536 1500 l 528 1514 l 681 1633 l 842 1514 l 833 1500 l 685 1564 l 536 1500 z "},"":{"ha":1018,"x_min":83,"x_max":990,"o":"m 213 121 q 148 195 213 121 q 83 492 83 269 q 213 863 83 714 q 560 1011 342 1011 q 760 987 664 1011 q 900 939 857 963 l 944 914 l 944 750 l 939 750 q 776 928 883 863 q 557 994 669 994 q 383 945 457 994 q 272 817 310 896 q 218 658 235 739 q 203 496 201 576 q 315 157 206 294 q 610 19 425 19 q 737 40 671 19 q 871 118 803 61 q 971 258 939 175 l 990 250 q 823 47 935 122 q 560 -28 711 -28 q 213 121 342 -28 m 406 1094 l 397 1108 l 550 1228 l 711 1108 l 703 1094 l 554 1158 l 406 1094 z "},"":{"ha":1156,"x_min":83,"x_max":1128,"o":"m 701 -28 q 262 178 440 -28 q 83 694 83 385 q 262 1210 83 1004 q 701 1417 440 1417 q 901 1390 815 1417 q 1035 1318 988 1363 q 1105 1225 1082 1274 q 1128 1125 1128 1176 q 1099 995 1128 1057 q 1026 889 1069 933 q 931 800 982 844 q 837 722 881 756 q 764 647 793 688 q 735 568 735 607 q 776 478 735 514 q 690 510 724 467 q 656 607 656 553 q 696 735 656 675 q 793 842 736 796 q 908 931 850 888 q 1006 1028 965 975 q 1046 1136 1046 1081 q 959 1331 1046 1263 q 701 1400 872 1400 q 347 1200 486 1400 q 208 694 208 1000 q 353 192 208 394 q 701 -11 497 -11 q 860 13 788 -11 q 975 72 933 38 q 1046 140 1017 106 q 1086 197 1075 174 l 1097 222 l 1113 222 l 1113 36 q 701 -28 915 -28 m 642 1517 q 634 1526 642 1517 q 625 1560 625 1535 q 642 1603 625 1585 q 685 1621 660 1621 q 727 1603 710 1621 q 744 1560 744 1585 q 727 1517 744 1535 q 685 1500 710 1500 q 642 1517 660 1500 z "},"":{"ha":1018,"x_min":83,"x_max":990,"o":"m 213 121 q 148 195 213 121 q 83 492 83 269 q 213 863 83 714 q 560 1011 342 1011 q 760 987 664 1011 q 900 939 857 963 l 944 914 l 944 750 l 939 750 q 776 928 883 863 q 557 994 669 994 q 383 945 457 994 q 272 817 310 896 q 218 658 235 739 q 203 496 201 576 q 315 157 206 294 q 610 19 425 19 q 737 40 671 19 q 871 118 803 61 q 971 258 939 175 l 990 250 q 823 47 935 122 q 560 -28 711 -28 q 213 121 342 -28 m 597 1112 q 588 1103 597 1112 q 554 1094 579 1094 q 512 1112 529 1094 q 494 1154 494 1129 q 512 1197 494 1179 q 554 1215 529 1215 q 597 1197 579 1215 q 614 1154 614 1179 q 597 1112 614 1129 z "},"":{"ha":1156,"x_min":83,"x_max":1128,"o":"m 701 -28 q 262 178 440 -28 q 83 694 83 385 q 262 1210 83 1004 q 701 1417 440 1417 q 901 1390 815 1417 q 1035 1318 988 1363 q 1105 1225 1082 1274 q 1128 1125 1128 1176 q 1099 995 1128 1057 q 1026 889 1069 933 q 931 800 982 844 q 837 722 881 756 q 764 647 793 688 q 735 568 735 607 q 776 478 735 514 q 690 510 724 467 q 656 607 656 553 q 696 735 656 675 q 793 842 736 796 q 908 931 850 888 q 1006 1028 965 975 q 1046 1136 1046 1081 q 959 1331 1046 1263 q 701 1400 872 1400 q 347 1200 486 1400 q 208 694 208 1000 q 353 192 208 394 q 701 -11 497 -11 q 860 13 788 -11 q 975 72 933 38 q 1046 140 1017 106 q 1086 197 1075 174 l 1097 222 l 1113 222 l 1113 36 q 701 -28 915 -28 m 683 1500 l 531 1619 l 539 1633 l 688 1569 l 836 1633 l 844 1619 l 683 1500 z "},"":{"ha":1018,"x_min":83,"x_max":990,"o":"m 213 121 q 148 195 213 121 q 83 492 83 269 q 213 863 83 714 q 560 1011 342 1011 q 760 987 664 1011 q 900 939 857 963 l 944 914 l 944 750 l 939 750 q 776 928 883 863 q 557 994 669 994 q 383 945 457 994 q 272 817 310 896 q 218 658 235 739 q 203 496 201 576 q 315 157 206 294 q 610 19 425 19 q 737 40 671 19 q 871 118 803 61 q 971 258 939 175 l 990 250 q 823 47 935 122 q 560 -28 711 -28 q 213 121 342 -28 m 400 1214 l 408 1228 l 557 1164 l 706 1228 l 714 1214 l 553 1094 l 400 1214 z "},"":{"ha":1254,"x_min":42,"x_max":1171,"o":"m 42 1375 l 42 1389 l 153 1389 q 356 1403 229 1389 q 540 1417 482 1417 q 819 1358 696 1417 q 1017 1198 942 1299 q 1132 969 1093 1097 q 1171 694 1171 840 q 1132 420 1171 549 q 1017 191 1093 292 q 819 31 942 90 q 540 -28 696 -28 q 356 -14 482 -28 q 153 0 229 0 l 42 0 l 42 14 q 148 89 126 14 q 169 386 169 164 l 169 1003 q 148 1300 169 1225 q 42 1375 126 1375 m 288 1358 l 288 31 q 539 -8 413 -8 q 763 48 664 -8 q 924 201 863 104 q 1019 424 986 299 q 1051 694 1051 550 q 1019 965 1051 839 q 924 1188 986 1090 q 763 1341 863 1285 q 539 1397 664 1397 q 288 1358 413 1397 m 496 1500 l 343 1619 l 351 1633 l 500 1569 l 649 1633 l 657 1619 l 496 1500 z "},"":{"ha":1158,"x_min":83,"x_max":1183,"o":"m 560 -28 q 213 121 342 -28 q 83 492 83 269 q 213 863 83 714 q 560 1011 342 1011 q 883 928 753 1011 l 883 1003 q 862 1300 883 1225 q 756 1375 840 1375 l 756 1389 l 1003 1389 l 1003 386 q 1024 89 1003 164 q 1131 14 1046 14 l 1131 0 l 883 0 l 883 110 q 745 10 832 49 q 560 -28 658 -28 m 299 858 q 250 789 299 858 q 201 492 201 721 q 299 126 201 263 q 560 -11 397 -11 q 781 66 678 -11 q 883 249 883 143 l 883 818 q 560 994 768 994 q 299 858 397 994 m 1118 1269 q 1075 1288 1093 1269 q 1057 1331 1057 1306 q 1075 1373 1057 1356 q 1118 1390 1093 1390 q 1164 1369 1144 1390 q 1183 1310 1183 1349 q 1161 1219 1183 1256 q 1117 1175 1139 1183 l 1094 1165 l 1093 1174 q 1140 1217 1122 1181 q 1146 1282 1157 1253 q 1118 1269 1138 1269 z "},"":{"ha":1254,"x_min":-28,"x_max":1171,"o":"m -28 764 l 169 764 l 169 1003 q 148 1300 169 1225 q 42 1375 126 1375 l 42 1389 l 153 1389 q 356 1403 229 1389 q 540 1417 482 1417 q 819 1358 696 1417 q 1017 1198 942 1299 q 1132 969 1093 1097 q 1171 694 1171 840 q 1132 420 1171 549 q 1017 191 1093 292 q 819 31 942 90 q 540 -28 696 -28 q 356 -14 482 -28 q 153 0 229 0 l 42 0 l 42 14 q 148 89 126 14 q 169 386 169 164 l 169 736 l -28 736 l -28 764 m 288 764 l 564 764 l 564 736 l 288 736 l 288 31 q 539 -8 413 -8 q 763 48 664 -8 q 924 201 863 104 q 1019 424 986 299 q 1051 694 1051 550 q 1019 965 1051 839 q 924 1188 986 1090 q 763 1341 863 1285 q 539 1397 664 1397 q 288 1358 413 1397 l 288 764 z "},"":{"ha":1158,"x_min":83,"x_max":1131,"o":"m 560 -28 q 213 121 342 -28 q 83 492 83 269 q 213 863 83 714 q 560 1011 342 1011 q 883 928 753 1011 l 883 1003 l 883 1094 l 749 1094 l 749 1125 l 882 1125 q 853 1321 879 1267 q 756 1375 828 1375 l 756 1389 l 1003 1389 l 1003 1125 l 1047 1125 l 1047 1094 l 1003 1094 l 1003 386 q 1024 89 1003 164 q 1131 14 1046 14 l 1131 0 l 883 0 l 883 110 q 745 10 832 49 q 560 -28 658 -28 m 560 994 q 299 858 397 994 q 201 492 201 721 q 299 126 201 263 q 560 -11 397 -11 q 781 66 678 -11 q 883 249 883 143 l 883 818 q 560 994 768 994 z "},"":{"ha":1078,"x_min":42,"x_max":1036,"o":"m 42 1375 l 42 1389 l 1036 1389 l 1036 1201 l 1022 1201 l 1022 1207 q 887 1327 1022 1279 q 519 1375 751 1375 l 289 1375 l 289 778 q 450 842 356 842 q 624 799 521 842 q 786 756 726 756 q 858 778 828 756 q 889 835 889 800 l 903 835 q 853 726 903 771 q 725 682 804 682 q 615 701 668 682 q 528 742 561 719 q 457 783 496 764 q 386 804 418 803 q 289 756 328 806 l 289 14 l 467 14 q 613 20 539 14 q 790 46 688 26 q 958 113 893 65 q 1022 229 1022 160 l 1036 229 l 1036 0 l 42 0 l 42 14 q 148 89 126 14 q 169 386 169 164 l 169 1003 q 148 1300 169 1225 q 42 1375 126 1375 m 401 1531 l 700 1531 l 700 1500 l 401 1500 l 401 1531 z "},"":{"ha":1074,"x_min":83,"x_max":990,"o":"m 560 -28 q 213 121 342 -28 q 83 492 83 269 q 213 863 83 714 q 560 1011 342 1011 q 751 982 667 1011 q 885 905 836 953 q 960 803 935 857 q 985 694 985 750 q 918 510 983 576 q 733 443 853 443 q 560 474 638 443 q 421 536 482 506 q 306 567 360 567 q 263 554 283 567 q 238 532 242 542 l 232 533 q 271 612 232 579 q 378 644 310 644 q 481 615 426 644 q 574 552 535 586 q 660 489 613 518 q 743 460 707 460 q 863 556 824 460 q 863 783 903 661 q 679 975 814 926 q 557 994 624 994 q 383 945 457 994 q 272 817 310 896 q 218 658 235 739 q 203 496 201 576 q 315 157 206 294 q 610 19 425 19 q 737 40 671 19 q 871 118 803 61 q 971 258 939 175 l 990 250 q 823 47 935 122 q 560 -28 711 -28 m 721 1094 l 422 1094 l 422 1125 l 721 1125 l 721 1094 z "},"":{"ha":1078,"x_min":42,"x_max":1036,"o":"m 42 1389 l 1036 1389 l 1036 1201 l 1022 1201 l 1022 1207 q 887 1327 1022 1279 q 519 1375 751 1375 l 289 1375 l 289 778 q 450 842 356 842 q 624 799 521 842 q 786 756 726 756 q 858 778 828 756 q 889 835 889 800 l 903 835 q 853 726 903 771 q 725 682 804 682 q 615 701 668 682 q 528 742 561 719 q 457 783 496 764 q 386 804 418 803 q 289 756 328 806 l 289 14 l 467 14 q 613 20 539 14 q 790 46 688 26 q 958 113 893 65 q 1022 229 1022 160 l 1036 229 l 1036 0 l 42 0 l 42 14 q 148 89 126 14 q 169 386 169 164 l 169 1003 q 148 1300 169 1225 q 42 1375 126 1375 l 42 1389 m 399 1619 l 410 1619 q 551 1542 457 1542 q 692 1619 644 1542 l 704 1619 q 650 1535 693 1569 q 551 1500 607 1500 q 451 1535 494 1500 q 399 1619 408 1569 z "},"":{"ha":1074,"x_min":83,"x_max":990,"o":"m 560 -28 q 213 121 342 -28 q 83 492 83 269 q 213 863 83 714 q 560 1011 342 1011 q 751 982 667 1011 q 885 905 836 953 q 960 803 935 857 q 985 694 985 750 q 918 510 983 576 q 733 443 853 443 q 560 474 638 443 q 421 536 482 506 q 306 567 360 567 q 263 554 283 567 q 238 532 242 542 l 232 533 q 271 612 232 579 q 378 644 310 644 q 481 615 426 644 q 574 552 535 586 q 660 489 613 518 q 743 460 707 460 q 863 556 824 460 q 863 783 903 661 q 679 975 814 926 q 557 994 624 994 q 383 945 457 994 q 272 817 310 896 q 218 658 235 739 q 203 496 201 576 q 315 157 206 294 q 610 19 425 19 q 737 40 671 19 q 871 118 803 61 q 971 258 939 175 l 990 250 q 823 47 935 122 q 560 -28 711 -28 m 418 1214 l 431 1214 q 571 1136 478 1136 q 713 1214 665 1136 l 724 1214 q 671 1129 714 1164 q 571 1094 628 1094 q 472 1129 515 1094 q 418 1214 429 1164 z "},"":{"ha":1078,"x_min":42,"x_max":1036,"o":"m 42 14 q 148 89 126 14 q 169 386 169 164 l 169 1003 q 148 1300 169 1225 q 42 1375 126 1375 l 42 1389 l 1036 1389 l 1036 1201 l 1022 1201 l 1022 1207 q 887 1327 1022 1279 q 519 1375 751 1375 l 289 1375 l 289 778 q 450 842 356 842 q 624 799 521 842 q 786 756 726 756 q 858 778 828 756 q 889 835 889 800 l 903 835 q 853 726 903 771 q 725 682 804 682 q 615 701 668 682 q 528 742 561 719 q 457 783 496 764 q 386 804 418 803 q 289 756 328 806 l 289 14 l 467 14 q 613 20 539 14 q 790 46 688 26 q 958 113 893 65 q 1022 229 1022 160 l 1036 229 l 1036 0 l 42 0 l 42 14 m 508 1517 q 499 1526 508 1517 q 490 1560 490 1535 q 508 1603 490 1585 q 551 1621 526 1621 q 593 1603 575 1621 q 611 1560 611 1585 q 593 1517 611 1535 q 551 1500 575 1500 q 508 1517 526 1500 z "},"":{"ha":1074,"x_min":83,"x_max":990,"o":"m 560 -28 q 213 121 342 -28 q 83 492 83 269 q 213 863 83 714 q 560 1011 342 1011 q 751 982 667 1011 q 885 905 836 953 q 960 803 935 857 q 985 694 985 750 q 918 510 983 576 q 733 443 853 443 q 560 474 638 443 q 421 536 482 506 q 306 567 360 567 q 263 554 283 567 q 238 532 242 542 l 232 533 q 271 612 232 579 q 378 644 310 644 q 481 615 426 644 q 574 552 535 586 q 660 489 613 518 q 743 460 707 460 q 863 556 824 460 q 863 783 903 661 q 679 975 814 926 q 557 994 624 994 q 383 945 457 994 q 272 817 310 896 q 218 658 235 739 q 203 496 201 576 q 315 157 206 294 q 610 19 425 19 q 737 40 671 19 q 871 118 803 61 q 971 258 939 175 l 990 250 q 823 47 935 122 q 560 -28 711 -28 m 528 1112 q 520 1120 528 1112 q 511 1154 511 1129 q 528 1197 511 1179 q 571 1215 546 1215 q 614 1197 596 1215 q 632 1154 632 1179 q 614 1112 632 1129 q 571 1094 596 1094 q 528 1112 546 1094 z "},"":{"ha":1078,"x_min":42,"x_max":1036,"o":"m 42 1389 l 1036 1389 l 1036 1201 l 1022 1201 l 1022 1207 q 887 1327 1022 1279 q 519 1375 751 1375 l 289 1375 l 289 778 q 450 842 356 842 q 624 799 521 842 q 786 756 726 756 q 858 778 828 756 q 889 835 889 800 l 903 835 q 853 726 903 771 q 725 682 804 682 q 615 701 668 682 q 528 742 561 719 q 457 783 496 764 q 386 804 418 803 q 289 756 328 806 l 289 14 l 467 14 q 613 20 539 14 q 790 46 688 26 q 958 113 893 65 q 1022 229 1022 160 l 1036 229 l 1036 0 l 621 0 q 532 -35 567 0 q 497 -115 497 -69 q 514 -180 497 -154 q 565 -206 531 -206 q 594 -192 583 -206 q 597 -164 606 -179 l 600 -161 q 622 -193 622 -168 q 603 -239 622 -221 q 553 -257 585 -257 q 483 -226 510 -257 q 457 -154 457 -194 q 493 -59 457 -103 q 581 0 529 -15 l 42 0 l 42 14 q 148 89 126 14 q 169 386 169 164 l 169 1003 q 148 1300 169 1225 q 42 1375 126 1375 l 42 1389 z "},"":{"ha":1074,"x_min":83,"x_max":990,"o":"m 83 492 q 213 863 83 714 q 560 1011 342 1011 q 751 982 667 1011 q 885 905 836 953 q 960 803 935 857 q 985 694 985 750 q 918 510 983 576 q 733 443 853 443 q 560 474 638 443 q 421 536 482 506 q 306 567 360 567 q 263 554 283 567 q 238 532 242 542 l 232 533 q 271 612 232 579 q 378 644 310 644 q 481 615 426 644 q 574 552 535 586 q 660 489 613 518 q 743 460 707 460 q 863 556 824 460 q 863 783 903 661 q 679 975 814 926 q 557 994 624 994 q 383 945 457 994 q 272 817 310 896 q 218 658 235 739 q 203 496 201 576 q 315 157 206 294 q 610 19 425 19 q 737 40 671 19 q 871 118 803 61 q 971 258 939 175 l 990 250 q 823 47 935 122 q 560 -28 711 -28 l 538 -28 q 494 -115 494 -62 q 511 -180 494 -154 q 563 -206 528 -206 q 592 -192 581 -206 q 594 -164 603 -179 l 597 -161 q 619 -193 619 -168 q 601 -239 619 -221 q 550 -257 582 -257 q 481 -226 507 -257 q 454 -154 454 -194 q 524 -26 454 -79 q 202 133 321 -12 q 83 492 83 279 z "},"":{"ha":1078,"x_min":42,"x_max":1036,"o":"m 42 1389 l 1036 1389 l 1036 1201 l 1022 1201 l 1022 1207 q 887 1327 1022 1279 q 519 1375 751 1375 l 289 1375 l 289 778 q 450 842 356 842 q 624 799 521 842 q 786 756 726 756 q 858 778 828 756 q 889 835 889 800 l 903 835 q 853 726 903 771 q 725 682 804 682 q 615 701 668 682 q 528 742 561 719 q 457 783 496 764 q 386 804 418 803 q 289 756 328 806 l 289 14 l 467 14 q 613 20 539 14 q 790 46 688 26 q 958 113 893 65 q 1022 229 1022 160 l 1036 229 l 1036 0 l 42 0 l 42 14 q 148 89 126 14 q 169 386 169 164 l 169 1003 q 148 1300 169 1225 q 42 1375 126 1375 l 42 1389 m 550 1500 l 397 1619 l 406 1633 l 554 1569 l 703 1633 l 711 1619 l 550 1500 z "},"":{"ha":1074,"x_min":83,"x_max":990,"o":"m 560 -28 q 213 121 342 -28 q 83 492 83 269 q 213 863 83 714 q 560 1011 342 1011 q 751 982 667 1011 q 885 905 836 953 q 960 803 935 857 q 985 694 985 750 q 918 510 983 576 q 733 443 853 443 q 560 474 638 443 q 421 536 482 506 q 306 567 360 567 q 263 554 283 567 q 238 532 242 542 l 232 533 q 271 612 232 579 q 378 644 310 644 q 481 615 426 644 q 574 552 535 586 q 660 489 613 518 q 743 460 707 460 q 863 556 824 460 q 863 783 903 661 q 679 975 814 926 q 557 994 624 994 q 383 945 457 994 q 272 817 310 896 q 218 658 235 739 q 203 496 201 576 q 315 157 206 294 q 610 19 425 19 q 737 40 671 19 q 871 118 803 61 q 971 258 939 175 l 990 250 q 823 47 935 122 q 560 -28 711 -28 m 569 1094 l 417 1214 l 425 1228 l 574 1164 l 722 1228 l 731 1214 l 569 1094 z "},"":{"ha":1279,"x_min":83,"x_max":1250,"o":"m 262 178 q 173 282 262 178 q 83 694 83 385 q 262 1210 83 1004 q 701 1417 440 1417 q 1097 1353 908 1417 l 1097 1167 l 1083 1167 q 1073 1192 1081 1176 q 1035 1247 1065 1207 q 965 1319 1004 1288 q 855 1375 925 1350 q 701 1400 785 1400 q 347 1200 486 1400 q 208 694 208 1000 q 353 192 208 394 q 701 -11 497 -11 q 858 22 786 -11 q 969 102 929 56 q 1030 189 1008 149 q 1051 251 1051 229 l 1051 447 q 1043 526 1051 492 q 1016 585 1035 561 q 977 627 997 610 q 925 655 957 644 q 867 671 893 665 q 801 678 842 676 q 735 680 761 679 q 667 679 710 681 q 603 678 624 678 q 510 684 546 678 q 448 712 474 690 q 422 772 422 733 q 491 900 422 853 q 633 947 560 947 q 808 915 721 947 q 978 852 896 883 q 1133 821 1060 821 q 1181 825 1161 821 q 1211 835 1201 829 q 1227 848 1221 842 q 1233 858 1233 854 l 1235 863 q 1207 763 1250 800 q 1094 726 1164 726 q 838 793 1007 726 q 603 860 668 860 q 485 835 533 860 q 438 765 438 811 q 447 732 438 746 q 476 710 456 718 q 517 699 496 703 q 574 693 538 694 q 637 692 610 692 q 709 694 664 693 q 782 694 754 694 q 897 690 847 694 q 1000 672 946 686 q 1090 631 1054 657 q 1148 558 1125 604 q 1171 447 1171 511 l 1171 247 q 971 44 1092 115 q 701 -28 850 -28 q 262 178 440 -28 m 557 1514 l 710 1633 l 871 1514 l 863 1500 l 714 1564 l 565 1500 l 557 1514 z "},"":{"ha":1013,"x_min":28,"x_max":985,"o":"m 467 -604 q 149 -524 269 -604 q 28 -293 28 -443 q 93 -147 28 -204 q 243 -89 158 -89 q 397 -119 307 -89 q 551 -150 486 -150 q 615 -133 585 -150 q 635 -81 644 -115 l 640 -79 q 660 -137 660 -104 q 647 -198 661 -169 q 599 -246 632 -226 q 524 -265 567 -265 q 391 -235 475 -265 q 240 -204 307 -204 q 150 -237 190 -204 q 110 -319 110 -271 q 210 -515 110 -440 q 469 -590 311 -590 q 758 -472 635 -590 q 881 -181 881 -354 q 795 -1 881 -71 q 571 69 710 69 q 444 57 513 69 q 322 44 375 44 q 241 65 276 44 q 206 125 206 86 q 238 191 206 165 q 323 231 271 217 q 438 258 375 244 q 563 295 500 271 q 677 356 625 319 q 762 464 729 393 q 794 632 794 535 q 713 888 794 781 q 494 994 631 994 q 276 885 358 994 q 193 628 193 776 q 276 401 193 489 q 481 313 360 313 l 481 300 q 411 294 449 294 q 168 392 263 294 q 74 628 74 490 q 189 897 74 783 q 494 1011 304 1011 l 914 1011 l 914 967 l 614 997 q 833 859 753 963 q 914 628 914 756 q 884 468 914 538 q 806 360 854 399 q 694 292 757 321 q 567 252 632 264 q 440 228 503 240 q 329 208 378 217 q 251 178 281 199 q 221 128 221 158 q 252 77 221 96 q 322 58 283 58 q 500 92 389 58 q 676 125 611 125 q 893 40 801 125 q 985 -169 985 -46 q 844 -480 985 -356 q 467 -604 703 -604 m 338 1108 l 490 1228 l 651 1108 l 643 1094 l 494 1158 l 346 1094 l 338 1108 z "},"":{"ha":1279,"x_min":83,"x_max":1250,"o":"m 262 178 q 173 282 262 178 q 83 694 83 385 q 262 1210 83 1004 q 701 1417 440 1417 q 1097 1353 908 1417 l 1097 1167 l 1083 1167 q 1073 1192 1081 1176 q 1035 1247 1065 1207 q 965 1319 1004 1288 q 855 1375 925 1350 q 701 1400 785 1400 q 347 1200 486 1400 q 208 694 208 1000 q 353 192 208 394 q 701 -11 497 -11 q 858 22 786 -11 q 969 102 929 56 q 1030 189 1008 149 q 1051 251 1051 229 l 1051 447 q 1043 526 1051 492 q 1016 585 1035 561 q 977 627 997 610 q 925 655 957 644 q 867 671 893 665 q 801 678 842 676 q 735 680 761 679 q 667 679 710 681 q 603 678 624 678 q 510 684 546 678 q 448 712 474 690 q 422 772 422 733 q 491 900 422 853 q 633 947 560 947 q 808 915 721 947 q 978 852 896 883 q 1133 821 1060 821 q 1181 825 1161 821 q 1211 835 1201 829 q 1227 848 1221 842 q 1233 858 1233 854 l 1235 863 q 1207 763 1250 800 q 1094 726 1164 726 q 838 793 1007 726 q 603 860 668 860 q 485 835 533 860 q 438 765 438 811 q 447 732 438 746 q 476 710 456 718 q 517 699 496 703 q 574 693 538 694 q 637 692 610 692 q 709 694 664 693 q 782 694 754 694 q 897 690 847 694 q 1000 672 946 686 q 1090 631 1054 657 q 1148 558 1125 604 q 1171 447 1171 511 l 1171 247 q 971 44 1092 115 q 701 -28 850 -28 q 262 178 440 -28 m 561 1619 l 574 1619 q 714 1542 621 1542 q 856 1619 808 1542 l 867 1619 q 814 1535 857 1569 q 714 1500 771 1500 q 615 1535 658 1500 q 561 1619 572 1569 z "},"":{"ha":1013,"x_min":28,"x_max":985,"o":"m 467 -604 q 149 -524 269 -604 q 28 -293 28 -443 q 93 -147 28 -204 q 243 -89 158 -89 q 397 -119 307 -89 q 551 -150 486 -150 q 615 -133 585 -150 q 635 -81 644 -115 l 640 -79 q 660 -137 660 -104 q 647 -198 661 -169 q 599 -246 632 -226 q 524 -265 567 -265 q 391 -235 475 -265 q 240 -204 307 -204 q 150 -237 190 -204 q 110 -319 110 -271 q 210 -515 110 -440 q 469 -590 311 -590 q 758 -472 635 -590 q 881 -181 881 -354 q 795 -1 881 -71 q 571 69 710 69 q 444 57 513 69 q 322 44 375 44 q 241 65 276 44 q 206 125 206 86 q 238 191 206 165 q 323 231 271 217 q 438 258 375 244 q 563 295 500 271 q 677 356 625 319 q 762 464 729 393 q 794 632 794 535 q 713 888 794 781 q 494 994 631 994 q 276 885 358 994 q 193 628 193 776 q 276 401 193 489 q 481 313 360 313 l 481 300 q 411 294 449 294 q 168 392 263 294 q 74 628 74 490 q 189 897 74 783 q 494 1011 304 1011 l 914 1011 l 914 967 l 614 997 q 833 859 753 963 q 914 628 914 756 q 884 468 914 538 q 806 360 854 399 q 694 292 757 321 q 567 252 632 264 q 440 228 503 240 q 329 208 378 217 q 251 178 281 199 q 221 128 221 158 q 252 77 221 96 q 322 58 283 58 q 500 92 389 58 q 676 125 611 125 q 893 40 801 125 q 985 -169 985 -46 q 844 -480 985 -356 q 467 -604 703 -604 m 494 1094 q 394 1129 438 1094 q 342 1214 351 1164 l 353 1214 q 494 1136 400 1136 q 635 1214 588 1136 l 647 1214 q 593 1129 636 1164 q 494 1094 550 1094 z "},"":{"ha":1279,"x_min":83,"x_max":1250,"o":"m 262 178 q 173 282 262 178 q 83 694 83 385 q 262 1210 83 1004 q 701 1417 440 1417 q 1097 1353 908 1417 l 1097 1167 l 1083 1167 q 1073 1192 1081 1176 q 1035 1247 1065 1207 q 965 1319 1004 1288 q 855 1375 925 1350 q 701 1400 785 1400 q 347 1200 486 1400 q 208 694 208 1000 q 353 192 208 394 q 701 -11 497 -11 q 858 22 786 -11 q 969 102 929 56 q 1030 189 1008 149 q 1051 251 1051 229 l 1051 447 q 1043 526 1051 492 q 1016 585 1035 561 q 977 627 997 610 q 925 655 957 644 q 867 671 893 665 q 801 678 842 676 q 735 680 761 679 q 667 679 710 681 q 603 678 624 678 q 510 684 546 678 q 448 712 474 690 q 422 772 422 733 q 491 900 422 853 q 633 947 560 947 q 808 915 721 947 q 978 852 896 883 q 1133 821 1060 821 q 1181 825 1161 821 q 1211 835 1201 829 q 1227 848 1221 842 q 1233 858 1233 854 l 1235 863 q 1207 763 1250 800 q 1094 726 1164 726 q 838 793 1007 726 q 603 860 668 860 q 485 835 533 860 q 438 765 438 811 q 447 732 438 746 q 476 710 456 718 q 517 699 496 703 q 574 693 538 694 q 637 692 610 692 q 709 694 664 693 q 782 694 754 694 q 897 690 847 694 q 1000 672 946 686 q 1090 631 1054 657 q 1148 558 1125 604 q 1171 447 1171 511 l 1171 247 q 971 44 1092 115 q 701 -28 850 -28 q 262 178 440 -28 m 757 1517 q 748 1509 757 1517 q 714 1500 739 1500 q 672 1517 689 1500 q 654 1560 654 1535 q 672 1603 654 1585 q 714 1621 689 1621 q 757 1603 739 1621 q 775 1560 775 1585 q 757 1517 775 1535 z "},"":{"ha":1013,"x_min":28,"x_max":985,"o":"m 28 -293 q 93 -147 28 -204 q 243 -89 158 -89 q 397 -119 307 -89 q 551 -150 486 -150 q 615 -133 585 -150 q 635 -81 644 -115 l 640 -79 q 660 -137 660 -104 q 647 -198 661 -169 q 599 -246 632 -226 q 524 -265 567 -265 q 391 -235 475 -265 q 240 -204 307 -204 q 150 -237 190 -204 q 110 -319 110 -271 q 210 -515 110 -440 q 469 -590 311 -590 q 758 -472 635 -590 q 881 -181 881 -354 q 795 -1 881 -71 q 571 69 710 69 q 444 57 513 69 q 322 44 375 44 q 241 65 276 44 q 206 125 206 86 q 238 191 206 165 q 323 231 271 217 q 438 258 375 244 q 563 295 500 271 q 677 356 625 319 q 762 464 729 393 q 794 632 794 535 q 713 888 794 781 q 494 994 631 994 q 276 885 358 994 q 193 628 193 776 q 276 401 193 489 q 481 313 360 313 l 481 300 q 411 294 449 294 q 168 392 263 294 q 74 628 74 490 q 189 897 74 783 q 494 1011 304 1011 l 914 1011 l 914 967 l 614 997 q 833 859 753 963 q 914 628 914 756 q 884 468 914 538 q 806 360 854 399 q 694 292 757 321 q 567 252 632 264 q 440 228 503 240 q 329 208 378 217 q 251 178 281 199 q 221 128 221 158 q 252 77 221 96 q 322 58 283 58 q 500 92 389 58 q 676 125 611 125 q 893 40 801 125 q 985 -169 985 -46 q 844 -480 985 -356 q 467 -604 703 -604 q 149 -524 269 -604 q 28 -293 28 -443 m 452 1112 q 443 1120 452 1112 q 435 1154 435 1129 q 452 1197 435 1179 q 494 1215 469 1215 q 537 1197 519 1215 q 554 1154 554 1179 q 537 1112 554 1129 q 494 1094 519 1094 q 452 1112 469 1094 z "},"":{"ha":1279,"x_min":83,"x_max":1250,"o":"m 262 178 q 173 282 262 178 q 83 694 83 385 q 262 1210 83 1004 q 701 1417 440 1417 q 1097 1353 908 1417 l 1097 1167 l 1083 1167 q 1073 1192 1081 1176 q 1035 1247 1065 1207 q 965 1319 1004 1288 q 855 1375 925 1350 q 701 1400 785 1400 q 347 1200 486 1400 q 208 694 208 1000 q 353 192 208 394 q 701 -11 497 -11 q 858 22 786 -11 q 969 102 929 56 q 1030 189 1008 149 q 1051 251 1051 229 l 1051 447 q 1043 526 1051 492 q 1016 585 1035 561 q 977 627 997 610 q 925 655 957 644 q 867 671 893 665 q 801 678 842 676 q 735 680 761 679 q 667 679 710 681 q 603 678 624 678 q 510 684 546 678 q 448 712 474 690 q 422 772 422 733 q 491 900 422 853 q 633 947 560 947 q 808 915 721 947 q 978 852 896 883 q 1133 821 1060 821 q 1181 825 1161 821 q 1211 835 1201 829 q 1227 848 1221 842 q 1233 858 1233 854 l 1235 863 q 1207 763 1250 800 q 1094 726 1164 726 q 838 793 1007 726 q 603 860 668 860 q 485 835 533 860 q 438 765 438 811 q 447 732 438 746 q 476 710 456 718 q 517 699 496 703 q 574 693 538 694 q 637 692 610 692 q 709 694 664 693 q 782 694 754 694 q 897 690 847 694 q 1000 672 946 686 q 1090 631 1054 657 q 1148 558 1125 604 q 1171 447 1171 511 l 1171 247 q 971 44 1092 115 q 701 -28 850 -28 q 262 178 440 -28 m 660 -159 q 651 -150 660 -159 q 642 -117 642 -142 q 660 -74 642 -92 q 703 -56 678 -56 q 749 -77 729 -56 q 768 -137 768 -99 q 746 -228 768 -192 q 701 -272 724 -264 l 679 -282 l 678 -272 q 724 -231 707 -267 q 731 -165 742 -194 q 703 -176 722 -176 q 660 -159 678 -176 z "},"":{"ha":1013,"x_min":28,"x_max":985,"o":"m 467 -604 q 149 -524 269 -604 q 28 -293 28 -443 q 93 -147 28 -204 q 243 -89 158 -89 q 397 -119 307 -89 q 551 -150 486 -150 q 615 -133 585 -150 q 635 -81 644 -115 l 640 -79 q 660 -137 660 -104 q 647 -198 661 -169 q 599 -246 632 -226 q 524 -265 567 -265 q 391 -235 475 -265 q 240 -204 307 -204 q 150 -237 190 -204 q 110 -319 110 -271 q 210 -515 110 -440 q 469 -590 311 -590 q 758 -472 635 -590 q 881 -181 881 -354 q 795 -1 881 -71 q 571 69 710 69 q 444 57 513 69 q 322 44 375 44 q 241 65 276 44 q 206 125 206 86 q 238 191 206 165 q 323 231 271 217 q 438 258 375 244 q 563 295 500 271 q 677 356 625 319 q 762 464 729 393 q 794 632 794 535 q 713 888 794 781 q 494 994 631 994 q 276 885 358 994 q 193 628 193 776 q 276 401 193 489 q 481 313 360 313 l 481 300 q 411 294 449 294 q 168 392 263 294 q 74 628 74 490 q 189 897 74 783 q 494 1011 304 1011 l 914 1011 l 914 967 l 614 997 q 833 859 753 963 q 914 628 914 756 q 884 468 914 538 q 806 360 854 399 q 694 292 757 321 q 567 252 632 264 q 440 228 503 240 q 329 208 378 217 q 251 178 281 199 q 221 128 221 158 q 252 77 221 96 q 322 58 283 58 q 500 92 389 58 q 676 125 611 125 q 893 40 801 125 q 985 -169 985 -46 q 844 -480 985 -356 q 467 -604 703 -604 m 508 1094 q 463 1116 482 1094 q 443 1176 443 1138 q 452 1238 443 1210 q 474 1280 461 1265 q 501 1304 488 1294 q 522 1317 514 1314 l 532 1321 l 533 1311 q 487 1269 504 1306 q 481 1204 469 1233 q 508 1215 489 1215 q 551 1198 533 1215 q 569 1156 569 1181 q 551 1113 569 1131 q 508 1094 533 1094 z "},"":{"ha":1272,"x_min":42,"x_max":1231,"o":"m 42 1375 l 42 1389 l 417 1389 l 417 1375 q 310 1300 332 1375 q 289 1003 289 1225 l 289 760 q 347 817 303 792 q 450 842 392 842 q 643 799 521 842 q 825 756 765 756 q 897 778 867 756 q 928 835 928 800 l 942 835 q 892 726 942 771 q 764 682 843 682 q 618 713 692 682 q 485 774 544 743 q 386 804 425 804 q 289 682 289 804 l 289 386 q 310 89 289 164 q 417 14 332 14 l 417 0 l 42 0 l 42 14 q 148 89 126 14 q 169 386 169 164 l 169 1003 q 148 1300 169 1225 q 42 1375 126 1375 m 856 0 l 856 14 q 962 89 940 14 q 983 386 983 164 l 983 1003 q 962 1300 983 1225 q 856 1375 940 1375 l 856 1389 l 1231 1389 l 1231 1375 q 1124 1300 1146 1375 q 1103 1003 1103 1225 l 1103 386 q 1124 89 1103 164 q 1231 14 1146 14 l 1231 0 l 856 0 m 481 1500 l 472 1514 l 625 1633 l 786 1514 l 778 1500 l 629 1564 l 481 1500 z "},"":{"ha":1093,"x_min":35,"x_max":1065,"o":"m 42 14 q 148 89 126 14 q 169 386 169 164 l 169 1003 q 148 1300 169 1225 q 42 1375 126 1375 l 42 1389 l 289 1389 l 289 988 q 424 999 313 988 q 567 1011 535 1011 q 938 701 938 1011 l 938 386 q 959 89 938 164 q 1065 14 981 14 l 1065 0 l 690 0 l 690 14 q 797 89 775 14 q 818 386 818 164 l 817 672 q 792 825 817 761 q 735 920 767 889 q 653 969 703 951 q 574 989 604 986 q 504 992 544 992 q 289 951 403 992 l 289 386 q 310 89 289 164 q 417 14 332 14 l 417 0 l 42 0 l 42 14 m 35 1514 l 188 1633 l 349 1514 l 340 1500 l 192 1564 l 43 1500 l 35 1514 z "},"":{"ha":1272,"x_min":42,"x_max":1231,"o":"m 42 1389 l 417 1389 l 417 1375 q 310 1300 332 1375 q 289 1003 289 1225 l 289 983 l 983 983 l 983 1003 q 962 1300 983 1225 q 856 1375 940 1375 l 856 1389 l 1231 1389 l 1231 1375 q 1124 1300 1146 1375 q 1103 1003 1103 1225 l 1103 983 l 1208 983 l 1208 953 l 1103 953 l 1103 386 q 1124 89 1103 164 q 1231 14 1146 14 l 1231 0 l 856 0 l 856 14 q 962 89 940 14 q 983 386 983 164 l 983 953 l 289 953 l 289 760 q 347 817 303 792 q 450 842 392 842 q 643 799 521 842 q 825 756 765 756 q 897 778 867 756 q 928 835 928 800 l 942 835 q 892 726 942 771 q 764 682 843 682 q 618 713 692 682 q 485 774 544 743 q 386 804 425 804 q 289 682 289 804 l 289 386 q 310 89 289 164 q 417 14 332 14 l 417 0 l 42 0 l 42 14 q 148 89 126 14 q 169 386 169 164 l 169 953 l 65 953 l 65 983 l 169 983 l 169 1003 q 148 1300 169 1225 q 42 1375 126 1375 l 42 1389 z "},"":{"ha":1093,"x_min":42,"x_max":1065,"o":"m 42 0 l 42 14 q 148 89 126 14 q 169 386 169 164 l 169 1003 l 169 1094 l 42 1094 l 42 1125 l 168 1125 q 140 1321 165 1267 q 42 1375 114 1375 l 42 1389 l 289 1389 l 289 1125 l 340 1125 l 340 1094 l 289 1094 l 289 988 q 424 999 313 988 q 567 1011 535 1011 q 938 701 938 1011 l 938 386 q 959 89 938 164 q 1065 14 981 14 l 1065 0 l 690 0 l 690 14 q 797 89 775 14 q 818 386 818 164 l 817 672 q 792 825 817 761 q 735 920 767 889 q 653 969 703 951 q 574 989 604 986 q 504 992 544 992 q 289 951 403 992 l 289 386 q 310 89 289 164 q 417 14 332 14 l 417 0 l 42 0 z "},"":{"ha":458,"x_min":42,"x_max":417,"o":"m 42 0 l 42 14 q 148 89 126 14 q 169 386 169 164 l 169 1003 q 148 1300 169 1225 q 42 1375 126 1375 l 42 1389 l 417 1389 l 417 1375 q 310 1300 332 1375 q 289 1003 289 1225 l 289 386 q 310 89 289 164 q 417 14 332 14 l 417 0 l 42 0 m 61 1521 q 91 1560 67 1540 q 153 1581 115 1581 q 235 1561 186 1581 q 315 1542 285 1542 q 360 1549 343 1542 q 381 1563 376 1556 l 383 1569 l 392 1565 q 358 1518 383 1536 q 294 1500 332 1500 q 218 1520 267 1500 q 128 1540 169 1540 q 68 1517 85 1540 l 61 1521 z "},"":{"ha":458,"x_min":42,"x_max":417,"o":"m 42 983 l 289 983 l 289 386 q 310 89 289 164 q 417 14 332 14 l 417 0 l 42 0 l 42 14 q 148 89 126 14 q 169 386 169 164 l 169 597 q 148 894 169 819 q 42 969 126 969 l 42 983 m 58 1111 l 51 1115 q 81 1155 57 1135 q 143 1175 106 1175 q 226 1156 176 1175 q 306 1136 275 1136 q 350 1143 333 1136 q 369 1157 367 1150 l 374 1164 l 382 1160 q 348 1113 374 1131 q 285 1094 322 1094 q 207 1115 256 1094 q 118 1135 158 1135 q 58 1111 75 1135 z "},"":{"ha":458,"x_min":42,"x_max":417,"o":"m 42 0 l 42 14 q 148 89 126 14 q 169 386 169 164 l 169 1003 q 148 1300 169 1225 q 42 1375 126 1375 l 42 1389 l 417 1389 l 417 1375 q 310 1300 332 1375 q 289 1003 289 1225 l 289 386 q 310 89 289 164 q 417 14 332 14 l 417 0 l 42 0 m 78 1531 l 376 1531 l 376 1500 l 78 1500 l 78 1531 z "},"":{"ha":458,"x_min":42,"x_max":417,"o":"m 42 983 l 289 983 l 289 386 q 310 89 289 164 q 417 14 332 14 l 417 0 l 42 0 l 42 14 q 148 89 126 14 q 169 386 169 164 l 169 597 q 148 894 169 819 q 42 969 126 969 l 42 983 m 367 1094 l 68 1094 l 68 1125 l 367 1125 l 367 1094 z "},"":{"ha":458,"x_min":42,"x_max":417,"o":"m 42 1375 l 42 1389 l 417 1389 l 417 1375 q 310 1300 332 1375 q 289 1003 289 1225 l 289 386 q 310 89 289 164 q 417 14 332 14 l 417 0 l 42 0 l 42 14 q 148 89 126 14 q 169 386 169 164 l 169 1003 q 148 1300 169 1225 q 42 1375 126 1375 m 326 1535 q 304 1517 326 1535 q 226 1500 282 1500 q 127 1535 171 1500 q 74 1619 83 1569 l 86 1619 q 226 1542 133 1542 q 367 1619 319 1542 l 379 1619 q 326 1535 369 1569 z "},"":{"ha":458,"x_min":42,"x_max":417,"o":"m 42 0 l 42 14 q 148 89 126 14 q 169 386 169 164 l 169 597 q 148 894 169 819 q 42 969 126 969 l 42 983 l 289 983 l 289 386 q 310 89 289 164 q 417 14 332 14 l 417 0 l 42 0 m 217 1094 q 118 1129 161 1094 q 64 1214 75 1164 l 76 1214 q 217 1136 124 1136 q 358 1214 311 1136 l 369 1214 q 317 1129 360 1164 q 217 1094 274 1094 z "},"":{"ha":458,"x_min":42,"x_max":417,"o":"m 196 0 l 42 0 l 42 14 q 148 89 126 14 q 169 386 169 164 l 169 1003 q 148 1300 169 1225 q 42 1375 126 1375 l 42 1389 l 417 1389 l 417 1375 q 310 1300 332 1375 q 289 1003 289 1225 l 289 386 q 310 89 289 164 q 417 14 332 14 l 417 0 l 238 0 q 147 -35 182 0 q 113 -115 113 -69 q 129 -180 113 -154 q 181 -206 146 -206 q 210 -192 199 -206 q 213 -164 221 -179 l 215 -161 q 238 -193 238 -168 q 219 -239 238 -221 q 168 -257 200 -257 q 99 -226 125 -257 q 72 -154 72 -194 q 109 -59 72 -103 q 196 0 146 -15 z "},"":{"ha":444,"x_min":42,"x_max":417,"o":"m 42 0 l 42 14 q 148 89 126 14 q 169 386 169 164 l 169 597 q 148 894 169 819 q 42 969 126 969 l 42 983 l 289 983 l 289 386 q 310 89 289 164 q 417 14 332 14 l 417 0 l 242 0 q 151 -35 186 0 q 117 -115 117 -69 q 133 -180 117 -154 q 185 -206 150 -206 q 214 -192 203 -206 q 217 -164 225 -179 l 219 -161 q 242 -193 242 -168 q 223 -239 242 -221 q 172 -257 204 -257 q 103 -226 129 -257 q 76 -154 76 -194 q 113 -59 76 -103 q 200 0 150 -15 l 42 0 m 288 1099 q 275 1086 288 1099 q 222 1072 261 1072 q 156 1099 183 1072 q 129 1165 129 1126 q 156 1231 129 1204 q 222 1258 183 1258 q 288 1231 261 1258 q 315 1165 315 1204 q 288 1099 315 1126 z "},"":{"ha":458,"x_min":42,"x_max":417,"o":"m 42 1375 l 42 1389 l 417 1389 l 417 1375 q 310 1300 332 1375 q 289 1003 289 1225 l 289 386 q 310 89 289 164 q 417 14 332 14 l 417 0 l 42 0 l 42 14 q 148 89 126 14 q 169 386 169 164 l 169 1003 q 148 1300 169 1225 q 42 1375 126 1375 m 184 1517 q 175 1526 184 1517 q 167 1560 167 1535 q 184 1603 167 1585 q 226 1621 201 1621 q 269 1603 251 1621 q 286 1560 286 1585 q 269 1517 286 1535 q 226 1500 251 1500 q 184 1517 201 1500 z "},"":{"ha":458,"x_min":42,"x_max":417,"o":"m 417 0 l 42 0 l 42 14 q 148 89 126 14 q 169 386 169 164 l 169 597 q 148 894 169 819 q 42 969 126 969 l 42 983 l 289 983 l 289 386 q 310 89 289 164 q 417 14 332 14 l 417 0 z "},"":{"ha":899,"x_min":42,"x_max":871,"o":"m 438 -292 q 389 -286 422 -292 l 392 -272 q 414 -274 406 -274 q 569 -172 514 -274 q 624 93 624 -71 l 624 1003 q 602 1300 624 1225 q 496 1375 581 1375 l 496 1389 l 871 1389 l 871 1375 q 765 1300 786 1375 q 743 1003 743 1225 l 743 96 q 656 -175 743 -58 q 438 -292 568 -292 m 42 1375 l 42 1389 l 417 1389 l 417 1375 q 310 1300 332 1375 q 289 1003 289 1225 l 289 386 q 310 89 289 164 q 417 14 332 14 l 417 0 l 42 0 l 42 14 q 148 89 126 14 q 169 386 169 164 l 169 1003 q 148 1300 169 1225 q 42 1375 126 1375 z "},"":{"ha":843,"x_min":42,"x_max":760,"o":"m 375 -575 l 385 -561 q 465 -586 417 -586 q 607 -324 607 -586 l 607 597 q 585 894 607 819 q 479 969 564 969 l 479 983 l 726 983 l 726 -303 q 660 -512 726 -419 q 481 -606 594 -606 q 375 -575 417 -606 m 42 983 l 289 983 l 289 386 q 310 89 289 164 q 417 14 332 14 l 417 0 l 42 0 l 42 14 q 148 89 126 14 q 169 386 169 164 l 169 597 q 148 894 169 819 q 42 969 126 969 l 42 983 m 601 1231 q 614 1245 601 1231 q 667 1258 628 1258 q 733 1231 706 1258 q 760 1165 760 1204 q 733 1099 760 1126 q 667 1072 706 1072 q 601 1099 628 1072 q 574 1165 574 1126 q 601 1231 574 1204 m 156 1099 q 143 1113 156 1099 q 129 1165 129 1126 q 156 1231 129 1204 q 222 1258 183 1258 q 288 1231 261 1258 q 315 1165 315 1204 q 288 1099 315 1126 q 222 1072 261 1072 q 156 1099 183 1072 z "},"":{"ha":440,"x_min":-69,"x_max":413,"o":"m -21 -292 q -69 -286 -36 -292 l -67 -272 q -44 -274 -53 -274 q 110 -172 56 -274 q 165 93 165 -71 l 165 1003 q 144 1300 165 1225 q 38 1375 122 1375 l 38 1389 l 413 1389 l 413 1375 q 306 1300 328 1375 q 285 1003 285 1225 l 285 96 q 197 -175 285 -58 q -21 -292 110 -292 m 79 1500 l 71 1514 l 224 1633 l 385 1514 l 376 1500 l 228 1564 l 79 1500 z "},"":{"ha":399,"x_min":-69,"x_max":367,"o":"m 36 -606 q -69 -575 -28 -606 l -60 -561 q 21 -586 -28 -586 q 163 -324 163 -586 l 163 597 q 141 894 163 819 q 35 969 119 969 l 35 983 l 282 983 l 282 -303 q 216 -512 282 -419 q 36 -606 150 -606 m 53 1108 l 206 1228 l 367 1108 l 358 1094 l 210 1158 l 61 1094 l 53 1108 z "},"":{"ha":1174,"x_min":42,"x_max":1160,"o":"m 899 1257 q 885 1335 899 1297 q 850 1389 872 1372 l 988 1389 q 1029 1260 1029 1350 q 992 1099 1029 1172 q 896 976 956 1025 q 765 886 836 926 q 622 819 693 846 q 490 772 550 793 q 394 731 431 750 q 357 694 357 713 q 399 651 357 668 q 497 620 440 633 q 625 564 554 607 q 740 454 696 521 q 805 356 760 425 q 874 251 850 286 q 939 163 897 217 q 1011 83 981 110 q 1082 35 1042 56 q 1160 14 1122 14 l 1160 0 l 947 0 q 926 3 936 0 q 906 15 917 6 q 884 34 894 24 q 858 65 874 44 q 829 107 843 86 q 792 163 815 128 q 747 231 768 199 q 692 316 726 264 q 625 417 657 368 q 538 526 583 481 q 459 592 492 571 q 399 628 426 613 q 357 658 371 643 q 343 694 343 672 q 374 744 343 719 q 453 793 404 769 q 562 845 503 817 q 680 912 621 874 q 788 997 739 950 q 868 1110 838 1043 q 899 1257 899 1178 m 42 0 l 42 14 q 148 89 126 14 q 169 386 169 164 l 169 1003 q 148 1300 169 1225 q 42 1375 126 1375 l 42 1389 l 415 1389 l 415 1375 q 309 1300 331 1375 q 288 1003 288 1225 l 288 386 q 309 89 288 164 q 415 14 331 14 l 415 0 l 42 0 m 231 -150 q 188 -133 206 -150 q 171 -89 171 -115 q 188 -47 171 -64 q 231 -29 206 -29 q 277 -50 258 -29 q 296 -110 296 -71 q 287 -172 296 -144 q 265 -213 278 -199 q 239 -238 251 -228 q 217 -251 226 -249 l 208 -254 l 207 -246 q 253 -203 236 -239 q 260 -139 269 -168 q 231 -150 251 -150 z "},"":{"ha":972,"x_min":42,"x_max":931,"o":"m 42 1375 l 42 1389 l 289 1389 l 289 386 q 310 89 289 164 q 417 14 332 14 l 417 0 l 42 0 l 42 14 q 148 89 126 14 q 169 386 169 164 l 169 1003 q 148 1300 169 1225 q 42 1375 126 1375 m 325 611 q 367 669 325 646 q 467 710 408 693 q 586 747 526 726 q 688 807 646 767 q 729 906 729 847 q 664 969 729 969 l 664 983 l 831 983 q 854 947 854 983 q 801 817 854 871 q 673 738 749 764 q 521 694 597 711 q 392 657 444 676 q 339 611 339 638 q 379 566 339 585 q 475 532 419 547 q 601 469 531 517 q 717 347 671 422 q 774 206 749 294 q 811 86 799 117 q 931 14 842 14 l 931 0 l 771 0 q 733 11 750 0 q 706 45 717 22 q 688 86 694 68 q 674 133 682 104 q 669 149 671 144 q 604 344 626 304 q 514 460 567 414 q 422 524 461 507 q 353 562 382 540 q 325 611 325 583 m 176 -89 q 194 -47 176 -64 q 236 -29 211 -29 q 283 -50 264 -29 q 301 -110 301 -71 q 292 -172 301 -144 q 270 -213 283 -199 q 244 -238 257 -228 q 222 -251 232 -249 l 214 -254 l 213 -246 q 258 -203 242 -239 q 265 -139 275 -168 q 236 -150 257 -150 q 194 -133 211 -150 q 176 -89 176 -115 z "},"":{"ha":972,"x_min":42,"x_max":931,"o":"m 417 0 l 42 0 l 42 14 q 148 89 126 14 q 169 386 169 164 l 169 1003 q 148 1300 169 1225 q 42 1375 126 1375 l 42 1389 l 289 1389 l 289 386 q 310 89 289 164 q 417 14 332 14 l 417 0 m 729 906 q 664 969 729 969 l 664 983 l 831 983 q 854 947 854 983 q 801 817 854 871 q 673 738 749 764 q 521 694 597 711 q 392 657 444 676 q 339 611 339 638 q 379 566 339 585 q 475 532 419 547 q 601 469 531 517 q 717 347 671 422 q 774 206 749 294 q 811 86 799 117 q 931 14 842 14 l 931 0 l 771 0 q 733 11 750 0 q 706 45 717 22 q 688 86 694 68 q 674 133 682 104 q 669 149 671 144 q 604 344 626 304 q 514 460 567 414 q 422 524 461 507 q 353 562 382 540 q 325 611 325 583 q 367 669 325 646 q 467 710 408 693 q 586 747 526 726 q 688 807 646 767 q 729 906 729 847 z "},"":{"ha":1076,"x_min":42,"x_max":1035,"o":"m 42 1389 l 417 1389 l 417 1375 q 310 1300 332 1375 q 289 1003 289 1225 l 289 14 l 465 14 q 612 20 538 14 q 789 46 686 26 q 956 113 892 65 q 1021 229 1021 160 l 1035 229 l 1035 0 l 42 0 l 42 14 q 148 89 126 14 q 169 386 169 164 l 169 1003 q 148 1300 169 1225 q 42 1375 126 1375 l 42 1389 m 196 1500 l 90 1500 l 90 1514 l 135 1514 q 205 1533 175 1514 q 248 1573 235 1551 q 280 1613 261 1594 q 319 1632 299 1632 q 348 1621 338 1632 q 358 1594 358 1610 q 306 1527 358 1554 q 196 1500 253 1500 z "},"":{"ha":458,"x_min":42,"x_max":417,"o":"m 42 1389 l 289 1389 l 289 386 q 310 89 289 164 q 417 14 332 14 l 417 0 l 42 0 l 42 14 q 148 89 126 14 q 169 386 169 164 l 169 1003 q 148 1300 169 1225 q 42 1375 126 1375 l 42 1389 m 75 1514 l 119 1514 q 190 1533 160 1514 q 233 1573 219 1551 q 265 1613 246 1594 q 304 1632 283 1632 q 333 1621 322 1632 q 343 1594 343 1610 q 290 1527 343 1554 q 181 1500 238 1500 l 75 1500 l 75 1514 z "},"":{"ha":1076,"x_min":42,"x_max":1035,"o":"m 42 1375 l 42 1389 l 417 1389 l 417 1375 q 310 1300 332 1375 q 289 1003 289 1225 l 289 14 l 465 14 q 612 20 538 14 q 789 46 686 26 q 956 113 892 65 q 1021 229 1021 160 l 1035 229 l 1035 0 l 42 0 l 42 14 q 148 89 126 14 q 169 386 169 164 l 169 1003 q 148 1300 169 1225 q 42 1375 126 1375 m 213 -150 q 169 -133 188 -150 q 151 -89 151 -115 q 169 -47 151 -64 q 213 -29 188 -29 q 258 -50 239 -29 q 276 -110 276 -71 q 267 -172 276 -144 q 245 -213 258 -199 q 219 -238 232 -228 q 197 -251 207 -249 l 189 -254 l 188 -246 q 233 -203 217 -239 q 240 -139 250 -168 q 213 -150 232 -150 z "},"":{"ha":458,"x_min":42,"x_max":417,"o":"m 417 0 l 42 0 l 42 14 q 148 89 126 14 q 169 386 169 164 l 169 1003 q 148 1300 169 1225 q 42 1375 126 1375 l 42 1389 l 289 1389 l 289 386 q 310 89 289 164 q 417 14 332 14 l 417 0 m 192 -161 q 184 -152 192 -161 q 175 -118 175 -143 q 192 -76 175 -93 q 235 -58 210 -58 q 281 -79 261 -58 q 300 -139 300 -100 q 278 -229 300 -193 q 233 -275 256 -265 l 211 -283 l 211 -275 q 257 -232 240 -268 q 263 -167 274 -196 q 235 -179 254 -179 q 192 -161 210 -179 z "},"":{"ha":1076,"x_min":42,"x_max":1035,"o":"m 42 0 l 42 14 q 148 89 126 14 q 169 386 169 164 l 169 1003 q 148 1300 169 1225 q 42 1375 126 1375 l 42 1389 l 417 1389 l 417 1375 q 310 1300 332 1375 q 289 1003 289 1225 l 289 14 l 465 14 q 612 20 538 14 q 789 46 686 26 q 956 113 892 65 q 1021 229 1021 160 l 1035 229 l 1035 0 l 42 0 m 461 1329 q 479 1372 461 1354 q 522 1389 497 1389 q 567 1368 549 1389 q 586 1308 586 1347 q 577 1247 586 1274 q 555 1205 568 1219 q 529 1180 542 1190 q 508 1167 517 1169 l 499 1164 l 497 1172 q 544 1215 526 1179 q 550 1279 561 1250 q 522 1268 542 1268 q 479 1285 497 1268 q 461 1329 461 1303 z "},"":{"ha":458,"x_min":42,"x_max":479,"o":"m 417 0 l 42 0 l 42 14 q 148 89 126 14 q 169 386 169 164 l 169 1003 q 148 1300 169 1225 q 42 1375 126 1375 l 42 1389 l 289 1389 l 289 386 q 310 89 289 164 q 417 14 332 14 l 417 0 m 414 1268 q 372 1285 389 1268 q 354 1329 354 1303 q 372 1372 354 1354 q 414 1389 389 1389 q 460 1368 440 1389 q 479 1308 479 1347 q 457 1218 479 1254 q 413 1172 435 1182 l 390 1164 l 390 1172 q 436 1215 419 1179 q 442 1279 453 1250 q 414 1268 433 1268 z "},"":{"ha":1076,"x_min":42,"x_max":1035,"o":"m 42 0 l 42 14 q 148 89 126 14 q 169 386 169 164 l 169 1003 q 148 1300 169 1225 q 42 1375 126 1375 l 42 1389 l 417 1389 l 417 1375 q 310 1300 332 1375 q 289 1003 289 1225 l 289 14 l 465 14 q 612 20 538 14 q 789 46 686 26 q 956 113 892 65 q 1021 229 1021 160 l 1035 229 l 1035 0 l 42 0 m 605 1035 q 591 1022 605 1035 q 539 1008 578 1008 q 473 1035 500 1008 q 446 1101 446 1063 q 473 1167 446 1140 q 539 1194 500 1194 q 605 1167 578 1194 q 632 1101 632 1140 q 605 1035 632 1063 z "},"":{"ha":557,"x_min":42,"x_max":536,"o":"m 417 0 l 42 0 l 42 14 q 148 89 126 14 q 169 386 169 164 l 169 1003 q 148 1300 169 1225 q 42 1375 126 1375 l 42 1389 l 289 1389 l 289 386 q 310 89 289 164 q 417 14 332 14 l 417 0 m 509 630 q 495 616 509 630 q 443 603 482 603 q 377 630 404 603 q 350 696 350 657 q 377 762 350 735 q 443 789 404 789 q 509 762 482 789 q 536 696 536 735 q 509 630 536 657 z "},"":{"ha":1076,"x_min":42,"x_max":1035,"o":"m 42 0 l 42 14 q 148 89 126 14 q 169 386 169 164 l 169 682 l 85 682 l 85 697 l 169 697 l 169 1003 q 148 1300 169 1225 q 42 1375 126 1375 l 42 1389 l 417 1389 l 417 1375 q 310 1300 332 1375 q 289 1003 289 1225 l 289 697 l 451 697 l 451 682 l 289 682 l 289 14 l 465 14 q 612 20 538 14 q 789 46 686 26 q 956 113 892 65 q 1021 229 1021 160 l 1035 229 l 1035 0 l 42 0 z "},"":{"ha":458,"x_min":42,"x_max":417,"o":"m 42 0 l 42 14 q 148 89 126 14 q 169 386 169 164 l 169 682 l 99 682 l 99 697 l 169 697 l 169 1003 q 148 1300 169 1225 q 42 1375 126 1375 l 42 1389 l 289 1389 l 289 697 l 349 697 l 349 682 l 289 682 l 289 386 q 310 89 289 164 q 417 14 332 14 l 417 0 l 42 0 z "},"":{"ha":1246,"x_min":42,"x_max":1204,"o":"m 417 0 l 42 0 l 42 14 q 148 89 126 14 q 169 386 169 164 l 169 1003 q 148 1300 169 1225 q 42 1375 126 1375 l 42 1389 l 285 1389 l 1063 203 l 1063 808 q 995 1233 1063 1092 q 829 1375 928 1375 l 829 1389 l 1204 1389 l 1204 1375 q 1098 1300 1119 1375 q 1076 1003 1076 1225 l 1076 -28 l 1063 -28 l 183 1311 l 183 581 q 251 156 183 297 q 417 14 318 14 l 417 0 m 476 1514 l 521 1514 q 591 1533 561 1514 q 634 1573 621 1551 q 666 1613 647 1594 q 706 1632 685 1632 q 734 1621 724 1632 q 744 1594 744 1610 q 692 1527 744 1554 q 582 1500 639 1500 l 476 1500 l 476 1514 z "},"":{"ha":1093,"x_min":42,"x_max":1065,"o":"m 169 597 q 148 894 169 819 q 42 969 126 969 l 42 983 l 200 983 q 397 997 261 983 q 567 1011 532 1011 q 938 701 938 1011 l 938 386 q 959 89 938 164 q 1065 14 981 14 l 1065 0 l 690 0 l 690 14 q 797 89 775 14 q 818 386 818 164 l 817 672 q 792 825 817 761 q 735 920 767 889 q 653 969 703 951 q 574 989 604 986 q 504 992 544 992 q 289 951 403 992 l 289 386 q 310 89 289 164 q 417 14 332 14 l 417 0 l 42 0 l 42 14 q 148 89 126 14 q 169 386 169 164 l 169 597 m 493 1094 l 388 1094 l 388 1108 l 432 1108 q 502 1127 472 1108 q 545 1167 532 1146 q 577 1208 558 1189 q 617 1226 596 1226 q 645 1215 635 1226 q 656 1189 656 1204 q 603 1122 656 1149 q 493 1094 550 1094 z "},"":{"ha":1246,"x_min":42,"x_max":1204,"o":"m 42 14 q 148 89 126 14 q 169 386 169 164 l 169 1003 q 148 1300 169 1225 q 42 1375 126 1375 l 42 1389 l 285 1389 l 1063 203 l 1063 808 q 995 1233 1063 1092 q 829 1375 928 1375 l 829 1389 l 1204 1389 l 1204 1375 q 1098 1300 1119 1375 q 1076 1003 1076 1225 l 1076 -28 l 1063 -28 l 183 1311 l 183 581 q 251 156 183 297 q 417 14 318 14 l 417 0 l 42 0 l 42 14 m 225 -150 q 183 -133 200 -150 q 165 -89 165 -115 q 183 -47 165 -64 q 225 -29 200 -29 q 271 -50 251 -29 q 290 -110 290 -71 q 268 -200 290 -164 q 224 -244 246 -236 l 201 -254 l 201 -246 q 247 -203 231 -239 q 254 -139 264 -168 q 225 -150 246 -150 z "},"":{"ha":1093,"x_min":42,"x_max":1065,"o":"m 169 597 q 148 894 169 819 q 42 969 126 969 l 42 983 l 200 983 q 397 997 261 983 q 567 1011 532 1011 q 938 701 938 1011 l 938 386 q 959 89 938 164 q 1065 14 981 14 l 1065 0 l 690 0 l 690 14 q 797 89 775 14 q 818 386 818 164 l 817 672 q 792 825 817 761 q 735 920 767 889 q 653 969 703 951 q 574 989 604 986 q 504 992 544 992 q 289 951 403 992 l 289 386 q 310 89 289 164 q 417 14 332 14 l 417 0 l 42 0 l 42 14 q 148 89 126 14 q 169 386 169 164 l 169 597 m 239 -150 q 197 -132 214 -150 q 179 -89 179 -114 q 197 -47 179 -64 q 239 -29 214 -29 q 285 -50 265 -29 q 304 -110 304 -71 q 282 -200 304 -164 q 238 -244 260 -236 l 215 -254 l 215 -246 q 261 -203 244 -239 q 267 -137 278 -167 q 239 -150 258 -150 z "},"":{"ha":1246,"x_min":42,"x_max":1204,"o":"m 42 1375 l 42 1389 l 285 1389 l 1063 203 l 1063 808 q 995 1233 1063 1092 q 829 1375 928 1375 l 829 1389 l 1204 1389 l 1204 1375 q 1098 1300 1119 1375 q 1076 1003 1076 1225 l 1076 -28 l 1063 -28 l 183 1311 l 183 581 q 251 156 183 297 q 417 14 318 14 l 417 0 l 42 0 l 42 14 q 148 89 126 14 q 169 386 169 164 l 169 1003 q 148 1300 169 1225 q 42 1375 126 1375 m 457 1619 l 465 1633 l 614 1569 l 763 1633 l 771 1619 l 610 1500 l 457 1619 z "},"":{"ha":1093,"x_min":42,"x_max":1065,"o":"m 42 14 q 148 89 126 14 q 169 386 169 164 l 169 597 q 148 894 169 819 q 42 969 126 969 l 42 983 l 200 983 q 397 997 261 983 q 567 1011 532 1011 q 938 701 938 1011 l 938 386 q 959 89 938 164 q 1065 14 981 14 l 1065 0 l 690 0 l 690 14 q 797 89 775 14 q 818 386 818 164 l 817 672 q 792 825 817 761 q 735 920 767 889 q 653 969 703 951 q 574 989 604 986 q 504 992 544 992 q 289 951 403 992 l 289 386 q 310 89 289 164 q 417 14 332 14 l 417 0 l 42 0 l 42 14 m 368 1214 l 376 1228 l 525 1164 l 674 1228 l 682 1214 l 521 1094 l 368 1214 z "},"":{"ha":1093,"x_min":-131,"x_max":1065,"o":"m 42 983 l 200 983 q 397 997 261 983 q 567 1011 532 1011 q 938 701 938 1011 l 938 386 q 959 89 938 164 q 1065 14 981 14 l 1065 0 l 690 0 l 690 14 q 797 89 775 14 q 818 386 818 164 l 817 672 q 792 825 817 761 q 735 920 767 889 q 653 969 703 951 q 574 989 604 986 q 504 992 544 992 q 289 951 403 992 l 289 386 q 310 89 289 164 q 417 14 332 14 l 417 0 l 42 0 l 42 14 q 148 89 126 14 q 169 386 169 164 l 169 597 q 148 894 169 819 q 42 969 126 969 l 42 983 m -131 922 q -112 966 -131 949 q -69 983 -94 983 q -24 963 -43 983 q -6 903 -6 942 q -15 841 -6 868 q -37 799 -24 814 q -62 774 -50 785 q -83 761 -75 764 l -93 758 l -94 767 q -48 809 -65 774 q -42 874 -31 844 q -69 863 -50 863 q -112 880 -94 863 q -131 922 -131 897 z "},"":{"ha":1338,"x_min":42,"x_max":1310,"o":"m 42 1389 l 285 1389 l 1063 203 l 1063 1003 q 1041 1300 1063 1225 q 935 1375 1019 1375 l 935 1389 l 1310 1389 l 1310 1375 q 1203 1300 1225 1375 q 1182 1003 1182 1225 l 1182 96 q 1094 -175 1182 -58 q 876 -292 1007 -292 q 828 -286 861 -292 l 831 -272 q 853 -274 844 -274 q 986 -204 933 -274 q 1056 -17 1039 -135 l 183 1311 l 183 581 q 251 156 183 297 q 417 14 318 14 l 417 0 l 42 0 l 42 14 q 148 89 126 14 q 169 386 169 164 l 169 1003 q 148 1300 169 1225 q 42 1375 126 1375 l 42 1389 z "},"":{"ha":1093,"x_min":42,"x_max":939,"o":"m 42 0 l 42 14 q 148 89 126 14 q 169 386 169 164 l 169 597 q 148 894 169 819 q 42 969 126 969 l 42 983 l 200 983 q 397 997 261 983 q 567 1011 532 1011 q 654 1008 615 1011 q 750 986 693 1004 q 845 937 807 968 q 911 845 883 906 q 938 701 939 785 l 936 557 l 936 -303 q 870 -512 936 -419 q 690 -606 804 -606 q 585 -575 626 -606 l 594 -561 q 675 -586 626 -586 q 817 -324 817 -586 l 817 597 l 817 672 q 792 825 817 761 q 735 920 767 889 q 653 969 703 951 q 574 989 604 986 q 504 992 544 992 q 289 951 403 992 l 289 386 q 310 89 289 164 q 417 14 332 14 l 417 0 l 42 0 z "},"":{"ha":1403,"x_min":83,"x_max":1319,"o":"m 1141 178 q 1052 75 1141 178 q 701 -28 963 -28 q 262 178 440 -28 q 83 694 83 385 q 262 1210 83 1004 q 701 1417 440 1417 q 1141 1210 963 1417 q 1319 694 1319 1004 q 1141 178 1319 385 m 1056 1200 q 986 1300 1056 1200 q 701 1400 917 1400 q 347 1200 486 1400 q 208 694 208 1000 q 353 192 208 394 q 701 -11 497 -11 q 1050 192 906 -11 q 1194 694 1194 394 q 1056 1200 1194 1000 m 850 1500 l 551 1500 l 551 1531 l 850 1531 l 850 1500 z "},"":{"ha":1122,"x_min":83,"x_max":1039,"o":"m 213 121 q 148 195 213 121 q 83 492 83 269 q 213 863 83 714 q 560 1011 342 1011 q 908 862 778 1011 q 1039 492 1039 713 q 908 122 1039 271 q 560 -28 778 -28 q 213 121 342 -28 m 822 857 q 772 926 822 857 q 560 994 722 994 q 299 858 397 994 q 201 492 201 721 q 299 126 201 263 q 560 -11 397 -11 q 822 126 722 -11 q 921 492 921 264 q 822 857 921 719 m 710 1094 l 411 1094 l 411 1125 l 710 1125 l 710 1094 z "},"":{"ha":1403,"x_min":83,"x_max":1319,"o":"m 1141 178 q 1052 75 1141 178 q 701 -28 963 -28 q 262 178 440 -28 q 83 694 83 385 q 262 1210 83 1004 q 701 1417 440 1417 q 1141 1210 963 1417 q 1319 694 1319 1004 q 1141 178 1319 385 m 1056 1200 q 986 1300 1056 1200 q 701 1400 917 1400 q 347 1200 486 1400 q 208 694 208 1000 q 353 192 208 394 q 701 -11 497 -11 q 1050 192 906 -11 q 1194 694 1194 394 q 1056 1200 1194 1000 m 549 1619 l 561 1619 q 701 1542 608 1542 q 842 1619 794 1542 l 854 1619 q 801 1535 844 1569 q 701 1500 757 1500 q 602 1535 646 1500 q 549 1619 558 1569 z "},"":{"ha":1122,"x_min":83,"x_max":1039,"o":"m 908 122 q 843 47 908 122 q 560 -28 778 -28 q 213 121 342 -28 q 83 492 83 269 q 213 863 83 714 q 560 1011 342 1011 q 908 862 778 1011 q 1039 492 1039 713 q 908 122 1039 271 m 822 857 q 772 926 822 857 q 560 994 722 994 q 299 858 397 994 q 201 492 201 721 q 299 126 201 263 q 560 -11 397 -11 q 822 126 722 -11 q 921 492 921 264 q 822 857 921 719 m 560 1094 q 461 1129 504 1094 q 407 1214 418 1164 l 419 1214 q 560 1136 467 1136 q 701 1214 654 1136 l 713 1214 q 660 1129 703 1164 q 560 1094 617 1094 z "},"":{"ha":1403,"x_min":83,"x_max":1319,"o":"m 262 178 q 173 282 262 178 q 83 694 83 385 q 262 1210 83 1004 q 701 1417 440 1417 q 1141 1210 963 1417 q 1319 694 1319 1004 q 1141 178 1319 385 q 701 -28 963 -28 q 262 178 440 -28 m 1056 1200 q 986 1300 1056 1200 q 701 1400 917 1400 q 347 1200 486 1400 q 208 694 208 1000 q 353 192 208 394 q 701 -11 497 -11 q 1050 192 906 -11 q 1194 694 1194 394 q 1056 1200 1194 1000 m 740 1511 l 756 1511 q 794 1532 781 1511 q 810 1578 807 1553 q 824 1625 813 1604 q 858 1646 836 1646 q 888 1614 888 1646 q 845 1540 888 1579 q 760 1500 803 1500 l 740 1500 l 740 1511 m 600 1511 l 615 1511 q 653 1532 640 1511 q 669 1578 667 1553 q 684 1625 672 1604 q 718 1646 696 1646 q 747 1614 747 1646 q 705 1540 747 1579 q 619 1500 663 1500 l 600 1500 l 600 1511 z "},"":{"ha":1122,"x_min":83,"x_max":1039,"o":"m 213 121 q 148 195 213 121 q 83 492 83 269 q 213 863 83 714 q 560 1011 342 1011 q 908 862 778 1011 q 1039 492 1039 713 q 908 122 1039 271 q 560 -28 778 -28 q 213 121 342 -28 m 299 858 q 250 789 299 858 q 201 492 201 721 q 299 126 201 263 q 560 -11 397 -11 q 822 126 722 -11 q 921 492 921 264 q 822 857 921 719 q 560 994 722 994 q 299 858 397 994 m 600 1094 l 600 1106 l 615 1106 q 653 1126 640 1106 q 669 1173 667 1147 q 684 1219 672 1199 q 718 1240 696 1240 q 747 1208 747 1240 q 705 1134 747 1174 q 619 1094 663 1094 l 600 1094 m 460 1094 l 460 1106 l 475 1106 q 513 1126 500 1106 q 529 1173 526 1147 q 544 1219 532 1199 q 578 1240 556 1240 q 607 1208 607 1240 q 565 1134 607 1174 q 479 1094 522 1094 l 460 1094 z "},"":{"ha":1663,"x_min":42,"x_max":1621,"o":"m 208 193 q 125 290 208 193 q 42 694 42 386 q 208 1196 42 1003 q 626 1389 374 1389 l 1621 1389 l 1621 1201 l 1607 1201 l 1607 1207 q 1472 1327 1607 1279 q 1104 1375 1336 1375 l 874 1375 l 874 778 q 1035 842 940 842 q 1208 799 1106 842 q 1371 756 1311 756 q 1443 778 1413 756 q 1474 835 1474 800 l 1488 835 q 1438 726 1488 771 q 1310 682 1389 682 q 1199 701 1253 682 q 1113 742 1146 719 q 1042 783 1081 764 q 971 804 1003 803 q 874 756 913 806 l 874 14 l 1051 14 q 1198 20 1124 14 q 1375 46 1272 26 q 1542 113 1478 65 q 1607 229 1607 160 l 1621 229 l 1621 0 l 626 0 q 208 193 374 0 m 626 1375 q 296 1185 429 1375 q 163 694 163 994 q 296 204 163 394 q 626 14 429 14 q 733 89 711 14 q 754 386 754 164 l 754 1003 q 733 1300 754 1225 q 626 1375 711 1375 z "},"":{"ha":1881,"x_min":42,"x_max":1839,"o":"m 171 121 q 106 195 171 121 q 42 492 42 269 q 171 863 42 714 q 518 1011 300 1011 q 798 924 682 1011 q 964 693 914 838 q 1130 925 1014 839 q 1408 1011 1246 1011 q 1596 978 1514 1011 q 1722 892 1678 944 q 1789 783 1767 839 q 1811 674 1811 728 q 1785 563 1811 610 q 1715 490 1758 515 q 1626 454 1672 465 q 1531 443 1581 443 q 1317 501 1447 443 q 1140 560 1188 560 q 1086 532 1096 560 l 1081 533 q 1118 603 1081 575 q 1206 632 1156 632 q 1317 591 1253 632 q 1454 509 1381 550 q 1599 468 1528 468 q 1709 511 1669 468 q 1749 631 1749 554 q 1724 747 1749 689 q 1653 856 1700 804 q 1526 939 1606 907 q 1347 971 1446 971 q 1238 953 1294 971 q 1123 899 1181 936 q 1028 790 1065 861 q 992 626 992 719 q 1036 383 992 494 q 1152 199 1081 271 q 1312 86 1224 126 q 1489 46 1400 46 q 1819 258 1739 46 l 1839 250 q 1672 47 1783 122 q 1408 -28 1560 -28 q 1130 59 1246 -28 q 964 290 1014 146 q 797 59 914 146 q 518 -28 681 -28 q 171 121 300 -28 m 258 858 q 209 789 258 858 q 160 492 160 721 q 258 126 160 263 q 518 -11 356 -11 q 780 126 681 -11 q 879 492 879 264 q 780 857 879 719 q 518 994 681 994 q 258 858 356 994 m 407 681 q 446 815 407 758 q 558 890 485 871 l 563 876 q 508 847 535 876 q 481 767 481 817 q 514 632 481 706 q 581 482 547 558 q 614 338 614 406 q 574 210 614 265 q 463 136 535 156 l 458 150 q 513 180 486 150 q 540 260 540 210 q 474 467 540 328 q 407 681 407 607 z "},"":{"ha":1211,"x_min":42,"x_max":1169,"o":"m 42 14 q 148 89 126 14 q 169 386 169 164 l 169 1003 q 148 1300 169 1225 q 42 1375 126 1375 l 42 1389 l 208 1389 q 411 1403 283 1389 q 621 1417 539 1417 q 960 1308 838 1417 q 1082 1026 1082 1200 q 971 771 1082 878 q 685 664 860 664 q 519 708 611 664 q 407 753 428 753 q 367 717 367 753 q 415 658 367 686 q 527 606 464 629 q 663 537 590 583 q 772 432 735 490 q 819 356 786 410 q 872 273 853 303 q 924 197 892 243 q 982 123 956 150 q 1040 68 1008 96 q 1104 27 1072 40 q 1169 14 1136 14 l 1169 0 l 957 0 q 936 3 946 0 q 915 15 926 6 q 894 34 904 24 q 868 65 883 44 q 839 107 853 86 q 801 163 825 128 q 757 231 778 199 q 701 316 736 264 q 635 417 667 368 q 535 535 590 483 q 442 610 479 588 q 379 660 406 632 q 353 719 353 688 q 401 767 353 767 q 521 727 436 767 q 676 688 606 688 q 882 790 801 688 q 963 1025 963 893 q 849 1297 963 1197 q 542 1397 736 1397 q 288 1353 411 1397 l 288 386 q 309 89 288 164 q 415 14 331 14 l 415 0 l 42 0 l 42 14 m 469 1500 l 364 1500 l 364 1514 l 408 1514 q 478 1533 449 1514 q 522 1573 508 1551 q 553 1613 535 1594 q 593 1632 572 1632 q 622 1621 611 1632 q 632 1594 632 1610 q 579 1527 632 1554 q 469 1500 526 1500 z "},"":{"ha":939,"x_min":42,"x_max":911,"o":"m 42 969 l 42 983 l 203 983 q 451 997 283 983 q 696 1011 619 1011 q 851 966 790 1011 q 911 842 911 921 q 880 745 911 783 q 792 707 849 707 q 738 725 761 707 q 715 771 715 743 q 767 803 744 772 q 790 875 790 833 q 752 958 790 925 q 642 992 714 992 q 455 980 567 992 q 289 951 343 968 l 289 386 q 310 89 289 164 q 417 14 332 14 l 417 0 l 42 0 l 42 14 q 148 89 126 14 q 169 386 169 164 l 169 597 q 148 894 169 819 q 42 969 126 969 m 336 1108 l 381 1108 q 451 1127 421 1108 q 494 1167 481 1146 q 526 1208 507 1189 q 565 1226 544 1226 q 594 1215 583 1226 q 604 1189 604 1204 q 551 1122 604 1149 q 442 1094 499 1094 l 336 1094 l 336 1108 z "},"":{"ha":1211,"x_min":42,"x_max":1169,"o":"m 42 14 q 148 89 126 14 q 169 386 169 164 l 169 1003 q 148 1300 169 1225 q 42 1375 126 1375 l 42 1389 l 208 1389 q 411 1403 283 1389 q 621 1417 539 1417 q 960 1308 838 1417 q 1082 1026 1082 1200 q 971 771 1082 878 q 685 664 860 664 q 519 708 611 664 q 407 753 428 753 q 367 717 367 753 q 415 658 367 686 q 527 606 464 629 q 663 537 590 583 q 772 432 735 490 q 819 356 786 410 q 872 273 853 303 q 924 197 892 243 q 982 123 956 150 q 1040 68 1008 96 q 1104 27 1072 40 q 1169 14 1136 14 l 1169 0 l 957 0 q 936 3 946 0 q 915 15 926 6 q 894 34 904 24 q 868 65 883 44 q 839 107 853 86 q 801 163 825 128 q 757 231 778 199 q 701 316 736 264 q 635 417 667 368 q 535 535 590 483 q 442 610 479 588 q 379 660 406 632 q 353 719 353 688 q 401 767 353 767 q 521 727 436 767 q 676 688 606 688 q 882 790 801 688 q 963 1025 963 893 q 849 1297 963 1197 q 542 1397 736 1397 q 288 1353 411 1397 l 288 386 q 309 89 288 164 q 415 14 331 14 l 415 0 l 42 0 l 42 14 m 225 -150 q 183 -133 200 -150 q 165 -89 165 -115 q 183 -47 165 -64 q 225 -29 200 -29 q 271 -50 251 -29 q 290 -110 290 -71 q 268 -200 290 -164 q 224 -244 246 -236 l 201 -254 l 201 -246 q 247 -203 231 -239 q 253 -139 264 -168 q 225 -150 246 -150 z "},"":{"ha":939,"x_min":42,"x_max":911,"o":"m 42 969 l 42 983 l 203 983 q 451 997 283 983 q 696 1011 619 1011 q 851 966 790 1011 q 911 842 911 921 q 880 745 911 783 q 792 707 849 707 q 738 725 761 707 q 715 771 715 743 q 767 803 744 772 q 790 875 790 833 q 752 958 790 925 q 642 992 714 992 q 455 980 567 992 q 289 951 343 968 l 289 386 q 310 89 289 164 q 417 14 332 14 l 417 0 l 42 0 l 42 14 q 148 89 126 14 q 169 386 169 164 l 169 597 q 148 894 169 819 q 42 969 126 969 m 244 -150 q 201 -133 219 -150 q 183 -89 183 -115 q 201 -47 183 -64 q 244 -29 219 -29 q 290 -50 271 -29 q 310 -110 310 -71 q 288 -200 310 -164 q 243 -244 265 -236 l 221 -254 l 219 -246 q 266 -203 249 -239 q 272 -139 283 -167 q 244 -150 264 -150 z "},"":{"ha":1211,"x_min":42,"x_max":1169,"o":"m 42 14 q 148 89 126 14 q 169 386 169 164 l 169 1003 q 148 1300 169 1225 q 42 1375 126 1375 l 42 1389 l 208 1389 q 411 1403 283 1389 q 621 1417 539 1417 q 960 1308 838 1417 q 1082 1026 1082 1200 q 971 771 1082 878 q 685 664 860 664 q 519 708 611 664 q 407 753 428 753 q 367 717 367 753 q 415 658 367 686 q 527 606 464 629 q 663 537 590 583 q 772 432 735 490 q 819 356 786 410 q 872 273 853 303 q 924 197 892 243 q 982 123 956 150 q 1040 68 1008 96 q 1104 27 1072 40 q 1169 14 1136 14 l 1169 0 l 957 0 q 936 3 946 0 q 915 15 926 6 q 894 34 904 24 q 868 65 883 44 q 839 107 853 86 q 801 163 825 128 q 757 231 778 199 q 701 316 736 264 q 635 417 667 368 q 535 535 590 483 q 442 610 479 588 q 379 660 406 632 q 353 719 353 688 q 401 767 353 767 q 521 727 436 767 q 676 688 606 688 q 882 790 801 688 q 963 1025 963 893 q 849 1297 963 1197 q 542 1397 736 1397 q 288 1353 411 1397 l 288 386 q 309 89 288 164 q 415 14 331 14 l 415 0 l 42 0 l 42 14 m 497 1500 l 344 1619 l 353 1633 l 501 1569 l 650 1633 l 658 1619 l 497 1500 z "},"":{"ha":939,"x_min":42,"x_max":911,"o":"m 42 983 l 203 983 q 451 997 283 983 q 696 1011 619 1011 q 851 966 790 1011 q 911 842 911 921 q 880 745 911 783 q 792 707 849 707 q 738 725 761 707 q 715 771 715 743 q 767 803 744 772 q 790 875 790 833 q 752 958 790 925 q 642 992 714 992 q 455 980 567 992 q 289 951 343 968 l 289 386 q 310 89 289 164 q 417 14 332 14 l 417 0 l 42 0 l 42 14 q 148 89 126 14 q 169 386 169 164 l 169 597 q 148 894 169 819 q 42 969 126 969 l 42 983 m 317 1214 l 325 1228 l 474 1164 l 622 1228 l 631 1214 l 469 1094 l 317 1214 z "},"":{"ha":1142,"x_min":83,"x_max":1058,"o":"m 83 1056 q 217 1313 83 1208 q 581 1417 350 1417 q 976 1353 788 1417 l 976 1167 l 963 1167 q 952 1192 960 1176 q 914 1247 944 1207 q 844 1319 883 1288 q 734 1375 804 1350 q 581 1400 664 1400 q 289 1306 397 1400 q 181 1089 181 1213 q 229 955 181 1013 q 355 862 278 897 q 526 795 432 826 q 713 728 619 764 q 884 649 807 693 q 1010 530 961 604 q 1058 357 1058 456 q 913 88 1058 204 q 538 -28 768 -28 q 89 142 317 -28 l 89 328 l 103 328 q 124 292 110 314 q 188 213 139 269 q 292 112 238 156 q 435 33 347 68 q 615 -3 522 -3 q 871 90 764 -3 q 978 300 978 182 q 928 449 978 385 q 800 553 879 513 q 626 629 721 594 q 435 699 531 664 q 261 778 340 735 q 133 893 182 822 q 83 1056 83 964 m 543 1500 l 438 1500 l 438 1514 l 482 1514 q 552 1533 522 1514 q 595 1573 582 1551 q 627 1613 608 1594 q 667 1632 646 1632 q 695 1621 685 1632 q 706 1594 706 1610 q 653 1527 706 1554 q 543 1500 600 1500 z "},"":{"ha":931,"x_min":83,"x_max":847,"o":"m 83 226 l 97 226 q 120 160 97 200 q 183 81 143 121 q 290 13 222 40 q 433 -14 357 -15 q 645 56 556 -11 q 735 238 735 124 q 700 338 735 297 q 610 403 665 379 q 487 446 554 426 q 351 489 419 465 q 228 544 283 513 q 138 633 172 576 q 103 769 103 690 q 192 942 103 872 q 444 1011 282 1011 q 635 987 549 1011 q 756 939 721 963 l 789 914 l 789 750 l 783 750 q 657 933 743 868 q 458 997 571 997 q 258 938 332 997 q 183 796 183 878 q 220 696 183 738 q 315 630 257 654 q 444 585 374 606 q 586 539 515 564 q 715 481 657 514 q 810 391 774 449 q 847 256 847 333 q 729 42 847 113 q 433 -28 611 -28 q 83 57 215 -28 l 83 226 m 324 1094 l 324 1108 l 368 1108 q 438 1127 408 1108 q 481 1167 468 1146 q 513 1208 494 1189 q 553 1226 532 1226 q 581 1215 571 1226 q 592 1189 592 1204 q 539 1122 592 1149 q 429 1094 486 1094 l 324 1094 z "},"":{"ha":1142,"x_min":83,"x_max":1058,"o":"m 978 300 q 928 449 978 385 q 800 553 879 513 q 626 629 721 594 q 435 699 531 664 q 261 778 340 735 q 133 893 182 822 q 83 1056 83 964 q 217 1313 83 1208 q 581 1417 350 1417 q 976 1353 788 1417 l 976 1167 l 963 1167 q 952 1192 960 1176 q 914 1247 944 1207 q 844 1319 883 1288 q 734 1375 804 1350 q 581 1400 664 1400 q 289 1306 397 1400 q 181 1089 181 1213 q 229 955 181 1013 q 355 862 278 897 q 526 795 432 826 q 713 728 619 764 q 884 649 807 693 q 1010 530 961 604 q 1058 357 1058 456 q 913 88 1058 204 q 538 -28 768 -28 q 89 142 317 -28 l 89 328 l 103 328 q 124 292 110 314 q 188 213 139 269 q 292 112 238 156 q 435 33 347 68 q 615 -3 522 -3 q 871 90 764 -3 q 978 300 978 182 m 418 1514 l 571 1633 l 732 1514 l 724 1500 l 575 1564 l 426 1500 l 418 1514 z "},"":{"ha":931,"x_min":83,"x_max":847,"o":"m 83 57 l 83 226 l 97 226 q 120 160 97 200 q 183 81 143 121 q 290 13 222 40 q 433 -14 357 -15 q 645 56 556 -11 q 735 238 735 124 q 700 338 735 297 q 610 403 665 379 q 487 446 554 426 q 351 489 419 465 q 228 544 283 513 q 138 633 172 576 q 103 769 103 690 q 192 942 103 872 q 444 1011 282 1011 q 635 987 549 1011 q 756 939 721 963 l 789 914 l 789 750 l 783 750 q 657 933 743 868 q 458 997 571 997 q 258 938 332 997 q 183 796 183 878 q 220 696 183 738 q 315 630 257 654 q 444 585 374 606 q 586 539 515 564 q 715 481 657 514 q 810 391 774 449 q 847 256 847 333 q 729 42 847 113 q 433 -28 611 -28 q 83 57 215 -28 m 310 1094 l 301 1108 l 454 1228 l 615 1108 l 607 1094 l 458 1158 l 310 1094 z "}}}
